<?xml version="1.0" standalone="no"?>
<!DOCTYPE svg PUBLIC "-//W3C//DTD SVG 1.1//EN" "http://www.w3.org/Graphics/SVG/1.1/DTD/svg11.dtd" >
<svg xmlns="http://www.w3.org/2000/svg" xmlns:xlink="http://www.w3.org/1999/xlink" version="1.1">
<metadata>
Created by FontForge 20161013 at Fri Mar 28 12:53:33 2014
 By ,,,
(c) 2014 Microsoft Corporation. All Rights Reserved.
</metadata>
<defs>
<font id="SegoeUI-Semilight" horiz-adv-x="0" >
  <font-face 
    font-family="Segoe UI Semilight"
    font-weight="350"
    font-stretch="normal"
    units-per-em="2048"
    panose-1="2 11 4 2 4 2 4 2 2 3"
    ascent="1638"
    descent="-410"
    x-height="1024"
    cap-height="1434"
    bbox="-888 -804 4094 2375"
    underline-thickness="119"
    underline-position="-355"
    unicode-range="U+000D-FFFD"
  />
<missing-glyph horiz-adv-x="1322" 
d="M166 0v1398h990v-1398h-990zM314 148h694v1102h-694v-1102z" />
    <glyph glyph-name="uniFDF2" unicode="&#x627;&#xfedf;&#xfee0;&#x651;&#x670;&#xfeea;" horiz-adv-x="2514" arabic-form="isolated" 
d="M2233 1516h120v-1516h-120v1516zM1332 362q0 -125 45 -185t154 -60q46 0 84 12.5t65.5 39.5t42.5 69t15 101v1067h120v-1074q0 -93 -26 -158.5t-71 -107.5t-106 -61t-130 -19q-188 0 -256 133h-4q-48 -69 -120 -101t-154 -32q-56 0 -105.5 13.5t-89 41.5t-66.5 71
t-38 102q-44 -19 -98.5 -29t-109.5 -10q-68 0 -127.5 16t-103.5 48.5t-69.5 81.5t-25.5 115q0 79 37 145.5t105.5 118t166 87t217.5 53.5v104h122v-592q0 -121 44 -178t148 -57q42 0 80.5 11.5t68 37t47.5 67t18 101.5v922h120v-894zM276 451q0 -38 16 -66.5t44.5 -47.5
t69 -28.5t89.5 -9.5q54 0 104.5 10t84.5 24v388q-94 -14 -169.5 -39.5t-128.5 -60.5t-81.5 -78t-28.5 -92zM1564 1677q2 -13 2.5 -26.5t0.5 -22.5q0 -109 -46.5 -168t-124.5 -59q-38 0 -73.5 18t-52.5 55h-6q-19 -35 -53 -54t-76 -19q-77 0 -116 57t-39 157q0 18 1.5 34
t3.5 28h86q-5 -32 -5.5 -45t-0.5 -21q0 -64 21.5 -94t61.5 -30q84 0 84 131q0 14 -0.5 30.5t-0.5 28.5h86q-1 -13 -1.5 -30t-0.5 -28q0 -72 20 -102t64 -30q84 0 84 127q0 16 -1 33t-3 30h85zM1324 1760h-96v330h96v-330z" />
    <glyph glyph-name="uniFEDF_uniFEE0_uni0651_uni0670_uniFEEA.liga" unicode="&#xfedf;&#xfee0;&#x651;&#x670;&#xfeea;" horiz-adv-x="2054" 
d="M1332 362q0 -125 45 -185t154 -60q46 0 84 12.5t65.5 39.5t42.5 69t15 101v1067h120v-1074q0 -93 -26 -158.5t-71 -107.5t-106 -61t-130 -19q-188 0 -256 133h-4q-48 -69 -120 -101t-154 -32q-56 0 -105.5 13.5t-89 41.5t-66.5 71t-38 102q-44 -19 -98.5 -29t-109.5 -10
q-68 0 -127.5 16t-103.5 48.5t-69.5 81.5t-25.5 115q0 79 37 145.5t105.5 118t166 87t217.5 53.5v104h122v-592q0 -121 44 -178t148 -57q42 0 80.5 11.5t68 37t47.5 67t18 101.5v922h120v-894zM276 451q0 -38 16 -66.5t44.5 -47.5t69 -28.5t89.5 -9.5q54 0 104.5 10t84.5 24
v388q-94 -14 -169.5 -39.5t-128.5 -60.5t-81.5 -78t-28.5 -92zM1564 1677q2 -13 2.5 -26.5t0.5 -22.5q0 -109 -46.5 -168t-124.5 -59q-38 0 -73.5 18t-52.5 55h-6q-19 -35 -53 -54t-76 -19q-77 0 -116 57t-39 157q0 18 1.5 34t3.5 28h86q-5 -32 -5.5 -45t-0.5 -21
q0 -64 21.5 -94t61.5 -30q84 0 84 131q0 14 -0.5 30.5t-0.5 28.5h86q-1 -13 -1.5 -30t-0.5 -28q0 -72 20 -102t64 -30q84 0 84 127q0 16 -1 33t-3 30h85zM1324 1760h-96v330h96v-330z" />
    <glyph glyph-name="uni0620.init" unicode="&#x620;" horiz-adv-x="612" 
d="M441 738v-407q0 -103 -26 -169.5t-71 -105.5t-105.5 -54.5t-128.5 -15.5h-110q-35 0 -52.5 19t-17.5 47q0 27 17.5 46t52.5 19h115q52 0 90.5 10.5t64 35t38.5 66t13 103.5v406h120zM246 70q32 0 61 -12.5t50.5 -34t34.5 -51.5t13 -64q0 -32 -13 -61t-34.5 -51
t-50.5 -34.5t-61 -12.5q-35 0 -64.5 12.5t-51 34.5t-34 50.5t-12.5 61.5q0 34 12 64t34 51.5t51.5 34t64.5 12.5zM246 -176q35 0 59.5 24.5t24.5 59.5q0 37 -24.5 62t-59.5 25q-37 0 -62 -25t-25 -62q0 -35 25 -59.5t62 -24.5z" />
    <glyph glyph-name="uni0620.medi" unicode="&#x620;" horiz-adv-x="684" 
d="M441 338q0 -66 12.5 -109t41 -67.5t75 -34.5t114.5 -10v-131h-52q-101 0 -164.5 33t-90.5 92h-4q-38 -63 -103 -94t-143 -31h-127q-35 0 -52.5 19t-17.5 47q0 27 17.5 46t52.5 19h124q40 0 76 10t63 32t42.5 57.5t15.5 86.5v435h120v-400zM246 70q32 0 61 -12.5t50.5 -34
t34.5 -51.5t13 -64q0 -32 -13 -61t-34.5 -51t-50.5 -34.5t-61 -12.5q-35 0 -64.5 12.5t-51 34.5t-34 50.5t-12.5 61.5q0 34 12 64t34 51.5t51.5 34t64.5 12.5zM246 -176q35 0 59.5 24.5t24.5 59.5q0 37 -24.5 62t-59.5 25q-37 0 -62 -25t-25 -62q0 -35 25 -59.5t62 -24.5z
" />
    <glyph glyph-name="uni0620.fina" unicode="&#x620;" horiz-adv-x="1710" 
d="M323 493q-14 -64 -23 -119.5t-9 -117.5q0 -88 20.5 -158t70.5 -118.5t135 -74t214 -25.5q89 0 158 12t116 33t71.5 50t24.5 63t-20 58.5t-43.5 50.5t-43.5 59.5t-20 85.5q0 48 18 89t48.5 70t71 45.5t85.5 16.5q63 0 114.5 -36t97.5 -122q40 -71 67.5 -117t58 -73
t70.5 -37.5t105 -10.5v-131h-52q-57 0 -102 14t-83.5 47t-75 86t-76.5 131q-17 35 -32.5 58.5t-30.5 38t-31 20.5t-35 6q-42 0 -70.5 -24.5t-28.5 -64.5q0 -24 9.5 -42.5t23.5 -35.5t30.5 -33.5t30.5 -37t23.5 -45.5t9.5 -59q0 -72 -40.5 -128t-111 -93.5t-166 -57
t-206.5 -19.5q-146 0 -246 36t-162 100.5t-89.5 155t-27.5 199.5q0 63 9 124.5t26 130.5h117zM768 -177q32 0 61 -12.5t50.5 -34t34.5 -51.5t13 -64q0 -32 -13 -61t-34.5 -51t-50.5 -34.5t-61 -12.5q-35 0 -64.5 12.5t-51 34.5t-34 50.5t-12.5 61.5q0 34 12 64t34 51.5
t51.5 34t64.5 12.5zM768 -423q35 0 59.5 24.5t24.5 59.5q0 37 -24.5 62t-59.5 25q-37 0 -62 -25t-25 -62q0 -35 25 -59.5t62 -24.5z" />
    <glyph glyph-name="uni0621" unicode="&#x621;" horiz-adv-x="855" arabic-form="isolated" 
d="M663 525q-25 5 -59.5 10t-66.5 5q-56 0 -103 -14.5t-80.5 -41.5t-52 -65t-18.5 -86q0 -97 70.5 -150.5t193.5 -53.5h180v-129h-615l-29 119h193l1 6q-57 44 -86 106.5t-29 129.5q0 66 27 122.5t76.5 98.5t118.5 66t152 24q33 0 67.5 -4.5t59.5 -9.5v-133z" />
    <glyph glyph-name="uni0622" unicode="&#x622;" horiz-adv-x="462" arabic-form="isolated" 
d="M171 1516h120v-1516h-120v1516zM573 1724q-45 -49 -88.5 -67t-88.5 -18q-48 0 -91.5 13.5t-86.5 29.5t-85 29.5t-87 13.5q-64 0 -117 -44l-53 58q45 45 89 62.5t86 17.5q50 0 93.5 -13.5t85 -30t83 -30t87.5 -13.5q39 0 66.5 12t54.5 38z" />
    <glyph glyph-name="uni0623" unicode="&#x623;" horiz-adv-x="462" arabic-form="isolated" 
d="M171 1516h120v-1516h-120v1516zM346 1929q-13 3 -27.5 5t-30.5 2q-50 0 -83.5 -23t-33.5 -68q0 -93 136 -93h83v-87h-342v81h90l1 5q-23 23 -36.5 52t-13.5 62q0 34 14 63.5t39.5 51t61 33.5t78.5 12q31 0 64 -6v-90z" />
    <glyph glyph-name="uni0624" unicode="&#x624;" horiz-adv-x="936" arabic-form="isolated" 
d="M0 -295q79 -32 160 -45.5t162 -13.5q95 0 158 26.5t102 76t56.5 119t22.5 156.5q-42 -19 -90 -28.5t-98 -9.5q-64 0 -123.5 21t-105 60t-72.5 94.5t-27 124.5q0 63 23.5 128.5t64.5 119t96 87.5t118 34q76 0 134.5 -45t107.5 -129q49 -85 71 -193t22 -223
q0 -127 -27.5 -229.5t-84 -174.5t-143.5 -110.5t-205 -38.5q-87 0 -167.5 16t-154.5 49v128zM656 150q-2 61 -20.5 126.5t-48 120t-67.5 89.5t-79 35q-33 0 -64 -19t-55 -50t-38.5 -71.5t-14.5 -82.5t17 -75.5t46.5 -57t69.5 -36t86 -12.5q47 0 90 7.5t78 25.5zM564 1120
q-13 3 -27.5 5t-30.5 2q-50 0 -83.5 -23t-33.5 -68q0 -93 136 -93h83v-87h-342v81h90l1 5q-23 23 -36.5 52t-13.5 62q0 34 14 63.5t39.5 51t61 33.5t78.5 12q31 0 64 -6v-90z" />
    <glyph glyph-name="uni0625" unicode="&#x625;" horiz-adv-x="462" arabic-form="isolated" 
d="M171 1516h120v-1516h-120v1516zM343 -250q-13 3 -27.5 5t-30.5 2q-50 0 -84 -23t-34 -67q0 -47 35.5 -70.5t101.5 -23.5h86v-87h-345v81h90l1 5q-23 23 -36.5 52t-13.5 62q0 34 14 63.5t39.5 51t61 33.5t78.5 12q31 0 64 -6v-90z" />
    <glyph glyph-name="uni0626" unicode="&#x626;" horiz-adv-x="1501" arabic-form="isolated" 
d="M654 -133q-132 0 -223.5 32.5t-149.5 91.5t-84 141.5t-26 183.5q0 85 19.5 173t50.5 169h114q-29 -85 -46.5 -164.5t-17.5 -157.5q0 -79 19 -141t65 -105.5t121 -66.5t188 -23q110 0 204 22t162.5 58.5t107.5 83.5t39 97q0 42 -25.5 70t-63.5 51.5t-82 46t-82 53
t-63.5 73.5t-25.5 106q0 76 37.5 135.5t105.5 103.5t162.5 73t207.5 45v-126q-195 -21 -295.5 -80t-100.5 -141q0 -42 25.5 -70.5t63.5 -52t83 -46t83 -51.5t63.5 -68.5t25.5 -97.5q0 -73 -43.5 -147.5t-127.5 -134.5t-207.5 -98t-283.5 -38zM440 1199q-13 3 -27.5 5
t-30.5 2q-50 0 -83.5 -23t-33.5 -68q0 -93 136 -93h83v-87h-342v81h90l1 5q-23 23 -36.5 52t-13.5 62q0 34 14 63.5t39.5 51t61 33.5t78.5 12q31 0 64 -6v-90z" />
    <glyph glyph-name="uni0627" unicode="&#x627;" horiz-adv-x="462" arabic-form="isolated" 
d="M171 1516h120v-1516h-120v1516z" />
    <glyph glyph-name="uni0628" unicode="&#x628;" horiz-adv-x="1830" arabic-form="isolated" 
d="M318 573q-11 -40 -18.5 -88t-7.5 -101q0 -69 18.5 -118.5t64.5 -81.5q29 -20 74.5 -34t118 -23t177 -13t251.5 -4q149 0 252.5 9t168 33.5t93.5 69.5t29 117v399h120v-399q0 -114 -44 -185t-131 -110t-217 -52.5t-302 -13.5q-142 0 -250.5 4t-190.5 15.5t-139.5 32
t-97.5 52.5q-61 48 -88.5 118.5t-27.5 161.5q0 54 8.5 108.5t20.5 102.5h118zM995 -327h-147v143h147v-143z" />
    <glyph glyph-name="uni0629" unicode="&#x629;" horiz-adv-x="1026" arabic-form="isolated" 
d="M401 971q122 -81 208.5 -161.5t141 -161.5t79.5 -163t25 -166q0 -78 -25.5 -140.5t-71.5 -107t-110.5 -68.5t-142.5 -24q-76 0 -137.5 22.5t-105 64t-67.5 100t-24 129.5q0 75 20.5 145.5t57.5 134.5t86.5 118.5t108.5 96.5q-10 9 -24 20t-29 22t-31 22.5t-29 20.5z
M290 318q0 -52 17 -91t46.5 -64.5t70 -38.5t88.5 -13q106 0 165 54t59 151q0 109 -50.5 209t-158.5 194q-54 -37 -98 -83t-75 -98t-47.5 -108t-16.5 -112zM453 1174h-147v143h147v-143zM713 1174h-147v143h147v-143z" />
    <glyph glyph-name="uni062A" unicode="&#x62a;" horiz-adv-x="1830" arabic-form="isolated" 
d="M318 573q-11 -40 -18.5 -88t-7.5 -101q0 -69 18.5 -118.5t64.5 -81.5q29 -20 74.5 -34t118 -23t177 -13t251.5 -4q149 0 252.5 9t168 33.5t93.5 69.5t29 117v399h120v-399q0 -114 -44 -185t-131 -110t-217 -52.5t-302 -13.5q-142 0 -250.5 4t-190.5 15.5t-139.5 32
t-97.5 52.5q-61 48 -88.5 118.5t-27.5 161.5q0 54 8.5 108.5t20.5 102.5h118zM876 934h-147v143h147v-143zM1136 934h-147v143h147v-143z" />
    <glyph glyph-name="uni062B" unicode="&#x62b;" horiz-adv-x="1830" arabic-form="isolated" 
d="M318 573q-11 -40 -18.5 -88t-7.5 -101q0 -69 18.5 -118.5t64.5 -81.5q29 -20 74.5 -34t118 -23t177 -13t251.5 -4q149 0 252.5 9t168 33.5t93.5 69.5t29 117v399h120v-399q0 -114 -44 -185t-131 -110t-217 -52.5t-302 -13.5q-142 0 -250.5 4t-190.5 15.5t-139.5 32
t-97.5 52.5q-61 48 -88.5 118.5t-27.5 161.5q0 54 8.5 108.5t20.5 102.5h118zM854 934h-147v143h147v-143zM1114 934h-147v143h147v-143zM984 1165h-147v143h147v-143z" />
    <glyph glyph-name="uni062C" unicode="&#x62c;" horiz-adv-x="1197" arabic-form="isolated" 
d="M1029 514q-204 -45 -349 -105.5t-237 -132.5t-134.5 -153t-42.5 -168q0 -71 25 -132t77.5 -105.5t133.5 -70t193 -25.5q204 0 388 71v-122q-185 -74 -391 -74q-143 0 -247 34t-172 93t-100.5 139.5t-32.5 173.5t40.5 187t126 178.5t218 155t315.5 118.5v8
q-54 14 -100.5 31t-93 32t-98 25t-116.5 10q-74 0 -141.5 -11.5t-119.5 -27.5v123q59 20 125.5 32.5t138.5 12.5q62 0 115 -11.5t101 -28.5t93.5 -37t94 -37.5t101.5 -30t117 -14.5zM787 -41h-147v143h147v-143z" />
    <glyph glyph-name="uni062D" unicode="&#x62d;" horiz-adv-x="1197" arabic-form="isolated" 
d="M1029 514q-204 -45 -349 -105.5t-237 -132.5t-134.5 -153t-42.5 -168q0 -71 25 -132t77.5 -105.5t133.5 -70t193 -25.5q204 0 388 71v-122q-185 -74 -391 -74q-143 0 -247 34t-172 93t-100.5 139.5t-32.5 173.5t40.5 187t126 178.5t218 155t315.5 118.5v8
q-54 14 -100.5 31t-93 32t-98 25t-116.5 10q-74 0 -141.5 -11.5t-119.5 -27.5v123q59 20 125.5 32.5t138.5 12.5q62 0 115 -11.5t101 -28.5t93.5 -37t94 -37.5t101.5 -30t117 -14.5z" />
    <glyph glyph-name="uni062E" unicode="&#x62e;" horiz-adv-x="1197" arabic-form="isolated" 
d="M1029 514q-204 -45 -349 -105.5t-237 -132.5t-134.5 -153t-42.5 -168q0 -71 25 -132t77.5 -105.5t133.5 -70t193 -25.5q204 0 388 71v-122q-185 -74 -391 -74q-143 0 -247 34t-172 93t-100.5 139.5t-32.5 173.5t40.5 187t126 178.5t218 155t315.5 118.5v8
q-54 14 -100.5 31t-93 32t-98 25t-116.5 10q-74 0 -141.5 -11.5t-119.5 -27.5v123q59 20 125.5 32.5t138.5 12.5q62 0 115 -11.5t101 -28.5t93.5 -37t94 -37.5t101.5 -30t117 -14.5zM660 1031h-147v143h147v-143z" />
    <glyph glyph-name="uni062F" unicode="&#x62f;" horiz-adv-x="975" arabic-form="isolated" 
d="M79 132q42 -5 85 -9t84 -7t79 -4.5t68 -1.5q80 0 135.5 11t90 34t49.5 59.5t15 86.5q0 65 -23.5 136.5t-66.5 149t-102.5 161t-132.5 172.5h144q158 -185 230 -340.5t72 -286.5q0 -88 -30 -148t-84 -97t-128.5 -53.5t-164.5 -16.5q-59 0 -135.5 6t-149.5 16z" />
    <glyph glyph-name="uni0630" unicode="&#x630;" horiz-adv-x="975" arabic-form="isolated" 
d="M79 132q42 -5 85 -9t84 -7t79 -4.5t68 -1.5q80 0 135.5 11t90 34t49.5 59.5t15 86.5q0 65 -23.5 136.5t-66.5 149t-102.5 161t-132.5 172.5h144q158 -185 230 -340.5t72 -286.5q0 -88 -30 -148t-84 -97t-128.5 -53.5t-164.5 -16.5q-59 0 -135.5 6t-149.5 16zM489 1174
h-147v143h147v-143z" />
    <glyph glyph-name="uni0631" unicode="&#x631;" horiz-adv-x="812" arabic-form="isolated" 
d="M0 -315q57 -19 110 -29t103 -10q160 0 233.5 104t73.5 309q0 140 -33.5 279t-85.5 273h131q26 -65 46.5 -136t35 -143t22 -142t7.5 -133q0 -138 -31 -240.5t-87 -170t-133 -101t-169 -33.5q-57 0 -113.5 12t-109.5 33v128z" />
    <glyph glyph-name="uni0632" unicode="&#x632;" horiz-adv-x="812" arabic-form="isolated" 
d="M0 -315q57 -19 110 -29t103 -10q160 0 233.5 104t73.5 309q0 140 -33.5 279t-85.5 273h131q26 -65 46.5 -136t35 -143t22 -142t7.5 -133q0 -138 -31 -240.5t-87 -170t-133 -101t-169 -33.5q-57 0 -113.5 12t-109.5 33v128zM489 855h-147v143h147v-143z" />
    <glyph glyph-name="uni0633" unicode="&#x633;" horiz-adv-x="2352" arabic-form="isolated" 
d="M289 245q-13 -71 -18.5 -131t-5.5 -114q0 -95 19.5 -162.5t62 -110t109.5 -62.5t163 -20q97 0 169 23.5t119.5 76t71 135.5t23.5 202q0 83 -10.5 178.5t-30.5 208.5h119q5 -29 9 -53.5t7.5 -48t6.5 -47t6 -50.5q10 -79 64.5 -116t153.5 -37q42 0 78.5 11t63.5 36t42 66
t15 100v242h120v-207q0 -65 10.5 -112t35.5 -77t66 -44.5t102 -14.5q46 0 82 10.5t60.5 35.5t37 64.5t12.5 98.5v412h120v-419q0 -95 -24.5 -158.5t-67.5 -102.5t-100 -55.5t-123 -16.5q-201 0 -271 137h-4q-43 -70 -111 -103.5t-149 -33.5q-72 0 -121 20.5t-78 53.5l-5 -1
q-3 -272 -128.5 -409.5t-380.5 -137.5q-122 0 -210 31t-144.5 90.5t-83.5 146.5t-27 200q0 60 8 125.5t23 139.5h114z" />
    <glyph glyph-name="uni0634" unicode="&#x634;" horiz-adv-x="2352" arabic-form="isolated" 
d="M289 245q-13 -71 -18.5 -131t-5.5 -114q0 -95 19.5 -162.5t62 -110t109.5 -62.5t163 -20q97 0 169 23.5t119.5 76t71 135.5t23.5 202q0 83 -10.5 178.5t-30.5 208.5h119q5 -29 9 -53.5t7.5 -48t6.5 -47t6 -50.5q10 -79 64.5 -116t153.5 -37q42 0 78.5 11t63.5 36t42 66
t15 100v242h120v-207q0 -65 10.5 -112t35.5 -77t66 -44.5t102 -14.5q46 0 82 10.5t60.5 35.5t37 64.5t12.5 98.5v412h120v-419q0 -95 -24.5 -158.5t-67.5 -102.5t-100 -55.5t-123 -16.5q-201 0 -271 137h-4q-43 -70 -111 -103.5t-149 -33.5q-72 0 -121 20.5t-78 53.5l-5 -1
q-3 -272 -128.5 -409.5t-380.5 -137.5q-122 0 -210 31t-144.5 90.5t-83.5 146.5t-27 200q0 60 8 125.5t23 139.5h114zM1534 855h-147v143h147v-143zM1794 855h-147v143h147v-143zM1664 1086h-147v143h147v-143z" />
    <glyph glyph-name="uni0635" unicode="&#x635;" horiz-adv-x="2639" arabic-form="isolated" 
d="M299 245q-13 -71 -18.5 -131t-5.5 -114q0 -95 19.5 -162.5t62 -110t109.5 -62.5t163 -20q97 0 169 23.5t119.5 76t71 135.5t23.5 202q0 83 -10.5 181t-33.5 206h118q6 -30 10.5 -54.5t8 -48t7 -47.5t7.5 -51q9 -64 45 -104.5t113 -45.5q35 83 81.5 163t102.5 151
t121 131.5t138 104t153.5 68t167.5 24.5q103 0 182.5 -32t134 -89t83 -136t28.5 -174q0 -111 -35 -179t-103.5 -105.5t-168.5 -50t-230 -12.5h-216.5t-164 0.5t-121.5 2t-87.5 3.5t-62 5t-45.5 7q-36 8 -60.5 24t-41.5 36q-2 0 -3 -0.5t-2 -0.5q-3 -272 -129 -409.5
t-383 -137.5q-122 0 -209 31t-143.5 90.5t-83 146.5t-26.5 200q0 60 8 125.5t23 139.5h114zM1399 116q23 0 69.5 -0.5t103.5 -0.5t119 -0.5t118 -0.5h100h64q99 0 169.5 8t116.5 30t67.5 62t21.5 103q0 81 -24 139.5t-66.5 96.5t-102 56.5t-129.5 18.5q-105 0 -199 -39.5
t-174.5 -108.5t-144.5 -162.5t-109 -201.5z" />
    <glyph glyph-name="uni0636" unicode="&#x636;" horiz-adv-x="2639" arabic-form="isolated" 
d="M299 245q-13 -71 -18.5 -131t-5.5 -114q0 -95 19.5 -162.5t62 -110t109.5 -62.5t163 -20q97 0 169 23.5t119.5 76t71 135.5t23.5 202q0 83 -10.5 181t-33.5 206h118q6 -30 10.5 -54.5t8 -48t7 -47.5t7.5 -51q9 -64 45 -104.5t113 -45.5q35 83 81.5 163t102.5 151
t121 131.5t138 104t153.5 68t167.5 24.5q103 0 182.5 -32t134 -89t83 -136t28.5 -174q0 -111 -35 -179t-103.5 -105.5t-168.5 -50t-230 -12.5h-216.5t-164 0.5t-121.5 2t-87.5 3.5t-62 5t-45.5 7q-36 8 -60.5 24t-41.5 36q-2 0 -3 -0.5t-2 -0.5q-3 -272 -129 -409.5
t-383 -137.5q-122 0 -209 31t-143.5 90.5t-83 146.5t-26.5 200q0 60 8 125.5t23 139.5h114zM1399 116q23 0 69.5 -0.5t103.5 -0.5t119 -0.5t118 -0.5h100h64q99 0 169.5 8t116.5 30t67.5 62t21.5 103q0 81 -24 139.5t-66.5 96.5t-102 56.5t-129.5 18.5q-105 0 -199 -39.5
t-174.5 -108.5t-144.5 -162.5t-109 -201.5zM1784 934h-147v143h147v-143z" />
    <glyph glyph-name="uni0637" unicode="&#x637;" horiz-adv-x="1663" arabic-form="isolated" 
d="M463 1516v-1098l3 -1q49 73 112 137.5t137.5 113.5t160 77.5t181.5 28.5q103 0 183 -33t135.5 -92t84.5 -140.5t29 -179.5q0 -110 -35.5 -178t-104.5 -105.5t-170 -50.5t-231 -13q-148 0 -259.5 0.5t-196 1.5t-147 2.5t-112.5 3.5t-91.5 5t-83.5 6l-32 135q22 -3 53 -5
t66 -4t73.5 -3.5t77.5 -2.5q10 22 22 47l24 50v1298h121zM989 114q99 0 170.5 8t118 30t68.5 62t22 103q0 84 -24.5 145.5t-68 101.5t-103.5 59t-130 19q-105 0 -198.5 -41t-173.5 -112t-143.5 -167t-108.5 -206q49 -1 115 -1.5t141 -0.5h156h159z" />
    <glyph glyph-name="uni0638" unicode="&#x638;" horiz-adv-x="1663" arabic-form="isolated" 
d="M463 1516v-1098l3 -1q49 73 112 137.5t137.5 113.5t160 77.5t181.5 28.5q103 0 183 -33t135.5 -92t84.5 -140.5t29 -179.5q0 -110 -35.5 -178t-104.5 -105.5t-170 -50.5t-231 -13q-148 0 -259.5 0.5t-196 1.5t-147 2.5t-112.5 3.5t-91.5 5t-83.5 6l-32 135q22 -3 53 -5
t66 -4t73.5 -3.5t77.5 -2.5q10 22 22 47l24 50v1298h121zM989 114q99 0 170.5 8t118 30t68.5 62t22 103q0 84 -24.5 145.5t-68 101.5t-103.5 59t-130 19q-105 0 -198.5 -41t-173.5 -112t-143.5 -167t-108.5 -206q49 -1 115 -1.5t141 -0.5h156h159zM1046 934h-147v143h147
v-143z" />
    <glyph glyph-name="uni0639" unicode="&#x639;" horiz-adv-x="1026" arabic-form="isolated" 
d="M815 436q-171 -43 -286.5 -97t-185 -115.5t-99 -129t-29.5 -139.5q0 -75 26.5 -136t79.5 -105t134 -68t189 -24q109 0 207.5 19t183.5 52v-122q-93 -36 -189.5 -55t-202.5 -19q-141 0 -245 33.5t-173 92.5t-102.5 139.5t-33.5 173.5q0 52 12 105t39 105.5t69.5 103
t103.5 95.5q-69 61 -105.5 140t-36.5 163q0 76 29 144.5t83 121t131.5 83.5t173.5 31q81 0 161 -18v-134q-39 9 -82.5 14.5t-88.5 5.5q-60 0 -111.5 -16t-90 -47.5t-60 -78.5t-21.5 -110q0 -77 30 -138t84 -97q75 42 176.5 83.5t229.5 73.5v-130z" />
    <glyph glyph-name="uni063A" unicode="&#x63a;" horiz-adv-x="1026" arabic-form="isolated" 
d="M815 436q-171 -43 -286.5 -97t-185 -115.5t-99 -129t-29.5 -139.5q0 -75 26.5 -136t79.5 -105t134 -68t189 -24q109 0 207.5 19t183.5 52v-122q-93 -36 -189.5 -55t-202.5 -19q-141 0 -245 33.5t-173 92.5t-102.5 139.5t-33.5 173.5q0 52 12 105t39 105.5t69.5 103
t103.5 95.5q-69 61 -105.5 140t-36.5 163q0 76 29 144.5t83 121t131.5 83.5t173.5 31q81 0 161 -18v-134q-39 9 -82.5 14.5t-88.5 5.5q-60 0 -111.5 -16t-90 -47.5t-60 -78.5t-21.5 -110q0 -77 30 -138t84 -97q75 42 176.5 83.5t229.5 73.5v-130zM535 1174h-147v143h147
v-143z" />
    <glyph glyph-name="uni063B.init" unicode="&#x63b;" horiz-adv-x="975" 
d="M0 -14q-30 0 -45 19t-15 46q0 28 15 47t45 19h289q109 0 180 13.5t112.5 39t58 63t16.5 84.5q0 68 -37.5 133t-117.5 132t-204 139t-297 154v117l855 547v-141l-728 -457q180 -84 304 -161t201 -152t111 -150t34 -156q0 -63 -21 -123t-74.5 -107.5t-145 -76.5t-233.5 -29
h-303zM215 1498h-147v143h147v-143zM475 1498h-147v143h147v-143z" />
    <glyph glyph-name="uni063B.medi" unicode="&#x63b;" horiz-adv-x="1026" 
d="M-44.5 5q-15.5 19 -15.5 47q0 24 14.5 44.5t45.5 20.5h289q102 0 172.5 12.5t113.5 38t62 62.5t19 87q0 68 -37.5 133t-117.5 132t-204 139t-297 154v117l855 547v-141l-728 -457q131 -62 227.5 -116t166 -104t115 -96t74.5 -92t44.5 -93t24.5 -98q8 -45 22 -85.5
t41 -71.5t71.5 -49.5t112.5 -18.5v-131h-35q-89 0 -157.5 39.5t-104.5 123.5h-4q-23 -37 -59.5 -67t-88.5 -51.5t-120 -33t-154 -11.5h-303q-29 0 -44.5 19zM215 1498h-147v143h147v-143zM475 1498h-147v143h147v-143z" />
    <glyph glyph-name="uni063B.fina" unicode="&#x63b;" horiz-adv-x="1881" 
d="M1366 142q73 23 107 66t34 109q0 68 -37 133t-116 132.5t-202.5 140t-296.5 153.5v117l855 546v-141l-728 -455q131 -62 227.5 -116.5t165.5 -104t114 -96.5t73 -93t43.5 -93t24.5 -98q8 -45 22 -85.5t42 -71.5t73 -49.5t114 -18.5v-131h-38q-89 0 -158 39.5t-105 123.5
h-4q-30 -44 -70.5 -74.5t-100.5 -50.5q-41 -14 -87.5 -22.5t-105 -14t-132 -7.5t-167.5 -2q-130 0 -229 4.5t-174 16.5t-128.5 32t-91.5 51q-61 48 -90 118.5t-29 161.5q0 54 8.5 108.5t20.5 102.5h118q-11 -40 -18.5 -88t-7.5 -101q0 -69 20.5 -118.5t65.5 -81.5
q27 -19 69 -33t108.5 -23t161.5 -13.5t229 -4.5q78 0 142 1.5t115 5t91 9.5t72 16zM1066 1498h-147v143h147v-143zM1326 1498h-147v143h147v-143z" />
    <glyph glyph-name="uni063C.init" unicode="&#x63c;" horiz-adv-x="975" 
d="M0 -14q-30 0 -45 19t-15 46q0 28 15 47t45 19h289q109 0 180 13.5t112.5 39t58 63t16.5 84.5q0 68 -37.5 133t-117.5 132t-204 139t-297 154v117l855 547v-141l-728 -457q180 -84 304 -161t201 -152t111 -150t34 -156q0 -63 -21 -123t-74.5 -107.5t-145 -76.5t-233.5 -29
h-303zM384 -327h-148v143h148v-143zM643 -327h-147v143h147v-143zM514 -550h-147v143h147v-143z" />
    <glyph glyph-name="uni063C.medi" unicode="&#x63c;" horiz-adv-x="1026" 
d="M-44.5 5q-15.5 19 -15.5 47q0 24 14.5 44.5t45.5 20.5h289q102 0 172.5 12.5t113.5 38t62 62.5t19 87q0 68 -37.5 133t-117.5 132t-204 139t-297 154v117l855 547v-141l-728 -457q131 -62 227.5 -116t166 -104t115 -96t74.5 -92t44.5 -93t24.5 -98q8 -45 22 -85.5
t41 -71.5t71.5 -49.5t112.5 -18.5v-131h-35q-89 0 -157.5 39.5t-104.5 123.5h-4q-23 -37 -59.5 -67t-88.5 -51.5t-120 -33t-154 -11.5h-303q-29 0 -44.5 19zM384 -327h-148v143h148v-143zM643 -327h-147v143h147v-143zM514 -550h-147v143h147v-143z" />
    <glyph glyph-name="uni063C.fina" unicode="&#x63c;" horiz-adv-x="1881" 
d="M1366 142q73 23 107 66t34 109q0 68 -37 133t-116 132.5t-202.5 140t-296.5 153.5v117l855 546v-141l-728 -455q131 -62 227.5 -116.5t165.5 -104t114 -96.5t73 -93t43.5 -93t24.5 -98q8 -45 22 -85.5t42 -71.5t73 -49.5t114 -18.5v-131h-38q-89 0 -158 39.5t-105 123.5
h-4q-30 -44 -70.5 -74.5t-100.5 -50.5q-41 -14 -87.5 -22.5t-105 -14t-132 -7.5t-167.5 -2q-130 0 -229 4.5t-174 16.5t-128.5 32t-91.5 51q-61 48 -90 118.5t-29 161.5q0 54 8.5 108.5t20.5 102.5h118q-11 -40 -18.5 -88t-7.5 -101q0 -69 20.5 -118.5t65.5 -81.5
q27 -19 69 -33t108.5 -23t161.5 -13.5t229 -4.5q78 0 142 1.5t115 5t91 9.5t72 16zM873 -327h-148v143h148v-143zM1132 -327h-147v143h147v-143zM1003 -550h-147v143h147v-143z" />
    <glyph glyph-name="uni063D.init" unicode="&#x63d;" horiz-adv-x="684" 
d="M441 738v-407q0 -103 -26 -169.5t-71 -105.5t-105.5 -54.5t-128.5 -15.5h-110q-35 0 -52.5 19t-17.5 47q0 27 17.5 46t52.5 19h115q52 0 90.5 10.5t64 35t38.5 66t13 103.5v406h120zM428 1285l233 -352h-105l-177 264l-177 -264h-103l231 352h98zM262 -327h-147v143h147
v-143zM522 -327h-147v143h147v-143z" />
    <glyph glyph-name="uni063D.medi" unicode="&#x63d;" horiz-adv-x="684" 
d="M441 338q0 -66 12.5 -109t41 -67.5t75 -34.5t114.5 -10v-131h-52q-101 0 -164.5 33t-90.5 92h-4q-38 -63 -103 -94t-143 -31h-127q-35 0 -52.5 19t-17.5 47q0 27 17.5 46t52.5 19h124q40 0 76 10t63 32t42.5 57.5t15.5 86.5v435h120v-400zM428 1285l233 -352h-105
l-177 264l-177 -264h-103l231 352h98zM318 -327h-147v143h147v-143zM578 -327h-147v143h147v-143z" />
    <glyph glyph-name="uni063D.fina" unicode="&#x63d;" horiz-adv-x="1710" 
d="M323 493q-14 -64 -23 -119.5t-9 -117.5q0 -88 20.5 -158t70.5 -118.5t135 -74t214 -25.5q89 0 158 12t116 33t71.5 50t24.5 63t-20 58.5t-43.5 50.5t-43.5 59.5t-20 85.5q0 48 18 89t48.5 70t71 45.5t85.5 16.5q63 0 114.5 -36t97.5 -122q40 -71 67.5 -117t58 -73
t70.5 -37.5t105 -10.5v-131h-52q-57 0 -102 14t-83.5 47t-75 86t-76.5 131q-17 35 -32.5 58.5t-30.5 38t-31 20.5t-35 6q-42 0 -70.5 -24.5t-28.5 -64.5q0 -24 9.5 -42.5t23.5 -35.5t30.5 -33.5t30.5 -37t23.5 -45.5t9.5 -59q0 -72 -40.5 -128t-111 -93.5t-166 -57
t-206.5 -19.5q-146 0 -246 36t-162 100.5t-89.5 155t-27.5 199.5q0 63 9 124.5t26 130.5h117zM799 1057l233 -352h-105l-177 264l-177 -264h-103l231 352h98z" />
    <glyph glyph-name="uni063E.init" unicode="&#x63e;" horiz-adv-x="612" 
d="M441 738v-407q0 -103 -26 -169.5t-71 -105.5t-105.5 -54.5t-128.5 -15.5h-110q-35 0 -52.5 19t-17.5 47q0 27 17.5 46t52.5 19h115q52 0 90.5 10.5t64 35t38.5 66t13 103.5v406h120zM262 -327h-147v143h147v-143zM522 -327h-147v143h147v-143zM322 934h-147v143h147v-143
zM582 934h-147v143h147v-143z" />
    <glyph glyph-name="uni063E.medi" unicode="&#x63e;" horiz-adv-x="684" 
d="M441 338q0 -66 12.5 -109t41 -67.5t75 -34.5t114.5 -10v-131h-52q-101 0 -164.5 33t-90.5 92h-4q-38 -63 -103 -94t-143 -31h-127q-35 0 -52.5 19t-17.5 47q0 27 17.5 46t52.5 19h124q40 0 76 10t63 32t42.5 57.5t15.5 86.5v435h120v-400zM322 934h-147v143h147v-143z
M582 934h-147v143h147v-143zM318 -327h-147v143h147v-143zM578 -327h-147v143h147v-143z" />
    <glyph glyph-name="uni063E.fina" unicode="&#x63e;" horiz-adv-x="1710" 
d="M323 493q-14 -64 -23 -119.5t-9 -117.5q0 -88 20.5 -158t70.5 -118.5t135 -74t214 -25.5q89 0 158 12t116 33t71.5 50t24.5 63t-20 58.5t-43.5 50.5t-43.5 59.5t-20 85.5q0 48 18 89t48.5 70t71 45.5t85.5 16.5q63 0 114.5 -36t97.5 -122q40 -71 67.5 -117t58 -73
t70.5 -37.5t105 -10.5v-131h-52q-57 0 -102 14t-83.5 47t-75 86t-76.5 131q-17 35 -32.5 58.5t-30.5 38t-31 20.5t-35 6q-42 0 -70.5 -24.5t-28.5 -64.5q0 -24 9.5 -42.5t23.5 -35.5t30.5 -33.5t30.5 -37t23.5 -45.5t9.5 -59q0 -72 -40.5 -128t-111 -93.5t-166 -57
t-206.5 -19.5q-146 0 -246 36t-162 100.5t-89.5 155t-27.5 199.5q0 63 9 124.5t26 130.5h117zM656 732h-147v143h147v-143zM916 732h-147v143h147v-143z" />
    <glyph glyph-name="uni063F.init" unicode="&#x63f;" horiz-adv-x="612" 
d="M441 738v-407q0 -103 -26 -169.5t-71 -105.5t-105.5 -54.5t-128.5 -15.5h-110q-35 0 -52.5 19t-17.5 47q0 27 17.5 46t52.5 19h115q52 0 90.5 10.5t64 35t38.5 66t13 103.5v406h120zM322 934h-147v143h147v-143zM582 934h-147v143h147v-143zM452 1165h-147v143h147v-143z
M262 -327h-147v143h147v-143zM522 -327h-147v143h147v-143z" />
    <glyph glyph-name="uni063F.medi" unicode="&#x63f;" horiz-adv-x="684" 
d="M441 338q0 -66 12.5 -109t41 -67.5t75 -34.5t114.5 -10v-131h-52q-101 0 -164.5 33t-90.5 92h-4q-38 -63 -103 -94t-143 -31h-127q-35 0 -52.5 19t-17.5 47q0 27 17.5 46t52.5 19h124q40 0 76 10t63 32t42.5 57.5t15.5 86.5v435h120v-400zM322 934h-147v143h147v-143z
M582 934h-147v143h147v-143zM452 1165h-147v143h147v-143zM318 -327h-147v143h147v-143zM578 -327h-147v143h147v-143z" />
    <glyph glyph-name="uni063F.fina" unicode="&#x63f;" horiz-adv-x="1710" 
d="M323 493q-14 -64 -23 -119.5t-9 -117.5q0 -88 20.5 -158t70.5 -118.5t135 -74t214 -25.5q89 0 158 12t116 33t71.5 50t24.5 63t-20 58.5t-43.5 50.5t-43.5 59.5t-20 85.5q0 48 18 89t48.5 70t71 45.5t85.5 16.5q63 0 114.5 -36t97.5 -122q40 -71 67.5 -117t58 -73
t70.5 -37.5t105 -10.5v-131h-52q-57 0 -102 14t-83.5 47t-75 86t-76.5 131q-17 35 -32.5 58.5t-30.5 38t-31 20.5t-35 6q-42 0 -70.5 -24.5t-28.5 -64.5q0 -24 9.5 -42.5t23.5 -35.5t30.5 -33.5t30.5 -37t23.5 -45.5t9.5 -59q0 -72 -40.5 -128t-111 -93.5t-166 -57
t-206.5 -19.5q-146 0 -246 36t-162 100.5t-89.5 155t-27.5 199.5q0 63 9 124.5t26 130.5h117zM656 732h-147v143h147v-143zM916 732h-147v143h147v-143zM786 963h-147v143h147v-143z" />
    <glyph glyph-name="uni0641" unicode="&#x641;" horiz-adv-x="1988" arabic-form="isolated" 
d="M318 573q-11 -40 -18.5 -88t-7.5 -101q0 -69 20.5 -119t65.5 -81q31 -21 78 -35.5t124 -23t192 -12t283 -3.5q84 0 145.5 0.5t107 1t78 2t58.5 3.5q1 2 1 3t1 3q-123 55 -176.5 127.5t-53.5 162.5q0 65 23.5 133t64 123.5t93.5 90.5t112 35q125 0 230 -155
q42 -62 67 -138.5t25 -157.5q0 -105 -42 -175.5t-120.5 -112.5t-191 -60t-253.5 -18h-276q-140 0 -245.5 4.5t-184 16t-134 31.5t-94.5 52q-61 48 -90 118.5t-29 161.5q0 54 8.5 108.5t20.5 102.5h118zM1710 340q0 48 -18 104t-48 104t-67.5 80.5t-76.5 32.5
q-30 0 -59.5 -21.5t-53 -56t-38.5 -76.5t-15 -84q0 -39 13 -72t44.5 -64t83.5 -63t130 -69q48 24 76.5 71.5t28.5 113.5zM1571 1031h-147v143h147v-143z" />
    <glyph glyph-name="uni0642" unicode="&#x642;" horiz-adv-x="1462" arabic-form="isolated" 
d="M1201 24q-41 -19 -88.5 -28.5t-97.5 -9.5q-65 0 -124.5 21t-105.5 60t-73.5 94.5t-27.5 124.5q0 63 24 128.5t65.5 119t96.5 87.5t118 34q75 0 133.5 -45t107.5 -129t71 -193.5t22 -222.5q0 -142 -35 -246t-109.5 -172.5t-189.5 -101.5t-274 -33q-143 0 -245.5 30
t-168.5 89t-97.5 146t-31.5 201q0 63 7.5 133t21.5 148h115q-11 -75 -17 -137.5t-6 -116.5q0 -96 23.5 -164t75 -112t134.5 -64.5t202 -20.5q142 0 232 26t142 75.5t73.5 119.5t26.5 159zM1197 150q-2 61 -20.5 126.5t-48 120t-67.5 89.5t-79 35q-33 0 -64.5 -19t-55.5 -50
t-39 -71.5t-15 -82.5t17.5 -75.5t47.5 -57t70 -36t86 -12.5q47 0 89.5 7.5t78.5 25.5zM912 934h-147v143h147v-143zM1172 934h-147v143h147v-143z" />
    <glyph glyph-name="uni0643" unicode="&#x643;" horiz-adv-x="1663" arabic-form="isolated" 
d="M318 573q-11 -40 -18.5 -88t-7.5 -101q0 -69 20 -118.5t66 -81.5q27 -19 64.5 -32.5t97.5 -21.5t148 -12t215 -4q126 0 214.5 9t144 35t81 73t25.5 123v1159h120v-1172q0 -117 -41.5 -188t-119.5 -109t-191 -50t-256 -12q-126 0 -219.5 4t-163 15t-119.5 30.5t-88 50.5
q-62 49 -90.5 119t-28.5 161q0 54 8 108.5t21 102.5h118zM684 685q109 3 161.5 29t52.5 58q0 17 -16 30t-56 34q-42 23 -67.5 48t-25.5 67q0 33 20.5 62t58.5 52.5t92 41t121 26.5v-85q-105 -14 -151.5 -38t-46.5 -51q0 -19 15.5 -32t53.5 -34q44 -24 70 -49t26 -65
q0 -33 -19 -63.5t-57.5 -55t-96 -40.5t-135.5 -20v85z" />
    <glyph glyph-name="uni0644" unicode="&#x644;" horiz-adv-x="1317" arabic-form="isolated" 
d="M287 387q-14 -69 -19 -128t-5 -112q0 -95 20 -162.5t63.5 -110.5t112 -63.5t165.5 -20.5q106 0 182 24.5t125 77t72 136t23 202.5v1286h120v-1292q0 -139 -29.5 -244.5t-94 -177t-166 -108t-245.5 -36.5q-122 0 -210.5 31t-145.5 91t-84.5 147t-27.5 200q0 60 7.5 124
t22.5 136h114z" />
    <glyph glyph-name="uni0645" unicode="&#x645;" horiz-adv-x="1137" arabic-form="isolated" 
d="M350 169q27 146 71 240.5t94.5 149t103.5 76t100 21.5q70 0 126.5 -34.5t96.5 -88t62 -119.5t22 -129q0 -59 -18 -113.5t-53 -96t-88.5 -66t-123.5 -24.5q-52 0 -102 9.5t-96.5 21t-89.5 21t-82 9.5q-40 0 -69 -14t-48 -39t-28.5 -60t-9.5 -77q0 -38 5.5 -84.5t15.5 -96
t23.5 -98t29.5 -90.5h-133q-31 103 -46 197t-15 163q0 138 63.5 221t188.5 101zM723 117q84 0 131.5 38t47.5 123q0 48 -16 92.5t-43 79t-62.5 55t-74.5 20.5q-86 0 -150.5 -89.5t-95.5 -278.5q34 -5 66.5 -12t64.5 -13t65 -10.5t67 -4.5z" />
    <glyph glyph-name="uni0646" unicode="&#x646;" horiz-adv-x="1300" arabic-form="isolated" 
d="M1105 450q20 -91 31 -177t11 -177q0 -141 -30 -247.5t-93 -178.5t-160 -108.5t-231 -36.5q-122 0 -209 31t-143.5 90.5t-83 146.5t-26.5 200q0 60 8 125.5t23 139.5h114q-13 -71 -18.5 -131t-5.5 -114q0 -95 19.5 -162.5t62 -110t109.5 -62.5t163 -20q97 0 168.5 23.5
t118.5 76t70 135.5t23 202q0 76 -10.5 164t-29.5 191h119zM728 633h-147v143h147v-143z" />
    <glyph glyph-name="uni0647" unicode="&#x647;" horiz-adv-x="1026" arabic-form="isolated" 
d="M401 971q122 -81 208.5 -161.5t141 -161.5t79.5 -163t25 -166q0 -78 -25.5 -140.5t-71.5 -107t-110.5 -68.5t-142.5 -24q-76 0 -137.5 22.5t-105 64t-67.5 100t-24 129.5q0 75 20.5 145.5t57.5 134.5t86.5 118.5t108.5 96.5q-10 9 -24 20t-29 22t-31 22.5t-29 20.5z
M290 318q0 -52 17 -91t46.5 -64.5t70 -38.5t88.5 -13q106 0 165 54t59 151q0 109 -50.5 209t-158.5 194q-54 -37 -98 -83t-75 -98t-47.5 -108t-16.5 -112z" />
    <glyph glyph-name="uni0648" unicode="&#x648;" horiz-adv-x="936" arabic-form="isolated" 
d="M0 -295q79 -32 160 -45.5t162 -13.5q95 0 158 26.5t102 76t56.5 119t22.5 156.5q-42 -19 -90 -28.5t-98 -9.5q-64 0 -123.5 21t-105 60t-72.5 94.5t-27 124.5q0 63 23.5 128.5t64.5 119t96 87.5t118 34q76 0 134.5 -45t107.5 -129q49 -85 71 -193t22 -223
q0 -127 -27.5 -229.5t-84 -174.5t-143.5 -110.5t-205 -38.5q-87 0 -167.5 16t-154.5 49v128zM656 150q-2 61 -20.5 126.5t-48 120t-67.5 89.5t-79 35q-33 0 -64 -19t-55 -50t-38.5 -71.5t-14.5 -82.5t17 -75.5t46.5 -57t69.5 -36t86 -12.5q47 0 90 7.5t78 25.5z" />
    <glyph glyph-name="uni0649" unicode="&#x649;" horiz-adv-x="1501" arabic-form="isolated" 
d="M654 -133q-132 0 -223.5 32.5t-149.5 91.5t-84 141.5t-26 183.5q0 85 19.5 173t50.5 169h114q-29 -85 -46.5 -164.5t-17.5 -157.5q0 -79 19 -141t65 -105.5t121 -66.5t188 -23q110 0 204 22t162.5 58.5t107.5 83.5t39 97q0 42 -25.5 70t-63.5 51.5t-82 46t-82 53
t-63.5 73.5t-25.5 106q0 76 37.5 135.5t105.5 103.5t162.5 73t207.5 45v-126q-195 -21 -295.5 -80t-100.5 -141q0 -42 25.5 -70.5t63.5 -52t83 -46t83 -51.5t63.5 -68.5t25.5 -97.5q0 -73 -43.5 -147.5t-127.5 -134.5t-207.5 -98t-283.5 -38z" />
    <glyph glyph-name="uni064A" unicode="&#x64a;" horiz-adv-x="1501" arabic-form="isolated" 
d="M654 -133q-132 0 -223.5 32.5t-149.5 91.5t-84 141.5t-26 183.5q0 85 19.5 173t50.5 169h114q-29 -85 -46.5 -164.5t-17.5 -157.5q0 -79 19 -141t65 -105.5t121 -66.5t188 -23q110 0 204 22t162.5 58.5t107.5 83.5t39 97q0 42 -25.5 70t-63.5 51.5t-82 46t-82 53
t-63.5 73.5t-25.5 106q0 76 37.5 135.5t105.5 103.5t162.5 73t207.5 45v-126q-195 -21 -295.5 -80t-100.5 -141q0 -42 25.5 -70.5t63.5 -52t83 -46t83 -51.5t63.5 -68.5t25.5 -97.5q0 -73 -43.5 -147.5t-127.5 -134.5t-207.5 -98t-283.5 -38zM674 -465h-147v143h147v-143z
M934 -465h-147v143h147v-143z" />
    <glyph glyph-name="uni066E.init" unicode="&#x66e;" horiz-adv-x="612" 
d="M441 738v-407q0 -103 -26 -169.5t-71 -105.5t-105.5 -54.5t-128.5 -15.5h-110q-35 0 -52.5 19t-17.5 47q0 27 17.5 46t52.5 19h115q52 0 90.5 10.5t64 35t38.5 66t13 103.5v406h120z" />
    <glyph glyph-name="uni066E.medi" unicode="&#x66e;" horiz-adv-x="684" 
d="M441 338q0 -66 12.5 -109t41 -67.5t75 -34.5t114.5 -10v-131h-52q-101 0 -164.5 33t-90.5 92h-4q-38 -63 -103 -94t-143 -31h-127q-35 0 -52.5 19t-17.5 47q0 27 17.5 46t52.5 19h124q40 0 76 10t63 32t42.5 57.5t15.5 86.5v435h120v-400z" />
    <glyph glyph-name="uni066E.fina" unicode="&#x66e;" horiz-adv-x="1881" 
d="M1659 738v-400q0 -58 11 -100t36.5 -69t68.5 -39.5t106 -12.5v-131h-43q-97 0 -155 31.5t-89 97.5h-4q-38 -42 -92.5 -68.5t-130.5 -41.5t-174.5 -21t-223.5 -6q-143 0 -252.5 4.5t-191.5 16t-140 31.5t-98 52q-61 48 -88.5 118.5t-27.5 161.5q0 54 8.5 108.5t20.5 102.5
h118q-11 -40 -18.5 -88t-7.5 -101q0 -69 19 -118.5t64 -81.5q29 -20 74.5 -34t118 -23t177 -13t251.5 -4q152 0 256 8t167.5 32.5t91.5 69.5t28 119v399h120z" />
    <glyph glyph-name="uni066F.init" unicode="&#x66f;" horiz-adv-x="936" 
d="M401 127q-123 55 -176.5 127.5t-53.5 162.5q0 65 23.5 133t64 123.5t93.5 90.5t112 35q62 0 120 -39t109 -117q41 -62 69.5 -137.5t28.5 -157.5q0 -111 -45 -181.5t-123.5 -110.5t-184.5 -55t-228 -15h-210q-35 0 -52.5 19t-17.5 47q0 27 17.5 46t52.5 19h171
q54 0 115.5 0.5t112.5 2.5zM670 344q0 32 -8.5 68t-24 71.5t-36 68.5t-44.5 58t-50 40t-52 15q-29 0 -58.5 -21.5t-53.5 -56t-39 -76.5t-15 -84q0 -32 14 -64t46 -65t85 -67.5t131 -71.5q48 24 76.5 71.5t28.5 113.5z" />
    <glyph glyph-name="uni066F.medi" unicode="&#x66f;" horiz-adv-x="936" 
d="M406 126q-125 52 -180 126t-55 165q0 65 23.5 133t64 123.5t93.5 90.5t112 35q62 0 120 -39t109 -116q42 -62 70 -138.5t28 -159.5q0 -68 -21.5 -122.5t-66.5 -95.5q22 -4 44.5 -6t50 -3t61 -1.5t77.5 -0.5v-131h-27q-89 0 -175.5 12.5t-156.5 41.5q-39 -17 -85.5 -27.5
t-97.5 -16.5t-105 -8t-109 -2h-180q-35 0 -52.5 19t-17.5 47q0 27 17.5 46t52.5 19h196q61 0 115.5 0.5t92.5 1.5zM670 344q0 32 -8.5 68t-24 71.5t-36 68.5t-44.5 58t-50 40t-52 15q-29 0 -58.5 -21.5t-53.5 -56t-39 -76.5t-15 -84q0 -32 14 -64.5t47 -66t86.5 -68
t131.5 -70.5q51 26 76.5 73.5t25.5 112.5z" />
    <glyph glyph-name="uni066F.fina" unicode="&#x66f;" horiz-adv-x="1462" 
d="M1051 -14q-89 0 -157 22.5t-115 62.5t-71 95t-24 120q0 63 23.5 128.5t64.5 119t96 87.5t117 34q76 0 134.5 -45t107.5 -129q21 -37 37.5 -80.5t27.5 -91t17.5 -96.5t8.5 -96h144v-131h-144q-11 -127 -50 -217t-111.5 -147t-182.5 -83.5t-264 -26.5q-143 0 -245 30
t-167.5 89t-96 146t-30.5 201q0 63 7.5 133t21.5 148h115q-11 -75 -17 -137.5t-6 -116.5q0 -96 23 -164t74 -112t133 -64.5t201 -20.5q136 0 224.5 21t141.5 63.5t77 106.5t30 151h-145zM1197 117q-2 44 -10 97t-25 101q-15 40 -34.5 77.5t-43 66t-50 45.5t-55.5 17
q-33 0 -64 -19t-54.5 -50t-38 -71.5t-14.5 -82.5q0 -86 61 -133.5t188 -47.5h140z" />
    <glyph glyph-name="uni0671" unicode="&#x671;" horiz-adv-x="462" arabic-form="isolated" 
d="M171 1516h120v-1516h-120v1516zM-91 1739q42 31 78 47t74 16q12 0 22.5 -1.5t21.5 -4.5q38 112 95.5 166t131.5 54q38 0 68 -13t50.5 -35.5t31.5 -51.5t11 -61q0 -39 -15 -74t-41.5 -61t-62 -41.5t-76.5 -15.5q-36 0 -68.5 8.5t-62 18.5t-56.5 18.5t-52 8.5
q-21 0 -49 -10.5t-58 -34.5zM292 1748q28 0 49.5 9t36.5 23.5t22.5 33.5t7.5 39q0 36 -24.5 57t-58.5 21q-43 0 -82 -38t-69 -119q27 -11 57 -18.5t61 -7.5z" />
    <glyph glyph-name="uni0672.fina" unicode="&#x672;" horiz-adv-x="513" 
d="M513 -14h-37q-88 0 -146.5 24.5t-94 67.5t-50 102.5t-14.5 128.5v1207h120v-1148q0 -71 8.5 -119t32.5 -77.5t67.5 -42t113.5 -12.5v-131zM-55 1670v76q43 40 83 40q17 0 31.5 -6t30 -13.5t35 -14t45.5 -6.5l1 5q-23 23 -36.5 52t-13.5 62q0 34 14 63.5t39.5 51t61 33.5
t78.5 12q31 0 64 -6v-90q-13 3 -27.5 5t-30.5 2q-49 0 -83.5 -23t-34.5 -65q0 -48 35.5 -72t101.5 -24h86v-87h-209q-45 0 -74.5 7.5t-50 16t-35 16t-29.5 7.5q-17 0 -36.5 -11t-42.5 -32z" />
    <glyph glyph-name="uni0673.fina" unicode="&#x673;" horiz-adv-x="513" 
d="M513 -14h-37q-88 0 -146.5 24.5t-94 67.5t-50 102.5t-14.5 128.5v1207h120v-1148q0 -71 8.5 -119t32.5 -77.5t67.5 -42t113.5 -12.5v-131zM-55 -504v76q43 40 83 40q17 0 31.5 -6t30 -13.5t35 -14t45.5 -6.5l1 5q-23 23 -36.5 52t-13.5 62q0 34 14 63.5t39.5 51t61 33.5
t78.5 12q31 0 64 -6v-90q-13 3 -27.5 5t-30.5 2q-49 0 -83.5 -23t-34.5 -65q0 -48 35.5 -72t101.5 -24h86v-87h-209q-45 0 -74.5 7.5t-50 16t-35 16t-29.5 7.5q-17 0 -36.5 -11t-42.5 -32z" />
    <glyph glyph-name="uni0675.fina" unicode="&#x675;" horiz-adv-x="812" 
d="M829 -14h-342q-35 0 -52.5 19.5t-17.5 46.5q0 28 17.5 46.5t52.5 18.5h342v-131zM513 -14h-37q-88 0 -146.5 24.5t-94 67.5t-50 102.5t-14.5 128.5v1207h120v-1148q0 -71 8.5 -119t32.5 -77.5t67.5 -42t113.5 -12.5v-131zM696 1439q-13 3 -27.5 5t-30.5 2
q-50 0 -83.5 -23t-33.5 -68q0 -93 136 -93h83v-87h-342v81h90l1 5q-23 23 -36.5 52t-13.5 62q0 34 14 63.5t39.5 51t61 33.5t78.5 12q31 0 64 -6v-90z" />
    <glyph glyph-name="uni0676.fina" unicode="&#x676;" horiz-adv-x="936" 
d="M0 -295q79 -32 160 -45.5t162 -13.5q72 0 125 14.5t90.5 42.5t61.5 69.5t39 95.5q5 19 10.5 49.5t9.5 68.5h-145q-89 0 -157.5 22.5t-115 62.5t-71 95t-24.5 120q0 63 23.5 128.5t64.5 119t96 87.5t118 34q76 0 134.5 -45t107.5 -130q42 -74 64.5 -170.5t26.5 -192.5h156
v-131h-157q-9 -111 -40 -198.5t-87 -149t-138 -94t-192 -32.5q-87 0 -167.5 16t-154.5 49v128zM623 315q-14 40 -33.5 77.5t-43 66t-50.5 45.5t-55 17q-33 0 -64 -19t-55 -50t-38.5 -71.5t-14.5 -82.5q0 -85 64.5 -133t192.5 -48h133q-2 44 -10.5 97t-25.5 101zM811 1120
q-13 3 -27.5 5t-30.5 2q-50 0 -83.5 -23t-33.5 -68q0 -93 136 -93h83v-87h-342v81h90l1 5q-23 23 -36.5 52t-13.5 62q0 34 14 63.5t39.5 51t61 33.5t78.5 12q31 0 64 -6v-90z" />
    <glyph glyph-name="uni0677" unicode="&#x677;" horiz-adv-x="936" arabic-form="isolated" 
d="M0 -295q79 -32 160 -45.5t162 -13.5q95 0 158 26.5t102 76t56.5 119t22.5 156.5q-42 -19 -90 -28.5t-98 -9.5q-64 0 -123.5 21t-105 60t-72.5 94.5t-27 124.5q0 63 23.5 128.5t64.5 119t96 87.5t118 34q76 0 134.5 -45t107.5 -129q49 -85 71 -193t22 -223
q0 -127 -27.5 -229.5t-84 -174.5t-143.5 -110.5t-205 -38.5q-87 0 -167.5 16t-154.5 49v128zM656 150q-2 61 -20.5 126.5t-48 120t-67.5 89.5t-79 35q-33 0 -64 -19t-55 -50t-38.5 -71.5t-14.5 -82.5t17 -75.5t46.5 -57t69.5 -36t86 -12.5q47 0 90 7.5t78 25.5zM315 812
q-23 17 -42 34.5t-36 34.5q-26 -6 -50.5 -7.5t-47.5 -1.5q-54 0 -106 7t-99 21q4 19 8 37.5t8 37.5q48 -13 97 -20t100 -7h13.5t14.5 2q0 1 0.5 1t0.5 1q-29 34 -43 69t-14 70q0 37 15 67t39.5 51t56 32.5t64.5 11.5q34 0 64 -12t52.5 -33.5t35.5 -52.5t13 -69
q0 -123 -138 -181q11 -11 24.5 -22.5t22.5 -19.5zM379 1082q0 21 -8 37.5t-20.5 27.5t-29 17t-33.5 6q-16 0 -32 -5.5t-28.5 -16t-20 -25.5t-7.5 -35q0 -33 19 -67t46 -57q51 14 82.5 44.5t31.5 73.5zM842 1120q-13 3 -27.5 5t-30.5 2q-50 0 -83.5 -23t-33.5 -68
q0 -93 136 -93h83v-87h-342v81h90l1 5q-23 23 -36.5 52t-13.5 62q0 34 14 63.5t39.5 51t61 33.5t78.5 12q31 0 64 -6v-90z" />
    <glyph glyph-name="uni0678.init" unicode="&#x678;" horiz-adv-x="936" 
d="M441 738v-407q0 -103 -26 -169.5t-71 -105.5t-105.5 -54.5t-128.5 -15.5h-110q-35 0 -52.5 19t-17.5 47q0 27 17.5 46t52.5 19h115q52 0 90.5 10.5t64 35t38.5 66t13 103.5v406h120zM811 1199q-13 3 -27.5 5t-30.5 2q-50 0 -83.5 -23t-33.5 -68q0 -93 136 -93h83v-87
h-342v81h90l1 5q-23 23 -36.5 52t-13.5 62q0 34 14 63.5t39.5 51t61 33.5t78.5 12q31 0 64 -6v-90z" />
    <glyph glyph-name="uni0678.medi" unicode="&#x678;" horiz-adv-x="992" 
d="M992 -14h-342q-35 0 -52.5 19.5t-17.5 46.5q0 28 17.5 46.5t52.5 18.5h342v-131zM811 1199q-13 3 -27.5 5t-30.5 2q-50 0 -83.5 -23t-33.5 -68q0 -93 136 -93h83v-87h-342v81h90l1 5q-23 23 -36.5 52t-13.5 62q0 34 14 63.5t39.5 51t61 33.5t78.5 12q31 0 64 -6v-90z
M441 338q0 -66 12.5 -109t41 -67.5t75 -34.5t114.5 -10v-131h-52q-101 0 -164.5 33t-90.5 92h-4q-38 -63 -103 -94t-143 -31h-127q-35 0 -52.5 19t-17.5 47q0 27 17.5 46t52.5 19h124q40 0 76 10t63 32t42.5 57.5t15.5 86.5v435h120v-400z" />
    <glyph glyph-name="uni0678.fina" unicode="&#x678;" horiz-adv-x="1710" 
d="M323 493q-14 -64 -23 -119.5t-9 -117.5q0 -88 20.5 -158t70.5 -118.5t135 -74t214 -25.5q89 0 158 12t116 33t71.5 50t24.5 63t-20 58.5t-43.5 50.5t-43.5 59.5t-20 85.5q0 48 18 89t48.5 70t71 45.5t85.5 16.5q63 0 114.5 -36t97.5 -122q40 -71 67.5 -117t58 -73
t70.5 -37.5t105 -10.5v-131h-52q-57 0 -102 14t-83.5 47t-75 86t-76.5 131q-17 35 -32.5 58.5t-30.5 38t-31 20.5t-35 6q-42 0 -70.5 -24.5t-28.5 -64.5q0 -24 9.5 -42.5t23.5 -35.5t30.5 -33.5t30.5 -37t23.5 -45.5t9.5 -59q0 -72 -40.5 -128t-111 -93.5t-166 -57
t-206.5 -19.5q-146 0 -246 36t-162 100.5t-89.5 155t-27.5 199.5q0 63 9 124.5t26 130.5h117zM1711 1199q-13 3 -27.5 5t-30.5 2q-50 0 -83.5 -23t-33.5 -68q0 -93 136 -93h83v-87h-342v81h90l1 5q-23 23 -36.5 52t-13.5 62q0 34 14 63.5t39.5 51t61 33.5t78.5 12
q31 0 64 -6v-90z" />
    <glyph glyph-name="uni0679" unicode="&#x679;" horiz-adv-x="1830" arabic-form="isolated" 
d="M318 573q-11 -40 -18.5 -88t-7.5 -101q0 -69 18.5 -118.5t64.5 -81.5q29 -20 74.5 -34t118 -23t177 -13t251.5 -4q149 0 252.5 9t168 33.5t93.5 69.5t29 117v399h120v-399q0 -114 -44 -185t-131 -110t-217 -52.5t-302 -13.5q-142 0 -250.5 4t-190.5 15.5t-139.5 32
t-97.5 52.5q-61 48 -88.5 118.5t-27.5 161.5q0 54 8.5 108.5t20.5 102.5h118zM618 953q23 -2 53.5 -3.5t62.5 -2.5v482h83v-341l3 -1q38 64 91 98.5t119 34.5q42 0 73.5 -16.5t52.5 -43.5t31.5 -63t10.5 -75q0 -59 -17 -92t-50.5 -50t-82.5 -21t-113 -4q-60 0 -106 0.5
t-82 1.5t-64 2.5t-52 4.5zM941 946q52 0 86 1.5t54.5 9.5t29 24t8.5 45q0 50 -30.5 76.5t-73.5 26.5q-31 0 -60.5 -14t-56 -38.5t-48 -58t-37.5 -72.5h128z" />
    <glyph glyph-name="uni067A" unicode="&#x67a;" horiz-adv-x="1830" arabic-form="isolated" 
d="M318 573q-11 -40 -18.5 -88t-7.5 -101q0 -69 18.5 -118.5t64.5 -81.5q29 -20 74.5 -34t118 -23t177 -13t251.5 -4q149 0 252.5 9t168 33.5t93.5 69.5t29 117v399h120v-399q0 -114 -44 -185t-131 -110t-217 -52.5t-302 -13.5q-142 0 -250.5 4t-190.5 15.5t-139.5 32
t-97.5 52.5q-61 48 -88.5 118.5t-27.5 161.5q0 54 8.5 108.5t20.5 102.5h118zM1002 934h-147v143h147v-143zM1002 1165h-147v143h147v-143z" />
    <glyph glyph-name="uni067B" unicode="&#x67b;" horiz-adv-x="1830" arabic-form="isolated" 
d="M318 573q-11 -40 -18.5 -88t-7.5 -101q0 -69 18.5 -118.5t64.5 -81.5q29 -20 74.5 -34t118 -23t177 -13t251.5 -4q149 0 252.5 9t168 33.5t93.5 69.5t29 117v399h120v-399q0 -114 -44 -185t-131 -110t-217 -52.5t-302 -13.5q-142 0 -250.5 4t-190.5 15.5t-139.5 32
t-97.5 52.5q-61 48 -88.5 118.5t-27.5 161.5q0 54 8.5 108.5t20.5 102.5h118zM1002 -558h-147v143h147v-143zM1002 -327h-147v143h147v-143z" />
    <glyph glyph-name="uni067C.init" unicode="&#x67c;" horiz-adv-x="612" 
d="M441 738v-407q0 -103 -26 -169.5t-71 -105.5t-105.5 -54.5t-128.5 -15.5h-110q-35 0 -52.5 19t-17.5 47q0 27 17.5 46t52.5 19h115q52 0 90.5 10.5t64 35t38.5 66t13 103.5v406h120zM320 934h-147v143h147v-143zM580 934h-147v143h147v-143zM246 73q32 0 61 -12.5
t50.5 -34t34.5 -51.5t13 -64q0 -32 -13 -61t-34.5 -51t-50.5 -34.5t-61 -12.5q-35 0 -64.5 12.5t-51 34.5t-34 50.5t-12.5 61.5q0 34 12 64t34 51.5t51.5 34t64.5 12.5zM246 -173q35 0 59.5 24.5t24.5 59.5q0 37 -24.5 62t-59.5 25q-37 0 -62 -25t-25 -62q0 -35 25 -59.5
t62 -24.5z" />
    <glyph glyph-name="uni067C.medi" unicode="&#x67c;" horiz-adv-x="684" 
d="M441 338q0 -66 12.5 -109t41 -67.5t75 -34.5t114.5 -10v-131h-52q-101 0 -164.5 33t-90.5 92h-4q-38 -63 -103 -94t-143 -31h-127q-35 0 -52.5 19t-17.5 47q0 27 17.5 46t52.5 19h124q40 0 76 10t63 32t42.5 57.5t15.5 86.5v435h120v-400zM320 934h-147v143h147v-143z
M580 934h-147v143h147v-143zM229 70q32 0 61 -12.5t50.5 -34t34.5 -51.5t13 -64q0 -32 -13 -61t-34.5 -51t-50.5 -34.5t-61 -12.5q-35 0 -64.5 12.5t-51 34.5t-34 50.5t-12.5 61.5q0 34 12 64t34 51.5t51.5 34t64.5 12.5zM229 -176q35 0 59.5 24.5t24.5 59.5q0 37 -24.5 62
t-59.5 25q-37 0 -62 -25t-25 -62q0 -35 25 -59.5t62 -24.5z" />
    <glyph glyph-name="uni067C.fina" unicode="&#x67c;" horiz-adv-x="1881" 
d="M1659 738v-400q0 -58 11 -100t36.5 -69t68.5 -39.5t106 -12.5v-131h-43q-97 0 -155 31.5t-89 97.5h-4q-38 -42 -92.5 -68.5t-130.5 -41.5t-174.5 -21t-223.5 -6q-143 0 -252.5 4.5t-191.5 16t-140 31.5t-98 52q-61 48 -88.5 118.5t-27.5 161.5q0 54 8.5 108.5t20.5 102.5
h118q-11 -40 -18.5 -88t-7.5 -101q0 -69 19 -118.5t64 -81.5q29 -20 74.5 -34t118 -23t177 -13t251.5 -4q152 0 256 8t167.5 32.5t91.5 69.5t28 119v399h120zM854 934h-147v143h147v-143zM1114 934h-147v143h147v-143zM937 51q32 0 61 -12.5t50.5 -34t34.5 -51.5t13 -64
q0 -32 -13 -61t-34.5 -51t-50.5 -34.5t-61 -12.5q-35 0 -64.5 12.5t-51 34.5t-34 50.5t-12.5 61.5q0 34 12 64t34 51.5t51.5 34t64.5 12.5zM937 -195q35 0 59.5 24.5t24.5 59.5q0 37 -24.5 62t-59.5 25q-37 0 -62 -25t-25 -62q0 -35 25 -59.5t62 -24.5z" />
    <glyph glyph-name="uni067D.init" unicode="&#x67d;" horiz-adv-x="612" 
d="M441 738v-407q0 -103 -26 -169.5t-71 -105.5t-105.5 -54.5t-128.5 -15.5h-110q-35 0 -52.5 19t-17.5 47q0 27 17.5 46t52.5 19h115q52 0 90.5 10.5t64 35t38.5 66t13 103.5v406h120zM322 1156h-148v143h148v-143zM581 1156h-147v143h147v-143zM452 933h-147v143h147v-143
z" />
    <glyph glyph-name="uni067D.medi" unicode="&#x67d;" horiz-adv-x="684" 
d="M441 338q0 -66 12.5 -109t41 -67.5t75 -34.5t114.5 -10v-131h-52q-101 0 -164.5 33t-90.5 92h-4q-38 -63 -103 -94t-143 -31h-127q-35 0 -52.5 19t-17.5 47q0 27 17.5 46t52.5 19h124q40 0 76 10t63 32t42.5 57.5t15.5 86.5v435h120v-400zM322 1156h-148v143h148v-143z
M581 1156h-147v143h147v-143zM452 933h-147v143h147v-143z" />
    <glyph glyph-name="uni067D.fina" unicode="&#x67d;" horiz-adv-x="1881" 
d="M1659 738v-400q0 -58 11 -100t36.5 -69t68.5 -39.5t106 -12.5v-131h-43q-97 0 -155 31.5t-89 97.5h-4q-38 -42 -92.5 -68.5t-130.5 -41.5t-174.5 -21t-223.5 -6q-143 0 -252.5 4.5t-191.5 16t-140 31.5t-98 52q-61 48 -88.5 118.5t-27.5 161.5q0 54 8.5 108.5t20.5 102.5
h118q-11 -40 -18.5 -88t-7.5 -101q0 -69 19 -118.5t64 -81.5q29 -20 74.5 -34t118 -23t177 -13t251.5 -4q152 0 256 8t167.5 32.5t91.5 69.5t28 119v399h120zM857 1156h-148v143h148v-143zM1116 1156h-147v143h147v-143zM987 933h-147v143h147v-143z" />
    <glyph glyph-name="uni067E" unicode="&#x67e;" horiz-adv-x="1830" arabic-form="isolated" 
d="M318 573q-11 -40 -18.5 -88t-7.5 -101q0 -69 18.5 -118.5t64.5 -81.5q29 -20 74.5 -34t118 -23t177 -13t251.5 -4q149 0 252.5 9t168 33.5t93.5 69.5t29 117v399h120v-399q0 -114 -44 -185t-131 -110t-217 -52.5t-302 -13.5q-142 0 -250.5 4t-190.5 15.5t-139.5 32
t-97.5 52.5q-61 48 -88.5 118.5t-27.5 161.5q0 54 8.5 108.5t20.5 102.5h118zM832 -327h-148v143h148v-143zM1091 -327h-147v143h147v-143zM962 -550h-147v143h147v-143z" />
    <glyph glyph-name="uni067F" unicode="&#x67f;" horiz-adv-x="1830" arabic-form="isolated" 
d="M318 573q-11 -40 -18.5 -88t-7.5 -101q0 -69 18.5 -118.5t64.5 -81.5q29 -20 74.5 -34t118 -23t177 -13t251.5 -4q149 0 252.5 9t168 33.5t93.5 69.5t29 117v399h120v-399q0 -114 -44 -185t-131 -110t-217 -52.5t-302 -13.5q-142 0 -250.5 4t-190.5 15.5t-139.5 32
t-97.5 52.5q-61 48 -88.5 118.5t-27.5 161.5q0 54 8.5 108.5t20.5 102.5h118zM876 934h-147v143h147v-143zM1136 934h-147v143h147v-143zM876 1175h-147v143h147v-143zM1136 1175h-147v143h147v-143z" />
    <glyph glyph-name="uni0680" unicode="&#x680;" horiz-adv-x="1830" arabic-form="isolated" 
d="M318 573q-11 -40 -18.5 -88t-7.5 -101q0 -69 18.5 -118.5t64.5 -81.5q29 -20 74.5 -34t118 -23t177 -13t251.5 -4q149 0 252.5 9t168 33.5t93.5 69.5t29 117v399h120v-399q0 -114 -44 -185t-131 -110t-217 -52.5t-302 -13.5q-142 0 -250.5 4t-190.5 15.5t-139.5 32
t-97.5 52.5q-61 48 -88.5 118.5t-27.5 161.5q0 54 8.5 108.5t20.5 102.5h118zM832 -568h-147v143h147v-143zM1092 -568h-147v143h147v-143zM832 -327h-147v143h147v-143zM1092 -327h-147v143h147v-143z" />
    <glyph glyph-name="uni0681.init" unicode="&#x681;" horiz-adv-x="1197" 
d="M171 696q59 21 121 31.5t122 10.5q67 0 125 -12.5t112 -31t106.5 -41t108 -41.5t116 -32t131.5 -14l-24 -145q-51 -11 -109.5 -47.5t-127 -85t-150 -102t-180 -98t-215.5 -73.5t-257 -29h-50q-35 0 -52.5 19t-17.5 47q0 27 17.5 46t52.5 19h59q97 0 181 16t158.5 42.5
t141 62.5t128.5 75.5t121.5 80.5t119.5 79v5q-60 18 -117 40.5t-116.5 42.5t-124 33.5t-139.5 13.5q-28 0 -61 -3t-65.5 -8t-62.5 -11.5t-52 -13.5v124zM659 1199q-13 3 -27.5 5t-30.5 2q-50 0 -83.5 -23t-33.5 -68q0 -93 136 -93h83v-87h-342v81h90l1 5q-23 23 -36.5 52
t-13.5 62q0 34 14 63.5t39.5 51t61 33.5t78.5 12q31 0 64 -6v-90z" />
    <glyph glyph-name="uni0681.medi" unicode="&#x681;" horiz-adv-x="1197" 
d="M171 696q59 21 121 31.5t122 10.5q67 0 125 -12.5t112 -31t106.5 -41t108 -41.5t116 -32t131.5 -14l-24 -145q-33 -6 -70.5 -23.5t-79.5 -44.5q0 -59 13.5 -103.5t43.5 -74t79.5 -44t121.5 -14.5v-131h-20q-89 0 -150 23t-99.5 64t-56 99t-20.5 129q-44 -25 -95 -58.5
t-109 -68.5t-124 -68.5t-140 -60t-157.5 -43t-175.5 -16.5h-50q-35 0 -52.5 19t-17.5 47q0 27 17.5 46t52.5 19h50q93 0 174 16.5t154 44t139.5 63.5t131 75.5t128.5 80t132 76.5v5q-60 18 -117 40.5t-116.5 42.5t-124 33.5t-139.5 13.5q-28 0 -61 -3t-65.5 -8t-62.5 -11.5
t-52 -13.5v124zM659 1199q-13 3 -27.5 5t-30.5 2q-50 0 -83.5 -23t-33.5 -68q0 -93 136 -93h83v-87h-342v81h90l1 5q-23 23 -36.5 52t-13.5 62q0 34 14 63.5t39.5 51t61 33.5t78.5 12q31 0 64 -6v-90z" />
    <glyph glyph-name="uni0681.fina" unicode="&#x681;" horiz-adv-x="1197" 
d="M1034 513q-31 -5 -62 -11.5t-56 -13.5q2 -105 14 -176t39 -114.5t71 -62t112 -18.5h45v-131h-37q-94 0 -158.5 29t-104 87.5t-58 147.5t-21.5 209q-147 -42 -251.5 -99t-171.5 -123t-98 -138t-31 -144q0 -71 25 -132t77.5 -105.5t133.5 -70t193 -25.5q204 0 388 71v-122
q-185 -74 -391 -74q-143 0 -247 34t-172 93t-100.5 139.5t-32.5 173.5t39.5 187t124.5 178.5t217.5 155t318.5 118.5v8q-54 14 -100.5 31t-93 32t-98 25t-116.5 10q-74 0 -141.5 -11.5t-119.5 -27.5v123q59 20 125.5 32.5t138.5 12.5q62 0 115 -11.5t101 -28.5t93.5 -37
t94 -37.5t101.5 -30t117 -14.5zM718 1291q-13 3 -27.5 5t-30.5 2q-50 0 -83.5 -23t-33.5 -68q0 -93 136 -93h83v-87h-342v81h90l1 5q-23 23 -36.5 52t-13.5 62q0 34 14 63.5t39.5 51t61 33.5t78.5 12q31 0 64 -6v-90z" />
    <glyph glyph-name="uni0682.init" unicode="&#x682;" horiz-adv-x="1197" 
d="M171 696q59 21 121 31.5t122 10.5q67 0 125 -12.5t112 -31t106.5 -41t108 -41.5t116 -32t131.5 -14l-24 -145q-51 -11 -109.5 -47.5t-127 -85t-150 -102t-180 -98t-215.5 -73.5t-257 -29h-50q-35 0 -52.5 19t-17.5 47q0 27 17.5 46t52.5 19h59q97 0 181 16t158.5 42.5
t141 62.5t128.5 75.5t121.5 80.5t119.5 79v5q-60 18 -117 40.5t-116.5 42.5t-124 33.5t-139.5 13.5q-28 0 -61 -3t-65.5 -8t-62.5 -11.5t-52 -13.5v124zM669 893h-147v143h147v-143zM669 1124h-147v143h147v-143z" />
    <glyph glyph-name="uni0682.medi" unicode="&#x682;" horiz-adv-x="1197" 
d="M171 696q59 21 121 31.5t122 10.5q67 0 125 -12.5t112 -31t106.5 -41t108 -41.5t116 -32t131.5 -14l-24 -145q-33 -6 -70.5 -23.5t-79.5 -44.5q0 -59 13.5 -103.5t43.5 -74t79.5 -44t121.5 -14.5v-131h-20q-89 0 -150 23t-99.5 64t-56 99t-20.5 129q-44 -25 -95 -58.5
t-109 -68.5t-124 -68.5t-140 -60t-157.5 -43t-175.5 -16.5h-50q-35 0 -52.5 19t-17.5 47q0 27 17.5 46t52.5 19h50q93 0 174 16.5t154 44t139.5 63.5t131 75.5t128.5 80t132 76.5v5q-60 18 -117 40.5t-116.5 42.5t-124 33.5t-139.5 13.5q-28 0 -61 -3t-65.5 -8t-62.5 -11.5
t-52 -13.5v124zM669 893h-147v143h147v-143zM669 1124h-147v143h147v-143z" />
    <glyph glyph-name="uni0682.fina" unicode="&#x682;" horiz-adv-x="1197" 
d="M1034 513q-31 -5 -62 -11.5t-56 -13.5q2 -105 14 -176t39 -114.5t71 -62t112 -18.5h45v-131h-37q-94 0 -158.5 29t-104 87.5t-58 147.5t-21.5 209q-147 -42 -251.5 -99t-171.5 -123t-98 -138t-31 -144q0 -71 25 -132t77.5 -105.5t133.5 -70t193 -25.5q204 0 388 71v-122
q-185 -74 -391 -74q-143 0 -247 34t-172 93t-100.5 139.5t-32.5 173.5t39.5 187t124.5 178.5t217.5 155t318.5 118.5v8q-54 14 -100.5 31t-93 32t-98 25t-116.5 10q-74 0 -141.5 -11.5t-119.5 -27.5v123q59 20 125.5 32.5t138.5 12.5q62 0 115 -11.5t101 -28.5t93.5 -37
t94 -37.5t101.5 -30t117 -14.5zM669 1031h-147v143h147v-143zM669 1262h-147v143h147v-143z" />
    <glyph glyph-name="uni0683" unicode="&#x683;" horiz-adv-x="1197" arabic-form="isolated" 
d="M1029 514q-204 -45 -349 -105.5t-237 -132.5t-134.5 -153t-42.5 -168q0 -71 25 -132t77.5 -105.5t133.5 -70t193 -25.5q204 0 388 71v-122q-185 -74 -391 -74q-143 0 -247 34t-172 93t-100.5 139.5t-32.5 173.5t40.5 187t126 178.5t218 155t315.5 118.5v8
q-54 14 -100.5 31t-93 32t-98 25t-116.5 10q-74 0 -141.5 -11.5t-119.5 -27.5v123q59 20 125.5 32.5t138.5 12.5q62 0 115 -11.5t101 -28.5t93.5 -37t94 -37.5t101.5 -30t117 -14.5zM637 -41h-147v143h147v-143zM897 -41h-147v143h147v-143z" />
    <glyph glyph-name="uni0684" unicode="&#x684;" horiz-adv-x="1197" arabic-form="isolated" 
d="M1029 514q-204 -45 -349 -105.5t-237 -132.5t-134.5 -153t-42.5 -168q0 -71 25 -132t77.5 -105.5t133.5 -70t193 -25.5q204 0 388 71v-122q-185 -74 -391 -74q-143 0 -247 34t-172 93t-100.5 139.5t-32.5 173.5t40.5 187t126 178.5t218 155t315.5 118.5v8
q-54 14 -100.5 31t-93 32t-98 25t-116.5 10q-74 0 -141.5 -11.5t-119.5 -27.5v123q59 20 125.5 32.5t138.5 12.5q62 0 115 -11.5t101 -28.5t93.5 -37t94 -37.5t101.5 -30t117 -14.5zM787 -178h-147v143h147v-143zM787 53h-147v143h147v-143z" />
    <glyph glyph-name="uni0685.init" unicode="&#x685;" horiz-adv-x="1197" 
d="M171 696q59 21 121 31.5t122 10.5q67 0 125 -12.5t112 -31t106.5 -41t108 -41.5t116 -32t131.5 -14l-24 -145q-51 -11 -109.5 -47.5t-127 -85t-150 -102t-180 -98t-215.5 -73.5t-257 -29h-50q-35 0 -52.5 19t-17.5 47q0 27 17.5 46t52.5 19h59q97 0 181 16t158.5 42.5
t141 62.5t128.5 75.5t121.5 80.5t119.5 79v5q-60 18 -117 40.5t-116.5 42.5t-124 33.5t-139.5 13.5q-28 0 -61 -3t-65.5 -8t-62.5 -11.5t-52 -13.5v124zM512 934h-147v143h147v-143zM772 934h-147v143h147v-143zM642 1165h-147v143h147v-143z" />
    <glyph glyph-name="uni0685.medi" unicode="&#x685;" horiz-adv-x="1197" 
d="M171 696q59 21 121 31.5t122 10.5q67 0 125 -12.5t112 -31t106.5 -41t108 -41.5t116 -32t131.5 -14l-24 -145q-33 -6 -70.5 -23.5t-79.5 -44.5q0 -59 13.5 -103.5t43.5 -74t79.5 -44t121.5 -14.5v-131h-20q-89 0 -150 23t-99.5 64t-56 99t-20.5 129q-44 -25 -95 -58.5
t-109 -68.5t-124 -68.5t-140 -60t-157.5 -43t-175.5 -16.5h-50q-35 0 -52.5 19t-17.5 47q0 27 17.5 46t52.5 19h50q93 0 174 16.5t154 44t139.5 63.5t131 75.5t128.5 80t132 76.5v5q-60 18 -117 40.5t-116.5 42.5t-124 33.5t-139.5 13.5q-28 0 -61 -3t-65.5 -8t-62.5 -11.5
t-52 -13.5v124zM512 934h-147v143h147v-143zM772 934h-147v143h147v-143zM642 1165h-147v143h147v-143z" />
    <glyph glyph-name="uni0685.fina" unicode="&#x685;" horiz-adv-x="1197" 
d="M1034 513q-31 -5 -62 -11.5t-56 -13.5q2 -105 14 -176t39 -114.5t71 -62t112 -18.5h45v-131h-37q-94 0 -158.5 29t-104 87.5t-58 147.5t-21.5 209q-147 -42 -251.5 -99t-171.5 -123t-98 -138t-31 -144q0 -71 25 -132t77.5 -105.5t133.5 -70t193 -25.5q204 0 388 71v-122
q-185 -74 -391 -74q-143 0 -247 34t-172 93t-100.5 139.5t-32.5 173.5t39.5 187t124.5 178.5t217.5 155t318.5 118.5v8q-54 14 -100.5 31t-93 32t-98 25t-116.5 10q-74 0 -141.5 -11.5t-119.5 -27.5v123q59 20 125.5 32.5t138.5 12.5q62 0 115 -11.5t101 -28.5t93.5 -37
t94 -37.5t101.5 -30t117 -14.5zM571 1031h-147v143h147v-143zM831 1031h-147v143h147v-143zM701 1262h-147v143h147v-143z" />
    <glyph glyph-name="uni0686" unicode="&#x686;" horiz-adv-x="1197" arabic-form="isolated" 
d="M1029 514q-204 -45 -349 -105.5t-237 -132.5t-134.5 -153t-42.5 -168q0 -71 25 -132t77.5 -105.5t133.5 -70t193 -25.5q204 0 388 71v-122q-185 -74 -391 -74q-143 0 -247 34t-172 93t-100.5 139.5t-32.5 173.5t40.5 187t126 178.5t218 155t315.5 118.5v8
q-54 14 -100.5 31t-93 32t-98 25t-116.5 10q-74 0 -141.5 -11.5t-119.5 -27.5v123q59 20 125.5 32.5t138.5 12.5q62 0 115 -11.5t101 -28.5t93.5 -37t94 -37.5t101.5 -30t117 -14.5zM678 29h-148v143h148v-143zM937 29h-147v143h147v-143zM808 -194h-147v143h147v-143z" />
    <glyph glyph-name="uni0687" unicode="&#x687;" horiz-adv-x="1197" arabic-form="isolated" 
d="M1029 514q-204 -45 -349 -105.5t-237 -132.5t-134.5 -153t-42.5 -168q0 -71 25 -132t77.5 -105.5t133.5 -70t193 -25.5q204 0 388 71v-122q-185 -74 -391 -74q-143 0 -247 34t-172 93t-100.5 139.5t-32.5 173.5t40.5 187t126 178.5t218 155t315.5 118.5v8
q-54 14 -100.5 31t-93 32t-98 25t-116.5 10q-74 0 -141.5 -11.5t-119.5 -27.5v123q59 20 125.5 32.5t138.5 12.5q62 0 115 -11.5t101 -28.5t93.5 -37t94 -37.5t101.5 -30t117 -14.5zM660 -184h-147v143h147v-143zM920 -184h-147v143h147v-143zM660 57h-147v143h147v-143z
M920 57h-147v143h147v-143z" />
    <glyph glyph-name="uni0688" unicode="&#x688;" horiz-adv-x="975" arabic-form="isolated" 
d="M79 132q42 -5 85 -9t84 -7t79 -4.5t68 -1.5q80 0 135.5 11t90 34t49.5 59.5t15 86.5q0 65 -23.5 136.5t-66.5 149t-102.5 161t-132.5 172.5h144q158 -185 230 -340.5t72 -286.5q0 -88 -30 -148t-84 -97t-128.5 -53.5t-164.5 -16.5q-59 0 -135.5 6t-149.5 16zM119 1272
q23 -2 53.5 -3.5t62.5 -2.5v482h83v-341l3 -1q38 64 91 98.5t119 34.5q42 0 73.5 -16.5t52.5 -43.5t31.5 -63t10.5 -75q0 -59 -17 -92t-50.5 -50t-82.5 -21t-113 -4q-60 0 -106 0.5t-82 1.5t-64 2.5t-52 4.5zM442 1265q52 0 86 1.5t54.5 9.5t29 24t8.5 45q0 50 -30.5 76.5
t-73.5 26.5q-31 0 -60.5 -14t-56 -38.5t-48 -58t-37.5 -72.5h128z" />
    <glyph glyph-name="uni0689.fina" unicode="&#x689;" horiz-adv-x="1026" 
d="M79 132q84 -11 168.5 -16.5t149.5 -5.5q78 0 131.5 9t87.5 27.5t49 47.5t15 68q0 40 -12.5 105t-35 149.5t-54 185.5t-70.5 213h130q24 -75 45 -147t40.5 -142.5t37.5 -140t37 -140.5q15 -52 32.5 -94t44 -72t63 -46t88.5 -16v-131h-43q-32 0 -63.5 8.5t-59.5 26.5
t-51 46t-38 68h-5q-44 -86 -134 -121.5t-231 -35.5q-61 0 -137 6t-150 16zM429 52q32 0 61 -12.5t50.5 -34t34.5 -51.5t13 -64q0 -32 -13 -61t-34.5 -51t-50.5 -34.5t-61 -12.5q-35 0 -64.5 12.5t-51 34.5t-34 50.5t-12.5 61.5q0 34 12 64t34 51.5t51.5 34t64.5 12.5z
M429 -194q35 0 59.5 24.5t24.5 59.5q0 37 -24.5 62t-59.5 25q-37 0 -62 -25t-25 -62q0 -35 25 -59.5t62 -24.5z" />
    <glyph glyph-name="uni068A.fina" unicode="&#x68a;" horiz-adv-x="1026" 
d="M79 132q84 -11 168.5 -16.5t149.5 -5.5q78 0 131.5 9t87.5 27.5t49 47.5t15 68q0 40 -12.5 105t-35 149.5t-54 185.5t-70.5 213h130q24 -75 45 -147t40.5 -142.5t37.5 -140t37 -140.5q15 -52 32.5 -94t44 -72t63 -46t88.5 -16v-131h-43q-32 0 -63.5 8.5t-59.5 26.5
t-51 46t-38 68h-5q-44 -86 -134 -121.5t-231 -35.5q-61 0 -137 6t-150 16zM513 -327h-147v143h147v-143z" />
    <glyph glyph-name="uni068B.fina" unicode="&#x68b;" horiz-adv-x="1026" 
d="M79 132q84 -11 168.5 -16.5t149.5 -5.5q78 0 131.5 9t87.5 27.5t49 47.5t15 68q0 40 -12.5 105t-35 149.5t-54 185.5t-70.5 213h130q24 -75 45 -147t40.5 -142.5t37.5 -140t37 -140.5q15 -52 32.5 -94t44 -72t63 -46t88.5 -16v-131h-43q-32 0 -63.5 8.5t-59.5 26.5
t-51 46t-38 68h-5q-44 -86 -134 -121.5t-231 -35.5q-61 0 -137 6t-150 16zM513 -327h-147v143h147v-143zM253 1272q23 -2 53.5 -3.5t62.5 -2.5v482h83v-341l3 -1q38 64 91 98.5t119 34.5q42 0 73.5 -16.5t52.5 -43.5t31.5 -63t10.5 -75q0 -59 -17 -92t-50.5 -50t-82.5 -21
t-113 -4q-60 0 -106 0.5t-82 1.5t-64 2.5t-52 4.5zM576 1265q52 0 86 1.5t54.5 9.5t29 24t8.5 45q0 50 -30.5 76.5t-73.5 26.5q-31 0 -60.5 -14t-56 -38.5t-48 -58t-37.5 -72.5h128z" />
    <glyph glyph-name="uni068C" unicode="&#x68c;" horiz-adv-x="975" arabic-form="isolated" 
d="M79 132q42 -5 85 -9t84 -7t79 -4.5t68 -1.5q80 0 135.5 11t90 34t49.5 59.5t15 86.5q0 65 -23.5 136.5t-66.5 149t-102.5 161t-132.5 172.5h144q158 -185 230 -340.5t72 -286.5q0 -88 -30 -148t-84 -97t-128.5 -53.5t-164.5 -16.5q-59 0 -135.5 6t-149.5 16zM349 1174
h-147v143h147v-143zM609 1174h-147v143h147v-143z" />
    <glyph glyph-name="uni068D" unicode="&#x68d;" horiz-adv-x="975" arabic-form="isolated" 
d="M79 132q42 -5 85 -9t84 -7t79 -4.5t68 -1.5q80 0 135.5 11t90 34t49.5 59.5t15 86.5q0 65 -23.5 136.5t-66.5 149t-102.5 161t-132.5 172.5h144q158 -185 230 -340.5t72 -286.5q0 -88 -30 -148t-84 -97t-128.5 -53.5t-164.5 -16.5q-59 0 -135.5 6t-149.5 16zM371 -327
h-147v143h147v-143zM631 -327h-147v143h147v-143z" />
    <glyph glyph-name="uni068E" unicode="&#x68e;" horiz-adv-x="975" arabic-form="isolated" 
d="M79 132q42 -5 85 -9t84 -7t79 -4.5t68 -1.5q80 0 135.5 11t90 34t49.5 59.5t15 86.5q0 65 -23.5 136.5t-66.5 149t-102.5 161t-132.5 172.5h144q158 -185 230 -340.5t72 -286.5q0 -88 -30 -148t-84 -97t-128.5 -53.5t-164.5 -16.5q-59 0 -135.5 6t-149.5 16zM349 1174
h-147v143h147v-143zM609 1174h-147v143h147v-143zM479 1405h-147v143h147v-143z" />
    <glyph glyph-name="uni068F.fina" unicode="&#x68f;" horiz-adv-x="1026" 
d="M79 132q84 -11 168.5 -16.5t149.5 -5.5q78 0 131.5 9t87.5 27.5t49 47.5t15 68q0 40 -12.5 105t-35 149.5t-54 185.5t-70.5 213h130q24 -75 45 -147t40.5 -142.5t37.5 -140t37 -140.5q15 -52 32.5 -94t44 -72t63 -46t88.5 -16v-131h-43q-32 0 -63.5 8.5t-59.5 26.5
t-51 46t-38 68h-5q-44 -86 -134 -121.5t-231 -35.5q-61 0 -137 6t-150 16zM494 1397h-148v143h148v-143zM753 1397h-147v143h147v-143zM624 1174h-147v143h147v-143z" />
    <glyph glyph-name="uni0690.fina" unicode="&#x690;" horiz-adv-x="1026" 
d="M79 132q84 -11 168.5 -16.5t149.5 -5.5q78 0 131.5 9t87.5 27.5t49 47.5t15 68q0 40 -12.5 105t-35 149.5t-54 185.5t-70.5 213h130q24 -75 45 -147t40.5 -142.5t37.5 -140t37 -140.5q15 -52 32.5 -94t44 -72t63 -46t88.5 -16v-131h-43q-32 0 -63.5 8.5t-59.5 26.5
t-51 46t-38 68h-5q-44 -86 -134 -121.5t-231 -35.5q-61 0 -137 6t-150 16zM491 1174h-147v143h147v-143zM751 1174h-147v143h147v-143zM491 1415h-147v143h147v-143zM751 1415h-147v143h147v-143z" />
    <glyph glyph-name="uni0691" unicode="&#x691;" horiz-adv-x="812" arabic-form="isolated" 
d="M0 -315q57 -19 110 -29t103 -10q160 0 233.5 104t73.5 309q0 140 -33.5 279t-85.5 273h131q26 -65 46.5 -136t35 -143t22 -142t7.5 -133q0 -138 -31 -240.5t-87 -170t-133 -101t-169 -33.5q-57 0 -113.5 12t-109.5 33v128zM111 949q23 -2 53.5 -3.5t62.5 -2.5v482h83
v-341l3 -1q38 64 91 98.5t119 34.5q42 0 73.5 -16.5t52.5 -43.5t31.5 -63t10.5 -75q0 -59 -17 -92t-50.5 -50t-82.5 -21t-113 -4q-60 0 -106 0.5t-82 1.5t-64 2.5t-52 4.5zM434 942q52 0 86 1.5t54.5 9.5t29 24t8.5 45q0 50 -30.5 76.5t-73.5 26.5q-31 0 -60.5 -14
t-56 -38.5t-48 -58t-37.5 -72.5h128z" />
    <glyph glyph-name="uni0692.fina" unicode="&#x692;" horiz-adv-x="812" 
d="M532 611q27 -75 50.5 -158t37.5 -168t63 -126.5t129 -41.5v-131h-13q-60 0 -95 18t-58 53q-2 0 -2.5 -0.5t-2.5 -0.5q0 -141 -31 -243.5t-86.5 -169t-132.5 -99t-168 -32.5q-57 0 -113.5 12t-109.5 33v128q57 -19 110 -29t103 -10q160 0 233.5 104t73.5 309
q0 140 -33.5 279t-85.5 273h131zM370 847l-234 352h105l179 -265l175 265h103l-230 -352h-98z" />
    <glyph glyph-name="uni0693.fina" unicode="&#x693;" horiz-adv-x="812" 
d="M532 611q27 -75 50.5 -158t37.5 -168t63 -126.5t129 -41.5v-131h-13q-60 0 -95 18t-58 53q-2 0 -2.5 -0.5t-2.5 -0.5q0 -141 -31 -243.5t-86.5 -169t-132.5 -99t-168 -32.5q-57 0 -113.5 12t-109.5 33v128q57 -19 110 -29t103 -10q160 0 233.5 104t73.5 309
q0 140 -33.5 279t-85.5 273h131zM634 -192q32 0 61 -12.5t50.5 -34t34.5 -51.5t13 -64q0 -32 -13 -61t-34.5 -51t-50.5 -34.5t-61 -12.5q-35 0 -64.5 12.5t-51 34.5t-34 50.5t-12.5 61.5q0 34 12 64t34 51.5t51.5 34t64.5 12.5zM634 -438q35 0 59.5 24.5t24.5 59.5
q0 37 -24.5 62t-59.5 25q-37 0 -62 -25t-25 -62q0 -35 25 -59.5t62 -24.5z" />
    <glyph glyph-name="uni0694.fina" unicode="&#x694;" horiz-adv-x="812" 
d="M532 611q27 -75 50.5 -158t37.5 -168t63 -126.5t129 -41.5v-131h-13q-60 0 -95 18t-58 53q-2 0 -2.5 -0.5t-2.5 -0.5q0 -141 -31 -243.5t-86.5 -169t-132.5 -99t-168 -32.5q-57 0 -113.5 12t-109.5 33v128q57 -19 110 -29t103 -10q160 0 233.5 104t73.5 309
q0 140 -33.5 279t-85.5 273h131zM786 -489h-147v143h147v-143z" />
    <glyph glyph-name="uni0695.fina" unicode="&#x695;" horiz-adv-x="812" 
d="M532 611q27 -75 50.5 -158t37.5 -168t63 -126.5t129 -41.5v-131h-13q-60 0 -95 18t-58 53q-2 0 -2.5 -0.5t-2.5 -0.5q0 -141 -31 -243.5t-86.5 -169t-132.5 -99t-168 -32.5q-57 0 -113.5 12t-109.5 33v128q57 -19 110 -29t103 -10q160 0 233.5 104t73.5 309
q0 140 -33.5 279t-85.5 273h131zM724 -543l-234 352h105l179 -265l175 265h103l-230 -352h-98z" />
    <glyph glyph-name="uni0696.fina" unicode="&#x696;" horiz-adv-x="812" 
d="M532 611q27 -75 50.5 -158t37.5 -168t63 -126.5t129 -41.5v-131h-13q-60 0 -95 18t-58 53q-2 0 -2.5 -0.5t-2.5 -0.5q0 -141 -31 -243.5t-86.5 -169t-132.5 -99t-168 -32.5q-57 0 -113.5 12t-109.5 33v128q57 -19 110 -29t103 -10q160 0 233.5 104t73.5 309
q0 140 -33.5 279t-85.5 273h131zM786 -489h-147v143h147v-143zM285 0h-147v143h147v-143z" />
    <glyph glyph-name="uni0697.fina" unicode="&#x697;" horiz-adv-x="812" 
d="M532 611q27 -75 50.5 -158t37.5 -168t63 -126.5t129 -41.5v-131h-13q-60 0 -95 18t-58 53q-2 0 -2.5 -0.5t-2.5 -0.5q0 -141 -31 -243.5t-86.5 -169t-132.5 -99t-168 -32.5q-57 0 -113.5 12t-109.5 33v128q57 -19 110 -29t103 -10q160 0 233.5 104t73.5 309
q0 140 -33.5 279t-85.5 273h131zM363 855h-147v143h147v-143zM623 855h-147v143h147v-143z" />
    <glyph glyph-name="uni0698" unicode="&#x698;" horiz-adv-x="812" arabic-form="isolated" 
d="M0 -315q57 -19 110 -29t103 -10q160 0 233.5 104t73.5 309q0 140 -33.5 279t-85.5 273h131q26 -65 46.5 -136t35 -143t22 -142t7.5 -133q0 -138 -31 -240.5t-87 -170t-133 -101t-169 -33.5q-57 0 -113.5 12t-109.5 33v128zM357 855h-147v143h147v-143zM617 855h-147v143
h147v-143zM487 1086h-147v143h147v-143z" />
    <glyph glyph-name="uni0699.fina" unicode="&#x699;" horiz-adv-x="812" 
d="M532 611q27 -75 50.5 -158t37.5 -168t63 -126.5t129 -41.5v-131h-13q-60 0 -95 18t-58 53q-2 0 -2.5 -0.5t-2.5 -0.5q0 -141 -31 -243.5t-86.5 -169t-132.5 -99t-168 -32.5q-57 0 -113.5 12t-109.5 33v128q57 -19 110 -29t103 -10q160 0 233.5 104t73.5 309
q0 140 -33.5 279t-85.5 273h131zM355 855h-147v143h147v-143zM615 855h-147v143h147v-143zM355 1096h-147v143h147v-143zM615 1096h-147v143h147v-143z" />
    <glyph glyph-name="uni069A.init" unicode="&#x69a;" horiz-adv-x="1663" 
d="M436 572v-209q0 -63 10 -109.5t33.5 -76.5t62.5 -45t96 -15q43 0 80.5 11t65 36t43 66t15.5 100v242h120v-207q0 -65 11 -112t36 -77t66 -44.5t101 -14.5q47 0 83 10.5t60 35.5t36.5 64.5t12.5 98.5v412h120v-419q0 -95 -24.5 -158.5t-67.5 -102.5t-100 -55.5t-123 -16.5
q-201 0 -271 137h-4q-47 -72 -115.5 -104.5t-149.5 -32.5q-97 0 -162.5 32t-97.5 101h-4q-43 -72 -109.5 -102.5t-143.5 -30.5h-116q-35 0 -52.5 19t-17.5 47q0 27 17.5 46t52.5 19h109q43 0 80.5 11t65.5 35.5t44.5 64.5t16.5 98v246h120zM983 855h-147v143h147v-143z
M982 -327h-147v143h147v-143z" />
    <glyph glyph-name="uni069A.medi" unicode="&#x69a;" horiz-adv-x="1710" 
d="M436 572v-209q0 -63 10 -109.5t33.5 -76.5t62.5 -45t96 -15q43 0 80.5 11t65 36t43 66t15.5 100v242h120v-207q0 -65 11 -112t36 -77t66 -44.5t101 -14.5q47 0 83 10.5t60 35.5t36.5 64.5t12.5 98.5v373h120v-358q0 -58 12 -100.5t38.5 -70t68.5 -40.5t103 -13v-131h-35
q-92 0 -153.5 30.5t-90.5 88.5h-6q-42 -65 -108 -92t-144 -27q-201 0 -271 137h-4q-47 -72 -115.5 -104.5t-149.5 -32.5q-97 0 -162.5 32t-97.5 101h-4q-43 -72 -109.5 -102.5t-143.5 -30.5h-116q-35 0 -52.5 19t-17.5 47q0 27 17.5 46t52.5 19h109q43 0 80.5 11t65.5 35.5
t44.5 64.5t16.5 98v246h120zM982 -327h-147v143h147v-143zM983 855h-147v143h147v-143z" />
    <glyph glyph-name="uni069A.fina" unicode="&#x69a;" horiz-adv-x="2394" 
d="M289 245q-13 -71 -18.5 -131t-5.5 -114q0 -95 19.5 -162.5t62 -110t109.5 -62.5t163 -20q97 0 169 23.5t119.5 76t71 135.5t23.5 202q0 83 -10.5 178.5t-30.5 208.5h119q5 -29 9 -53.5t7.5 -48t6.5 -47t6 -50.5q10 -79 64.5 -116t153.5 -37q42 0 78.5 11t63.5 36t42 66
t15 100v242h120v-207q0 -65 10.5 -112t35.5 -77t66 -44.5t102 -14.5q46 0 82 10.5t60.5 35.5t37 64.5t12.5 98.5v373h120v-358q0 -58 12 -100.5t38.5 -70t69 -40.5t102.5 -13v-131h-30q-92 0 -156 29.5t-94 89.5h-6q-42 -65 -107.5 -92t-143.5 -27q-201 0 -271 137h-4
q-43 -70 -111 -103.5t-149 -33.5q-72 0 -121 20.5t-78 53.5q-2 0 -2.5 -0.5t-2.5 -0.5q-3 -272 -128.5 -409.5t-380.5 -137.5q-122 0 -210 31t-144.5 90.5t-83.5 146.5t-27 200q0 60 8 125.5t23 139.5h114zM1670 -327h-147v143h147v-143zM1663 855h-147v143h147v-143z" />
    <glyph glyph-name="uni069B.init" unicode="&#x69b;" horiz-adv-x="1663" 
d="M436 572v-209q0 -63 10 -109.5t33.5 -76.5t62.5 -45t96 -15q43 0 80.5 11t65 36t43 66t15.5 100v242h120v-207q0 -65 11 -112t36 -77t66 -44.5t101 -14.5q47 0 83 10.5t60 35.5t36.5 64.5t12.5 98.5v412h120v-419q0 -95 -24.5 -158.5t-67.5 -102.5t-100 -55.5t-123 -16.5
q-201 0 -271 137h-4q-47 -72 -115.5 -104.5t-149.5 -32.5q-97 0 -162.5 32t-97.5 101h-4q-43 -72 -109.5 -102.5t-143.5 -30.5h-116q-35 0 -52.5 19t-17.5 47q0 27 17.5 46t52.5 19h109q43 0 80.5 11t65.5 35.5t44.5 64.5t16.5 98v246h120zM853 -327h-148v143h148v-143z
M1112 -327h-147v143h147v-143zM983 -550h-147v143h147v-143z" />
    <glyph glyph-name="uni069B.medi" unicode="&#x69b;" horiz-adv-x="1710" 
d="M436 572v-209q0 -63 10 -109.5t33.5 -76.5t62.5 -45t96 -15q43 0 80.5 11t65 36t43 66t15.5 100v242h120v-207q0 -65 11 -112t36 -77t66 -44.5t101 -14.5q47 0 83 10.5t60 35.5t36.5 64.5t12.5 98.5v373h120v-358q0 -58 12 -100.5t38.5 -70t68.5 -40.5t103 -13v-131h-35
q-92 0 -153.5 30.5t-90.5 88.5h-6q-42 -65 -108 -92t-144 -27q-201 0 -271 137h-4q-47 -72 -115.5 -104.5t-149.5 -32.5q-97 0 -162.5 32t-97.5 101h-4q-43 -72 -109.5 -102.5t-143.5 -30.5h-116q-35 0 -52.5 19t-17.5 47q0 27 17.5 46t52.5 19h109q43 0 80.5 11t65.5 35.5
t44.5 64.5t16.5 98v246h120zM853 -327h-148v143h148v-143zM1112 -327h-147v143h147v-143zM983 -550h-147v143h147v-143z" />
    <glyph glyph-name="uni069B.fina" unicode="&#x69b;" horiz-adv-x="2394" 
d="M289 245q-13 -71 -18.5 -131t-5.5 -114q0 -95 19.5 -162.5t62 -110t109.5 -62.5t163 -20q97 0 169 23.5t119.5 76t71 135.5t23.5 202q0 83 -10.5 178.5t-30.5 208.5h119q5 -29 9 -53.5t7.5 -48t6.5 -47t6 -50.5q10 -79 64.5 -116t153.5 -37q42 0 78.5 11t63.5 36t42 66
t15 100v242h120v-207q0 -65 10.5 -112t35.5 -77t66 -44.5t102 -14.5q46 0 82 10.5t60.5 35.5t37 64.5t12.5 98.5v373h120v-358q0 -58 12 -100.5t38.5 -70t69 -40.5t102.5 -13v-131h-30q-92 0 -156 29.5t-94 89.5h-6q-42 -65 -107.5 -92t-143.5 -27q-201 0 -271 137h-4
q-43 -70 -111 -103.5t-149 -33.5q-72 0 -121 20.5t-78 53.5q-2 0 -2.5 -0.5t-2.5 -0.5q-3 -272 -128.5 -409.5t-380.5 -137.5q-122 0 -210 31t-144.5 90.5t-83.5 146.5t-27 200q0 60 8 125.5t23 139.5h114zM1539 -327h-148v143h148v-143zM1798 -327h-147v143h147v-143z
M1669 -550h-147v143h147v-143z" />
    <glyph glyph-name="uni069C.init" unicode="&#x69c;" horiz-adv-x="1663" 
d="M436 572v-209q0 -63 10 -109.5t33.5 -76.5t62.5 -45t96 -15q43 0 80.5 11t65 36t43 66t15.5 100v242h120v-207q0 -65 11 -112t36 -77t66 -44.5t101 -14.5q47 0 83 10.5t60 35.5t36.5 64.5t12.5 98.5v412h120v-419q0 -95 -24.5 -158.5t-67.5 -102.5t-100 -55.5t-123 -16.5
q-201 0 -271 137h-4q-47 -72 -115.5 -104.5t-149.5 -32.5q-97 0 -162.5 32t-97.5 101h-4q-43 -72 -109.5 -102.5t-143.5 -30.5h-116q-35 0 -52.5 19t-17.5 47q0 27 17.5 46t52.5 19h109q43 0 80.5 11t65.5 35.5t44.5 64.5t16.5 98v246h120zM854 -327h-148v143h148v-143z
M1113 -327h-147v143h147v-143zM984 -550h-147v143h147v-143zM852 855h-147v143h147v-143zM1112 855h-147v143h147v-143zM982 1086h-147v143h147v-143z" />
    <glyph glyph-name="uni069C.medi" unicode="&#x69c;" horiz-adv-x="1710" 
d="M436 572v-209q0 -63 10 -109.5t33.5 -76.5t62.5 -45t96 -15q43 0 80.5 11t65 36t43 66t15.5 100v242h120v-207q0 -65 11 -112t36 -77t66 -44.5t101 -14.5q47 0 83 10.5t60 35.5t36.5 64.5t12.5 98.5v373h120v-358q0 -58 12 -100.5t38.5 -70t68.5 -40.5t103 -13v-131h-35
q-92 0 -153.5 30.5t-90.5 88.5h-6q-42 -65 -108 -92t-144 -27q-201 0 -271 137h-4q-47 -72 -115.5 -104.5t-149.5 -32.5q-97 0 -162.5 32t-97.5 101h-4q-43 -72 -109.5 -102.5t-143.5 -30.5h-116q-35 0 -52.5 19t-17.5 47q0 27 17.5 46t52.5 19h109q43 0 80.5 11t65.5 35.5
t44.5 64.5t16.5 98v246h120zM852 855h-147v143h147v-143zM1112 855h-147v143h147v-143zM982 1086h-147v143h147v-143zM854 -327h-148v143h148v-143zM1113 -327h-147v143h147v-143zM984 -550h-147v143h147v-143z" />
    <glyph glyph-name="uni069C.fina" unicode="&#x69c;" horiz-adv-x="2394" 
d="M289 245q-13 -71 -18.5 -131t-5.5 -114q0 -95 19.5 -162.5t62 -110t109.5 -62.5t163 -20q97 0 169 23.5t119.5 76t71 135.5t23.5 202q0 83 -10.5 178.5t-30.5 208.5h119q5 -29 9 -53.5t7.5 -48t6.5 -47t6 -50.5q10 -79 64.5 -116t153.5 -37q42 0 78.5 11t63.5 36t42 66
t15 100v242h120v-207q0 -65 10.5 -112t35.5 -77t66 -44.5t102 -14.5q46 0 82 10.5t60.5 35.5t37 64.5t12.5 98.5v373h120v-358q0 -58 12 -100.5t38.5 -70t69 -40.5t102.5 -13v-131h-30q-92 0 -156 29.5t-94 89.5h-6q-42 -65 -107.5 -92t-143.5 -27q-201 0 -271 137h-4
q-43 -70 -111 -103.5t-149 -33.5q-72 0 -121 20.5t-78 53.5q-2 0 -2.5 -0.5t-2.5 -0.5q-3 -272 -128.5 -409.5t-380.5 -137.5q-122 0 -210 31t-144.5 90.5t-83.5 146.5t-27 200q0 60 8 125.5t23 139.5h114zM1539 -327h-148v143h148v-143zM1798 -327h-147v143h147v-143z
M1669 -550h-147v143h147v-143zM1535 855h-147v143h147v-143zM1795 855h-147v143h147v-143zM1665 1086h-147v143h147v-143z" />
    <glyph glyph-name="uni069D.init" unicode="&#x69d;" horiz-adv-x="1950" 
d="M397 469q6 -30 10.5 -54.5t8 -48t7 -47.5t7.5 -51q9 -64 45.5 -104.5t113.5 -45.5q36 83 82 163t102 151t121 131.5t138 104t153.5 68t167.5 24.5q102 0 181.5 -32t134 -89t83 -136t28.5 -174q0 -111 -35 -179t-103 -105.5t-168.5 -50t-230.5 -12.5q-162 0 -286.5 0.5
t-215 2.5t-148 7t-84.5 14q-48 14 -79 39.5t-53 63.5h-4q-40 -66 -105.5 -94.5t-146.5 -28.5h-121q-35 0 -52.5 19t-17.5 47q0 27 17.5 46t52.5 19h114q45 0 81 10.5t61.5 28.5t39.5 42t14 52q0 48 -9 103t-22 116h118zM1285 114q98 0 169 7.5t116.5 30t67.5 62.5t22 103
q0 81 -24 139.5t-67 96.5t-102 56.5t-129 18.5q-105 0 -199.5 -40t-174.5 -109t-144 -162.5t-109 -200.5zM1061 -327h-147v143h147v-143zM1321 -327h-147v143h147v-143z" />
    <glyph glyph-name="uni069D.medi" unicode="&#x69d;" horiz-adv-x="1950" 
d="M397 469q6 -30 10.5 -54.5t8 -48t7 -47.5t7.5 -51q9 -64 45.5 -104.5t113.5 -45.5q36 83 82 163t102 151t121 131.5t138 104t153.5 68t167.5 24.5q102 0 181 -31.5t133.5 -87.5t83 -133.5t29.5 -170.5q1 -61 9.5 -103t28 -68t52 -37.5t80.5 -11.5v-131h-17
q-162 0 -212 127h-6q-33 -42 -78 -67.5t-104 -39.5t-131 -19t-159 -5q-162 0 -286.5 0.5t-215 2.5t-148 7t-84.5 14q-48 14 -79 39.5t-53 63.5h-4q-40 -66 -105.5 -94.5t-146.5 -28.5h-121q-35 0 -52.5 19t-17.5 47q0 27 17.5 46t52.5 19h115q45 0 81 10t61.5 28t39 42.5
t13.5 52.5q0 48 -9 103t-22 116h118zM1285 114q98 0 169 8t116.5 30t67.5 62t22 103q0 81 -24 139.5t-67 96.5t-102 56.5t-129 18.5q-105 0 -199.5 -40t-174.5 -109t-144 -162.5t-109 -200.5zM1061 -327h-147v143h147v-143zM1321 -327h-147v143h147v-143z" />
    <glyph glyph-name="uni069D.fina" unicode="&#x69d;" horiz-adv-x="2638" 
d="M299 245q-13 -71 -18.5 -131t-5.5 -114q0 -95 19.5 -162.5t62 -110t109.5 -62.5t163 -20q97 0 169 23.5t119.5 76t71 135.5t23.5 202q0 83 -10.5 181t-33.5 206h118q6 -30 10.5 -54.5t8 -48t7 -47.5t7.5 -51q9 -64 45 -104.5t113 -45.5q35 83 81.5 163t102.5 151
t121 131.5t138 104t153.5 68t167.5 24.5q102 0 181 -31.5t133.5 -88t83.5 -134t30 -169.5q0 -61 8.5 -103t28 -68t52 -37.5t80.5 -11.5v-131h-17q-161 0 -212 127h-6q-33 -42 -78 -67.5t-103.5 -39.5t-130.5 -19t-159 -5q-304 0 -475 2t-222 16q-35 9 -60 24.5t-42 35.5
l-5 -1q-3 -272 -129 -409.5t-383 -137.5q-122 0 -209 31t-143.5 90.5t-83 146.5t-26.5 200q0 60 8 125.5t23 139.5h114zM1973 114q99 0 169.5 7.5t116.5 30t67.5 62.5t21.5 103q0 81 -24 139.5t-66.5 96.5t-102 56.5t-129.5 18.5q-105 0 -199 -39.5t-174.5 -108.5
t-144.5 -162.5t-109 -201.5zM1755 -327h-147v143h147v-143zM2015 -327h-147v143h147v-143z" />
    <glyph glyph-name="uni069E.init" unicode="&#x69e;" horiz-adv-x="1950" 
d="M397 469q6 -30 10.5 -54.5t8 -48t7 -47.5t7.5 -51q9 -64 45.5 -104.5t113.5 -45.5q36 83 82 163t102 151t121 131.5t138 104t153.5 68t167.5 24.5q102 0 181.5 -32t134 -89t83 -136t28.5 -174q0 -111 -35 -179t-103 -105.5t-168.5 -50t-230.5 -12.5q-162 0 -286.5 0.5
t-215 2.5t-148 7t-84.5 14q-48 14 -79 39.5t-53 63.5h-4q-40 -66 -105.5 -94.5t-146.5 -28.5h-121q-35 0 -52.5 19t-17.5 47q0 27 17.5 46t52.5 19h114q45 0 81 10.5t61.5 28.5t39.5 42t14 52q0 48 -9 103t-22 116h118zM1285 114q98 0 169 7.5t116.5 30t67.5 62.5t22 103
q0 81 -24 139.5t-67 96.5t-102 56.5t-129 18.5q-105 0 -199.5 -40t-174.5 -109t-144 -162.5t-109 -200.5zM932 934h-147v143h147v-143zM1192 934h-147v143h147v-143zM1062 1165h-147v143h147v-143z" />
    <glyph glyph-name="uni069E.medi" unicode="&#x69e;" horiz-adv-x="1950" 
d="M397 469q6 -30 10.5 -54.5t8 -48t7 -47.5t7.5 -51q9 -64 45.5 -104.5t113.5 -45.5q36 83 82 163t102 151t121 131.5t138 104t153.5 68t167.5 24.5q102 0 181 -31.5t133.5 -87.5t83 -133.5t29.5 -170.5q1 -61 9.5 -103t28 -68t52 -37.5t80.5 -11.5v-131h-17
q-162 0 -212 127h-6q-33 -42 -78 -67.5t-104 -39.5t-131 -19t-159 -5q-162 0 -286.5 0.5t-215 2.5t-148 7t-84.5 14q-48 14 -79 39.5t-53 63.5h-4q-40 -66 -105.5 -94.5t-146.5 -28.5h-121q-35 0 -52.5 19t-17.5 47q0 27 17.5 46t52.5 19h115q45 0 81 10t61.5 28t39 42.5
t13.5 52.5q0 48 -9 103t-22 116h118zM1285 114q98 0 169 8t116.5 30t67.5 62t22 103q0 81 -24 139.5t-67 96.5t-102 56.5t-129 18.5q-105 0 -199.5 -40t-174.5 -109t-144 -162.5t-109 -200.5zM932 934h-147v143h147v-143zM1192 934h-147v143h147v-143zM1062 1165h-147v143
h147v-143z" />
    <glyph glyph-name="uni069E.fina" unicode="&#x69e;" horiz-adv-x="2638" 
d="M299 245q-13 -71 -18.5 -131t-5.5 -114q0 -95 19.5 -162.5t62 -110t109.5 -62.5t163 -20q97 0 169 23.5t119.5 76t71 135.5t23.5 202q0 83 -10.5 181t-33.5 206h118q6 -30 10.5 -54.5t8 -48t7 -47.5t7.5 -51q9 -64 45 -104.5t113 -45.5q35 83 81.5 163t102.5 151
t121 131.5t138 104t153.5 68t167.5 24.5q102 0 181 -31.5t133.5 -88t83.5 -134t30 -169.5q0 -61 8.5 -103t28 -68t52 -37.5t80.5 -11.5v-131h-17q-161 0 -212 127h-6q-33 -42 -78 -67.5t-103.5 -39.5t-130.5 -19t-159 -5q-304 0 -475 2t-222 16q-35 9 -60 24.5t-42 35.5
l-5 -1q-3 -272 -129 -409.5t-383 -137.5q-122 0 -209 31t-143.5 90.5t-83 146.5t-26.5 200q0 60 8 125.5t23 139.5h114zM1973 114q99 0 169.5 7.5t116.5 30t67.5 62.5t21.5 103q0 81 -24 139.5t-66.5 96.5t-102 56.5t-129.5 18.5q-105 0 -199 -39.5t-174.5 -108.5
t-144.5 -162.5t-109 -201.5zM1621 934h-147v143h147v-143zM1881 934h-147v143h147v-143zM1751 1165h-147v143h147v-143z" />
    <glyph glyph-name="uni069F.init" unicode="&#x69f;" horiz-adv-x="1624" 
d="M433 1516v-1098l3 -1q50 72 112.5 137t137 114t160.5 77.5t182 28.5q102 0 181.5 -33t134 -92t83 -140.5t28.5 -179.5q0 -111 -35 -178.5t-102.5 -105t-168 -50t-230.5 -12.5h-102t-142 0.5t-164 1t-168 1t-153.5 0.5h-121.5h-68q-35 0 -52.5 19t-17.5 47q0 27 17.5 46
t52.5 19h266q9 23 21.5 49.5t24.5 51.5v1298h121zM389 116q46 -1 112 -1.5t142.5 -0.5h158h158.5q98 0 169 8t116.5 30t67.5 62t22 103q0 84 -24 145.5t-67 101.5t-102 59t-129 19q-105 0 -199 -41.5t-173.5 -112.5t-143.5 -167t-108 -205zM866 934h-147v143h147v-143z
M1126 934h-147v143h147v-143zM996 1165h-147v143h147v-143z" />
    <glyph glyph-name="uni069F.medi" unicode="&#x69f;" horiz-adv-x="1625" 
d="M433 1516v-1098l3 -1q50 72 112.5 137t137 114t160.5 77.5t182 28.5q102 0 181 -32.5t133.5 -91t83 -138.5t29.5 -175q1 -61 9.5 -103t28 -68t52 -37.5t80.5 -11.5v-131h-17q-162 0 -212 127h-6q-33 -41 -78 -66.5t-103.5 -39.5t-130.5 -19t-159 -5q-100 0 -204 0.5
t-207.5 1t-204.5 1t-194 0.5h-109q-35 0 -52.5 19t-17.5 47q0 27 17.5 46t52.5 19h266q10 23 22 49l24 52v1298h121zM389 116q46 -1 112 -1.5t142.5 -0.5h158h158.5q98 0 169 8t116.5 30t67.5 62t22 103q0 84 -24 145.5t-67 101.5t-102 59t-129 19q-105 0 -199 -41.5
t-173.5 -113t-143.5 -167t-108 -204.5zM866 934h-147v143h147v-143zM1126 934h-147v143h147v-143zM996 1165h-147v143h147v-143z" />
    <glyph glyph-name="uni069F.fina" unicode="&#x69f;" horiz-adv-x="1663" 
d="M463 1516v-1098q1 0 1.5 -0.5t1.5 -0.5q49 72 112 137t137.5 114t160 77.5t181.5 28.5q102 0 182 -32.5t135 -90.5t84.5 -138.5t30.5 -175.5q0 -61 9.5 -103t30 -68t53.5 -37.5t81 -11.5v-131h-17q-81 0 -136 32t-81 95h-6q-33 -42 -78.5 -67.5t-105 -39.5t-132 -19
t-159.5 -5q-137 0 -244 0.5t-192 1.5t-150.5 2.5t-119 3.5t-98 5t-86.5 6l-32 135q22 -3 53 -5t66 -4t73.5 -3.5t77.5 -2.5q10 22 22 47l24 50v1298h121zM418 116q46 -1 112 -1.5t142.5 -0.5h158h158.5q99 0 170.5 8t118 30t68.5 62t22 103q0 84 -24.5 145.5t-68 101.5
t-103.5 59t-130 19q-105 0 -198.5 -41.5t-173.5 -113t-143.5 -167t-108.5 -204.5zM923 934h-147v143h147v-143zM1183 934h-147v143h147v-143zM1053 1165h-147v143h147v-143z" />
    <glyph glyph-name="uni06A0.init" unicode="&#x6a0;" horiz-adv-x="1197" 
d="M1026 162q-97 -47 -182.5 -80t-173.5 -54.5t-184.5 -31.5t-216.5 -10h-269q-35 0 -52.5 19t-17.5 47q0 27 17.5 46t52.5 19h360q0 2 0.5 3t0.5 3q-104 72 -151.5 162t-47.5 181q0 85 35 157.5t98 125.5t149.5 83.5t190.5 30.5q44 0 86.5 -4.5t90.5 -13.5v-134
q-46 8 -90.5 14t-103.5 6q-68 0 -128.5 -17t-105.5 -51t-71.5 -84.5t-26.5 -117.5q0 -93 64.5 -179t194.5 -145q115 20 230.5 59.5t250.5 104.5v-139zM464 1031h-147v143h147v-143zM724 1031h-147v143h147v-143zM594 1262h-147v143h147v-143z" />
    <glyph glyph-name="uni06A0.medi" unicode="&#x6a0;" horiz-adv-x="1137" 
d="M171 721q114 23 232.5 39.5t237.5 16.5q66 0 125.5 -9t104 -30.5t71 -57t26.5 -87.5q0 -38 -15 -87.5t-45.5 -103.5t-76 -109.5t-106.5 -106.5q70 -32 175.5 -50.5t236.5 -18.5v-131h-69q-257 0 -457 118q-101 -56 -226 -87t-287 -31h-98q-35 0 -52.5 19t-17.5 47
q0 27 17.5 46t52.5 19h95q133 0 232.5 17.5t172.5 48.5q-40 34 -85.5 82.5t-90 103.5t-84.5 113t-69 112v127zM618 245q51 35 93.5 79.5t72.5 88.5t46.5 84t16.5 67q0 46 -57 68t-168 22q-84 0 -170 -9.5t-158 -22.5v-11q30 -50 71 -104t85.5 -104t88.5 -91.5t79 -66.5z
M530 934h-147v143h147v-143zM790 934h-147v143h147v-143zM660 1165h-147v143h147v-143z" />
    <glyph glyph-name="uni06A0.fina" unicode="&#x6a0;" horiz-adv-x="1137" 
d="M162 804q107 23 230 39.5t254 16.5q65 0 123.5 -9.5t102.5 -31t70 -56.5t26 -85q0 -36 -15.5 -81.5t-55 -95.5t-106.5 -103.5t-169 -106.5q51 -45 103 -78t109 -54t121.5 -31.5t140.5 -10.5h41v-131h-81q-77 0 -146 13t-136 42.5t-134 77.5t-139 118
q-143 -58 -208.5 -136.5t-65.5 -175.5q0 -59 24.5 -114t76.5 -97t132.5 -67t192.5 -25q106 0 197.5 18t175.5 51v-122q-91 -36 -181 -54t-194 -18q-141 0 -244.5 33t-171.5 89t-101 131.5t-33 160.5q0 60 18 116t57 107.5t100.5 98t148.5 88.5q-35 38 -72 85t-72.5 95.5
t-66 95.5t-52.5 85v122zM541 370q88 43 147 84t94.5 76.5t50 65.5t14.5 52q0 43 -56.5 66t-163.5 23q-88 0 -179 -9t-163 -23v-12q25 -40 57 -84.5t65.5 -88t68 -82.5t65.5 -68zM513 1031h-147v143h147v-143zM773 1031h-147v143h147v-143zM643 1262h-147v143h147v-143z" />
    <glyph glyph-name="uni06A1.init" unicode="&#x6a1;" horiz-adv-x="936" 
d="M401 127q-123 55 -176.5 127.5t-53.5 162.5q0 65 23.5 133t64 123.5t93.5 90.5t112 35q62 0 120 -39t109 -117q41 -62 69.5 -137.5t28.5 -157.5q0 -111 -45 -181.5t-123.5 -110.5t-184.5 -55t-228 -15h-210q-35 0 -52.5 19t-17.5 47q0 27 17.5 46t52.5 19h171
q54 0 115.5 0.5t112.5 2.5zM670 344q0 32 -8.5 68t-24 71.5t-36 68.5t-44.5 58t-50 40t-52 15q-29 0 -58.5 -21.5t-53.5 -56t-39 -76.5t-15 -84q0 -32 14 -64t46 -65t85 -67.5t131 -71.5q48 24 76.5 71.5t28.5 113.5z" />
    <glyph glyph-name="uni06A1.medi" unicode="&#x6a1;" horiz-adv-x="936" 
d="M406 126q-125 52 -180 126t-55 165q0 65 23.5 133t64 123.5t93.5 90.5t112 35q62 0 120 -39t109 -116q42 -62 70 -138.5t28 -159.5q0 -68 -21.5 -122.5t-66.5 -95.5q22 -4 44.5 -6t50 -3t61 -1.5t77.5 -0.5v-131h-27q-89 0 -175.5 12.5t-156.5 41.5q-39 -17 -85.5 -27.5
t-97.5 -16.5t-105 -8t-109 -2h-180q-35 0 -52.5 19t-17.5 47q0 27 17.5 46t52.5 19h196q61 0 115.5 0.5t92.5 1.5zM670 344q0 32 -8.5 68t-24 71.5t-36 68.5t-44.5 58t-50 40t-52 15q-29 0 -58.5 -21.5t-53.5 -56t-39 -76.5t-15 -84q0 -32 14 -64.5t47 -66t86.5 -68
t131.5 -70.5q51 26 76.5 73.5t25.5 112.5z" />
    <glyph glyph-name="uni06A1.fina" unicode="&#x6a1;" horiz-adv-x="2027" 
d="M1211 417q0 65 23.5 133t64 123.5t93.5 90.5t112 35q62 0 120 -39.5t109 -115.5q42 -63 70 -138.5t28 -159.5q0 -136 -89 -218q54 -8 120 -9.5t165 -1.5v-131h-66q-92 0 -182 12t-162 41q-42 -19 -95 -31t-114 -18.5t-128.5 -9t-136.5 -2.5h-195q-140 0 -245.5 4.5
t-184 16t-134 31.5t-94.5 52q-61 48 -90 118.5t-29 161.5q0 54 8.5 108.5t20.5 102.5h118q-11 -40 -18.5 -88t-7.5 -101q0 -69 20.5 -119t65.5 -81q31 -21 78 -35.5t124 -23t192 -12t283 -3.5q84 0 146 0.5t107.5 1.5t78 2.5t58.5 3.5q1 2 1 3t1 3q-127 55 -181.5 129
t-54.5 164zM1710 344q0 32 -8.5 68t-24 71.5t-36 68.5t-44.5 58t-50 40t-52 15q-29 0 -58.5 -21.5t-53.5 -56t-39 -76.5t-15 -84q0 -32 13.5 -64.5t46 -65.5t85.5 -67.5t131 -70.5q53 26 79 73t26 112z" />
    <glyph glyph-name="uni06A2.init" unicode="&#x6a2;" horiz-adv-x="936" 
d="M401 127q-123 55 -176.5 127.5t-53.5 162.5q0 65 23.5 133t64 123.5t93.5 90.5t112 35q62 0 120 -39t109 -117q41 -62 69.5 -137.5t28.5 -157.5q0 -111 -45 -181.5t-123.5 -110.5t-184.5 -55t-228 -15h-210q-35 0 -52.5 19t-17.5 47q0 27 17.5 46t52.5 19h171
q54 0 115.5 0.5t112.5 2.5zM670 344q0 32 -8.5 68t-24 71.5t-36 68.5t-44.5 58t-50 40t-52 15q-29 0 -58.5 -21.5t-53.5 -56t-39 -76.5t-15 -84q0 -32 14 -64t46 -65t85 -67.5t131 -71.5q48 24 76.5 71.5t28.5 113.5zM595 -327h-147v143h147v-143z" />
    <glyph glyph-name="uni06A2.medi" unicode="&#x6a2;" horiz-adv-x="936" 
d="M406 126q-125 52 -180 126t-55 165q0 65 23.5 133t64 123.5t93.5 90.5t112 35q62 0 120 -39t109 -116q42 -62 70 -138.5t28 -159.5q0 -68 -21.5 -122.5t-66.5 -95.5q22 -4 44.5 -6t50 -3t61 -1.5t77.5 -0.5v-131h-27q-89 0 -175.5 12.5t-156.5 41.5q-39 -17 -85.5 -27.5
t-97.5 -16.5t-105 -8t-109 -2h-180q-35 0 -52.5 19t-17.5 47q0 27 17.5 46t52.5 19h196q61 0 115.5 0.5t92.5 1.5zM670 344q0 32 -8.5 68t-24 71.5t-36 68.5t-44.5 58t-50 40t-52 15q-29 0 -58.5 -21.5t-53.5 -56t-39 -76.5t-15 -84q0 -32 14 -64.5t47 -66t86.5 -68
t131.5 -70.5q51 26 76.5 73.5t25.5 112.5zM595 -327h-147v143h147v-143z" />
    <glyph glyph-name="uni06A2.fina" unicode="&#x6a2;" horiz-adv-x="2027" 
d="M1211 417q0 65 23.5 133t64 123.5t93.5 90.5t112 35q62 0 120 -39.5t109 -115.5q42 -63 70 -138.5t28 -159.5q0 -136 -89 -218q54 -8 120 -9.5t165 -1.5v-131h-66q-92 0 -182 12t-162 41q-42 -19 -95 -31t-114 -18.5t-128.5 -9t-136.5 -2.5h-195q-140 0 -245.5 4.5
t-184 16t-134 31.5t-94.5 52q-61 48 -90 118.5t-29 161.5q0 54 8.5 108.5t20.5 102.5h118q-11 -40 -18.5 -88t-7.5 -101q0 -69 20.5 -119t65.5 -81q31 -21 78 -35.5t124 -23t192 -12t283 -3.5q84 0 146 0.5t107.5 1.5t78 2.5t58.5 3.5q1 2 1 3t1 3q-127 55 -181.5 129
t-54.5 164zM1710 344q0 32 -8.5 68t-24 71.5t-36 68.5t-44.5 58t-50 40t-52 15q-29 0 -58.5 -21.5t-53.5 -56t-39 -76.5t-15 -84q0 -32 13.5 -64.5t46 -65.5t85.5 -67.5t131 -70.5q53 26 79 73t26 112zM1630 -327h-147v143h147v-143z" />
    <glyph glyph-name="uni06A3.init" unicode="&#x6a3;" horiz-adv-x="936" 
d="M401 127q-123 55 -176.5 127.5t-53.5 162.5q0 65 23.5 133t64 123.5t93.5 90.5t112 35q62 0 120 -39t109 -117q41 -62 69.5 -137.5t28.5 -157.5q0 -111 -45 -181.5t-123.5 -110.5t-184.5 -55t-228 -15h-210q-35 0 -52.5 19t-17.5 47q0 27 17.5 46t52.5 19h171
q54 0 115.5 0.5t112.5 2.5zM670 344q0 32 -8.5 68t-24 71.5t-36 68.5t-44.5 58t-50 40t-52 15q-29 0 -58.5 -21.5t-53.5 -56t-39 -76.5t-15 -84q0 -32 14 -64t46 -65t85 -67.5t131 -71.5q48 24 76.5 71.5t28.5 113.5zM595 -327h-147v143h147v-143zM513 1031h-147v143h147
v-143z" />
    <glyph glyph-name="uni06A3.medi" unicode="&#x6a3;" horiz-adv-x="936" 
d="M406 126q-125 52 -180 126t-55 165q0 65 23.5 133t64 123.5t93.5 90.5t112 35q62 0 120 -39t109 -116q42 -62 70 -138.5t28 -159.5q0 -68 -21.5 -122.5t-66.5 -95.5q22 -4 44.5 -6t50 -3t61 -1.5t77.5 -0.5v-131h-27q-89 0 -175.5 12.5t-156.5 41.5q-39 -17 -85.5 -27.5
t-97.5 -16.5t-105 -8t-109 -2h-180q-35 0 -52.5 19t-17.5 47q0 27 17.5 46t52.5 19h196q61 0 115.5 0.5t92.5 1.5zM670 344q0 32 -8.5 68t-24 71.5t-36 68.5t-44.5 58t-50 40t-52 15q-29 0 -58.5 -21.5t-53.5 -56t-39 -76.5t-15 -84q0 -32 14 -64.5t47 -66t86.5 -68
t131.5 -70.5q51 26 76.5 73.5t25.5 112.5zM595 -327h-147v143h147v-143zM513 1031h-147v143h147v-143z" />
    <glyph glyph-name="uni06A3.fina" unicode="&#x6a3;" horiz-adv-x="2027" 
d="M1211 417q0 65 23.5 133t64 123.5t93.5 90.5t112 35q62 0 120 -39.5t109 -115.5q42 -63 70 -138.5t28 -159.5q0 -136 -89 -218q54 -8 120 -9.5t165 -1.5v-131h-66q-92 0 -182 12t-162 41q-42 -19 -95 -31t-114 -18.5t-128.5 -9t-136.5 -2.5h-195q-140 0 -245.5 4.5
t-184 16t-134 31.5t-94.5 52q-61 48 -90 118.5t-29 161.5q0 54 8.5 108.5t20.5 102.5h118q-11 -40 -18.5 -88t-7.5 -101q0 -69 20.5 -119t65.5 -81q31 -21 78 -35.5t124 -23t192 -12t283 -3.5q84 0 146 0.5t107.5 1.5t78 2.5t58.5 3.5q1 2 1 3t1 3q-127 55 -181.5 129
t-54.5 164zM1710 344q0 32 -8.5 68t-24 71.5t-36 68.5t-44.5 58t-50 40t-52 15q-29 0 -58.5 -21.5t-53.5 -56t-39 -76.5t-15 -84q0 -32 13.5 -64.5t46 -65.5t85.5 -67.5t131 -70.5q53 26 79 73t26 112zM1571 1031h-147v143h147v-143zM1062 -327h-147v143h147v-143z" />
    <glyph glyph-name="uni06A4" unicode="&#x6a4;" horiz-adv-x="1988" arabic-form="isolated" 
d="M318 573q-11 -40 -18.5 -88t-7.5 -101q0 -69 20.5 -119t65.5 -81q31 -21 78 -35.5t124 -23t192 -12t283 -3.5q84 0 145.5 0.5t107 1t78 2t58.5 3.5q1 2 1 3t1 3q-123 55 -176.5 127.5t-53.5 162.5q0 65 23.5 133t64 123.5t93.5 90.5t112 35q125 0 230 -155
q42 -62 67 -138.5t25 -157.5q0 -105 -42 -175.5t-120.5 -112.5t-191 -60t-253.5 -18h-276q-140 0 -245.5 4.5t-184 16t-134 31.5t-94.5 52q-61 48 -90 118.5t-29 161.5q0 54 8.5 108.5t20.5 102.5h118zM1710 340q0 48 -18 104t-48 104t-67.5 80.5t-76.5 32.5
q-30 0 -59.5 -21.5t-53 -56t-38.5 -76.5t-15 -84q0 -39 13 -72t44.5 -64t83.5 -63t130 -69q48 24 76.5 71.5t28.5 113.5zM1442 1031h-147v143h147v-143zM1702 1031h-147v143h147v-143zM1572 1262h-147v143h147v-143z" />
    <glyph glyph-name="uni06A5.init" unicode="&#x6a5;" horiz-adv-x="936" 
d="M401 127q-123 55 -176.5 127.5t-53.5 162.5q0 65 23.5 133t64 123.5t93.5 90.5t112 35q62 0 120 -39t109 -117q41 -62 69.5 -137.5t28.5 -157.5q0 -111 -45 -181.5t-123.5 -110.5t-184.5 -55t-228 -15h-210q-35 0 -52.5 19t-17.5 47q0 27 17.5 46t52.5 19h171
q54 0 115.5 0.5t112.5 2.5zM670 344q0 32 -8.5 68t-24 71.5t-36 68.5t-44.5 58t-50 40t-52 15q-29 0 -58.5 -21.5t-53.5 -56t-39 -76.5t-15 -84q0 -32 14 -64t46 -65t85 -67.5t131 -71.5q48 24 76.5 71.5t28.5 113.5zM458 -327h-148v143h148v-143zM717 -327h-147v143h147
v-143zM588 -550h-147v143h147v-143z" />
    <glyph glyph-name="uni06A5.medi" unicode="&#x6a5;" horiz-adv-x="936" 
d="M406 126q-125 52 -180 126t-55 165q0 65 23.5 133t64 123.5t93.5 90.5t112 35q62 0 120 -39t109 -116q42 -62 70 -138.5t28 -159.5q0 -68 -21.5 -122.5t-66.5 -95.5q22 -4 44.5 -6t50 -3t61 -1.5t77.5 -0.5v-131h-27q-89 0 -175.5 12.5t-156.5 41.5q-39 -17 -85.5 -27.5
t-97.5 -16.5t-105 -8t-109 -2h-180q-35 0 -52.5 19t-17.5 47q0 27 17.5 46t52.5 19h196q61 0 115.5 0.5t92.5 1.5zM670 344q0 32 -8.5 68t-24 71.5t-36 68.5t-44.5 58t-50 40t-52 15q-29 0 -58.5 -21.5t-53.5 -56t-39 -76.5t-15 -84q0 -32 14 -64.5t47 -66t86.5 -68
t131.5 -70.5q51 26 76.5 73.5t25.5 112.5zM458 -327h-148v143h148v-143zM717 -327h-147v143h147v-143zM588 -550h-147v143h147v-143z" />
    <glyph glyph-name="uni06A5.fina" unicode="&#x6a5;" horiz-adv-x="2027" 
d="M1211 417q0 65 23.5 133t64 123.5t93.5 90.5t112 35q62 0 120 -39.5t109 -115.5q42 -63 70 -138.5t28 -159.5q0 -136 -89 -218q54 -8 120 -9.5t165 -1.5v-131h-66q-92 0 -182 12t-162 41q-42 -19 -95 -31t-114 -18.5t-128.5 -9t-136.5 -2.5h-195q-140 0 -245.5 4.5
t-184 16t-134 31.5t-94.5 52q-61 48 -90 118.5t-29 161.5q0 54 8.5 108.5t20.5 102.5h118q-11 -40 -18.5 -88t-7.5 -101q0 -69 20.5 -119t65.5 -81q31 -21 78 -35.5t124 -23t192 -12t283 -3.5q84 0 146 0.5t107.5 1.5t78 2.5t58.5 3.5q1 2 1 3t1 3q-127 55 -181.5 129
t-54.5 164zM1710 344q0 32 -8.5 68t-24 71.5t-36 68.5t-44.5 58t-50 40t-52 15q-29 0 -58.5 -21.5t-53.5 -56t-39 -76.5t-15 -84q0 -32 13.5 -64.5t46 -65.5t85.5 -67.5t131 -70.5q53 26 79 73t26 112zM1516 -327h-148v143h148v-143zM1775 -327h-147v143h147v-143z
M1646 -550h-147v143h147v-143z" />
    <glyph glyph-name="uni06A6" unicode="&#x6a6;" horiz-adv-x="1988" arabic-form="isolated" 
d="M318 573q-11 -40 -18.5 -88t-7.5 -101q0 -69 20.5 -119t65.5 -81q31 -21 78 -35.5t124 -23t192 -12t283 -3.5q84 0 145.5 0.5t107 1t78 2t58.5 3.5q1 2 1 3t1 3q-123 55 -176.5 127.5t-53.5 162.5q0 65 23.5 133t64 123.5t93.5 90.5t112 35q125 0 230 -155
q42 -62 67 -138.5t25 -157.5q0 -105 -42 -175.5t-120.5 -112.5t-191 -60t-253.5 -18h-276q-140 0 -245.5 4.5t-184 16t-134 31.5t-94.5 52q-61 48 -90 118.5t-29 161.5q0 54 8.5 108.5t20.5 102.5h118zM1710 340q0 48 -18 104t-48 104t-67.5 80.5t-76.5 32.5
q-30 0 -59.5 -21.5t-53 -56t-38.5 -76.5t-15 -84q0 -39 13 -72t44.5 -64t83.5 -63t130 -69q48 24 76.5 71.5t28.5 113.5zM1442 1031h-147v143h147v-143zM1702 1031h-147v143h147v-143zM1442 1272h-147v143h147v-143zM1702 1272h-147v143h147v-143z" />
    <glyph glyph-name="uni06A7.init" unicode="&#x6a7;" horiz-adv-x="936" 
d="M401 127q-123 55 -176.5 127.5t-53.5 162.5q0 65 23.5 133t64 123.5t93.5 90.5t112 35q62 0 120 -39t109 -117q41 -62 69.5 -137.5t28.5 -157.5q0 -111 -45 -181.5t-123.5 -110.5t-184.5 -55t-228 -15h-210q-35 0 -52.5 19t-17.5 47q0 27 17.5 46t52.5 19h171
q54 0 115.5 0.5t112.5 2.5zM670 344q0 32 -8.5 68t-24 71.5t-36 68.5t-44.5 58t-50 40t-52 15q-29 0 -58.5 -21.5t-53.5 -56t-39 -76.5t-15 -84q0 -32 14 -64t46 -65t85 -67.5t131 -71.5q48 24 76.5 71.5t28.5 113.5zM513 1031h-147v143h147v-143z" />
    <glyph glyph-name="uni06A7.medi" unicode="&#x6a7;" horiz-adv-x="936" 
d="M406 126q-125 52 -180 126t-55 165q0 65 23.5 133t64 123.5t93.5 90.5t112 35q62 0 120 -39t109 -116q42 -62 70 -138.5t28 -159.5q0 -68 -21.5 -122.5t-66.5 -95.5q22 -4 44.5 -6t50 -3t61 -1.5t77.5 -0.5v-131h-27q-89 0 -175.5 12.5t-156.5 41.5q-39 -17 -85.5 -27.5
t-97.5 -16.5t-105 -8t-109 -2h-180q-35 0 -52.5 19t-17.5 47q0 27 17.5 46t52.5 19h196q61 0 115.5 0.5t92.5 1.5zM670 344q0 32 -8.5 68t-24 71.5t-36 68.5t-44.5 58t-50 40t-52 15q-29 0 -58.5 -21.5t-53.5 -56t-39 -76.5t-15 -84q0 -32 14 -64.5t47 -66t86.5 -68
t131.5 -70.5q51 26 76.5 73.5t25.5 112.5zM513 1031h-147v143h147v-143z" />
    <glyph glyph-name="uni06A7.fina" unicode="&#x6a7;" horiz-adv-x="1462" 
d="M1051 -14q-89 0 -157 22.5t-115 62.5t-71 95t-24 120q0 63 23.5 128.5t64.5 119t96 87.5t117 34q76 0 134.5 -45t107.5 -129q21 -37 37.5 -80.5t27.5 -91t17.5 -96.5t8.5 -96h144v-131h-144q-11 -127 -50 -217t-111.5 -147t-182.5 -83.5t-264 -26.5q-143 0 -245 30
t-167.5 89t-96 146t-30.5 201q0 63 7.5 133t21.5 148h115q-11 -75 -17 -137.5t-6 -116.5q0 -96 23 -164t74 -112t133 -64.5t201 -20.5q136 0 224.5 21t141.5 63.5t77 106.5t30 151h-145zM1197 117q-2 44 -10 97t-25 101q-15 40 -34.5 77.5t-43 66t-50 45.5t-55.5 17
q-33 0 -64 -19t-54.5 -50t-38 -71.5t-14.5 -82.5q0 -86 61 -133.5t188 -47.5h140zM1036 855h-147v143h147v-143z" />
    <glyph glyph-name="uni06A8.init" unicode="&#x6a8;" horiz-adv-x="936" 
d="M401 127q-123 55 -176.5 127.5t-53.5 162.5q0 65 23.5 133t64 123.5t93.5 90.5t112 35q62 0 120 -39t109 -117q41 -62 69.5 -137.5t28.5 -157.5q0 -111 -45 -181.5t-123.5 -110.5t-184.5 -55t-228 -15h-210q-35 0 -52.5 19t-17.5 47q0 27 17.5 46t52.5 19h171
q54 0 115.5 0.5t112.5 2.5zM670 344q0 32 -8.5 68t-24 71.5t-36 68.5t-44.5 58t-50 40t-52 15q-29 0 -58.5 -21.5t-53.5 -56t-39 -76.5t-15 -84q0 -32 14 -64t46 -65t85 -67.5t131 -71.5q48 24 76.5 71.5t28.5 113.5zM370 1031h-147v143h147v-143zM630 1031h-147v143h147
v-143zM500 1262h-147v143h147v-143z" />
    <glyph glyph-name="uni06A8.medi" unicode="&#x6a8;" horiz-adv-x="936" 
d="M406 126q-125 52 -180 126t-55 165q0 65 23.5 133t64 123.5t93.5 90.5t112 35q62 0 120 -39t109 -116q42 -62 70 -138.5t28 -159.5q0 -68 -21.5 -122.5t-66.5 -95.5q22 -4 44.5 -6t50 -3t61 -1.5t77.5 -0.5v-131h-27q-89 0 -175.5 12.5t-156.5 41.5q-39 -17 -85.5 -27.5
t-97.5 -16.5t-105 -8t-109 -2h-180q-35 0 -52.5 19t-17.5 47q0 27 17.5 46t52.5 19h196q61 0 115.5 0.5t92.5 1.5zM670 344q0 32 -8.5 68t-24 71.5t-36 68.5t-44.5 58t-50 40t-52 15q-29 0 -58.5 -21.5t-53.5 -56t-39 -76.5t-15 -84q0 -32 14 -64.5t47 -66t86.5 -68
t131.5 -70.5q51 26 76.5 73.5t25.5 112.5zM370 1031h-147v143h147v-143zM630 1031h-147v143h147v-143zM500 1262h-147v143h147v-143z" />
    <glyph glyph-name="uni06A8.fina" unicode="&#x6a8;" horiz-adv-x="1462" 
d="M1051 -14q-89 0 -157 22.5t-115 62.5t-71 95t-24 120q0 63 23.5 128.5t64.5 119t96 87.5t117 34q76 0 134.5 -45t107.5 -129q21 -37 37.5 -80.5t27.5 -91t17.5 -96.5t8.5 -96h144v-131h-144q-11 -127 -50 -217t-111.5 -147t-182.5 -83.5t-264 -26.5q-143 0 -245 30
t-167.5 89t-96 146t-30.5 201q0 63 7.5 133t21.5 148h115q-11 -75 -17 -137.5t-6 -116.5q0 -96 23 -164t74 -112t133 -64.5t201 -20.5q136 0 224.5 21t141.5 63.5t77 106.5t30 151h-145zM1197 117q-2 44 -10 97t-25 101q-15 40 -34.5 77.5t-43 66t-50 45.5t-55.5 17
q-33 0 -64 -19t-54.5 -50t-38 -71.5t-14.5 -82.5q0 -86 61 -133.5t188 -47.5h140zM895 855h-147v143h147v-143zM1155 855h-147v143h147v-143zM1025 1086h-147v143h147v-143z" />
    <glyph glyph-name="uni06A9" unicode="&#x6a9;" horiz-adv-x="1826" arabic-form="isolated" 
d="M318 573q-11 -40 -18.5 -88t-7.5 -101q0 -69 20.5 -118.5t65.5 -81.5q27 -19 69 -33t108.5 -23t161.5 -13.5t229 -4.5q155 0 256 6t164 26q73 23 107 66t34 110q0 68 -37 133t-115.5 132.5t-202 139t-297.5 153.5v117l855 546v-141l-728 -455q177 -86 300.5 -163
t200 -152t111 -149.5t34.5 -155.5q0 -43 -10.5 -87.5t-36 -84.5t-67 -73t-104.5 -54q-42 -14 -91.5 -23t-109.5 -14t-133 -7t-163 -2q-130 0 -229 4.5t-174 16.5t-128.5 32t-91.5 51q-61 48 -90 118.5t-29 161.5q0 54 8.5 108.5t20.5 102.5h118z" />
    <glyph glyph-name="uni06AA.init" unicode="&#x6aa;" horiz-adv-x="2053" 
d="M0 -14q-32 0 -48.5 19t-16.5 47q0 26 16.5 45.5t48.5 19.5h68q54 0 145 -1t209 -2t257.5 -2t290.5 -1q118 0 232.5 1t218.5 3.5t193.5 6t155.5 8.5q6 19 10 36.5t4 40.5q0 34 -15.5 62t-44 48.5t-69.5 32t-92 11.5h-1103q-66 0 -119.5 6.5t-91 23.5t-58 45.5t-20.5 72.5
q0 72 47.5 152t140.5 153t230 130t316 81v-131q-145 -20 -259.5 -62t-194 -92.5t-122 -101.5t-42.5 -89q0 -18 11 -29.5t39.5 -18t77.5 -8.5t126 -2h1020q82 0 146 -20.5t107.5 -56.5t66 -84.5t22.5 -103.5q0 -56 -23.5 -116.5t-74.5 -108.5q-50 -4 -142 -8t-210 -7.5
t-253.5 -5.5t-270.5 -2q-76 0 -167.5 0.5t-185.5 1.5t-183.5 2t-161.5 2t-120.5 1.5t-59.5 0.5h-51z" />
    <glyph glyph-name="uni06AA.medi" unicode="&#x6aa;" horiz-adv-x="2052" 
d="M0 -14q-32 0 -48.5 19t-16.5 47q0 26 16.5 45.5t48.5 19.5h68q53 0 143 -1t207 -2t255 -2t287 -1q118 0 234.5 1t222 3.5t196.5 6t157 8.5q6 19 10 36.5t4 40.5q0 34 -15.5 62t-44 48.5t-69.5 32t-92 11.5h-1103q-66 0 -119.5 6.5t-91 23.5t-58 45.5t-20.5 72.5
q0 72 47.5 152t140 153t229.5 130t316 81v-131q-145 -20 -259.5 -62t-194 -92.5t-121.5 -101.5t-42 -89q0 -18 11.5 -29.5t40.5 -18t79 -8.5t127 -2h1016q82 0 146 -20.5t107.5 -56.5t66 -84.5t22.5 -103.5q0 -47 -17 -100q32 -5 73 -7t93 -2v-131h-22q-57 0 -101 17t-73 56
h-3q-10 -17 -22 -31t-26 -27q-33 -2 -86 -5t-121.5 -5.5t-149 -5t-168 -4t-179.5 -2.5t-182 -1q-75 0 -166 0.5t-183.5 1.5t-181 2t-159.5 2t-119 1.5t-59 0.5h-51z" />
    <glyph glyph-name="uni06AA.fina" unicode="&#x6aa;" horiz-adv-x="2224" 
d="M272.5 122q118.5 -4 242 -6t246.5 -2.5t237 -0.5h170t173.5 1t169.5 2t157.5 3t138.5 4.5t112 6.5q7 19 10.5 36.5t3.5 40.5q0 34 -15.5 62t-44 48.5t-69 32t-91.5 11.5h-1101q-66 0 -119.5 6.5t-91 23.5t-58 45.5t-20.5 72.5q0 72 47.5 152t140 153t229.5 130t316 81
v-131q-145 -20 -259.5 -62t-194 -92.5t-121.5 -101.5t-42 -89q0 -18 11.5 -29.5t40.5 -18t78.5 -8.5t126.5 -2h1014q82 0 146 -20.5t107.5 -56.5t66 -84.5t22.5 -103.5q0 -24 -4 -49t-13 -51q37 -5 84.5 -7t104.5 -2v-131h-47q-52 0 -97 17t-75 56h-3q-19 -33 -48 -58
q-35 -3 -95.5 -5.5t-139.5 -4.5t-172.5 -3.5t-193 -3t-202 -2t-199.5 -0.5q-287 0 -503 3t-366 16l-32 131q103 -6 221.5 -10z" />
    <glyph glyph-name="uni06AB.init" unicode="&#x6ab;" horiz-adv-x="975" 
d="M0 -14q-30 0 -45 19t-15 46q0 28 15 47t45 19h289q109 0 180 13.5t112.5 39t58 63t16.5 84.5q0 68 -37.5 133t-117.5 132t-204 139t-297 154v117l855 547v-141l-728 -457q180 -84 304 -161t201 -152t111 -150t34 -156q0 -63 -21 -123t-74.5 -107.5t-145 -76.5t-233.5 -29
h-303zM563 1270q32 0 61 -12.5t50.5 -34t34.5 -51.5t13 -64q0 -32 -13 -61t-34.5 -51t-50.5 -34.5t-61 -12.5q-35 0 -64.5 12.5t-51 34.5t-34 50.5t-12.5 61.5q0 34 12 64t34 51.5t51.5 34t64.5 12.5zM563 1024q35 0 59.5 24.5t24.5 59.5q0 37 -24.5 62t-59.5 25
q-37 0 -62 -25t-25 -62q0 -35 25 -59.5t62 -24.5z" />
    <glyph glyph-name="uni06AB.medi" unicode="&#x6ab;" horiz-adv-x="1026" 
d="M-44.5 5q-15.5 19 -15.5 47q0 24 14.5 44.5t45.5 20.5h289q102 0 172.5 12.5t113.5 38t62 62.5t19 87q0 68 -37.5 133t-117.5 132t-204 139t-297 154v117l855 547v-141l-728 -457q131 -62 227.5 -116t166 -104t115 -96t74.5 -92t44.5 -93t24.5 -98q8 -45 22 -85.5
t41 -71.5t71.5 -49.5t112.5 -18.5v-131h-35q-89 0 -157.5 39.5t-104.5 123.5h-4q-23 -37 -59.5 -67t-88.5 -51.5t-120 -33t-154 -11.5h-303q-29 0 -44.5 19zM563 1270q32 0 61 -12.5t50.5 -34t34.5 -51.5t13 -64q0 -32 -13 -61t-34.5 -51t-50.5 -34.5t-61 -12.5
q-35 0 -64.5 12.5t-51 34.5t-34 50.5t-12.5 61.5q0 34 12 64t34 51.5t51.5 34t64.5 12.5zM563 1024q35 0 59.5 24.5t24.5 59.5q0 37 -24.5 62t-59.5 25q-37 0 -62 -25t-25 -62q0 -35 25 -59.5t62 -24.5z" />
    <glyph glyph-name="uni06AB.fina" unicode="&#x6ab;" horiz-adv-x="1881" 
d="M1366 142q73 23 107 66t34 109q0 68 -37 133t-116 132.5t-202.5 140t-296.5 153.5v117l855 546v-141l-728 -455q131 -62 227.5 -116.5t165.5 -104t114 -96.5t73 -93t43.5 -93t24.5 -98q8 -45 22 -85.5t42 -71.5t73 -49.5t114 -18.5v-131h-38q-89 0 -158 39.5t-105 123.5
h-4q-30 -44 -70.5 -74.5t-100.5 -50.5q-41 -14 -87.5 -22.5t-105 -14t-132 -7.5t-167.5 -2q-130 0 -229 4.5t-174 16.5t-128.5 32t-91.5 51q-61 48 -90 118.5t-29 161.5q0 54 8.5 108.5t20.5 102.5h118q-11 -40 -18.5 -88t-7.5 -101q0 -69 20.5 -118.5t65.5 -81.5
q27 -19 69 -33t108.5 -23t161.5 -13.5t229 -4.5q78 0 142 1.5t115 5t91 9.5t72 16zM1414 1270q32 0 61 -12.5t50.5 -34t34.5 -51.5t13 -64q0 -32 -13 -61t-34.5 -51t-50.5 -34.5t-61 -12.5q-35 0 -64.5 12.5t-51 34.5t-34 50.5t-12.5 61.5q0 34 12 64t34 51.5t51.5 34
t64.5 12.5zM1414 1024q35 0 59.5 24.5t24.5 59.5q0 37 -24.5 62t-59.5 25q-37 0 -62 -25t-25 -62q0 -35 25 -59.5t62 -24.5z" />
    <glyph glyph-name="uni06AC.init" unicode="&#x6ac;" horiz-adv-x="975" 
d="M0 -14q-30 0 -45 19t-15 46q0 28 15 47t45 19h289q109 0 180 13.5t112.5 39t58 63t16.5 84.5q0 68 -37.5 133t-117.5 132t-204 139t-297 154v117l855 547v-141l-728 -457q180 -84 304 -161t201 -152t111 -150t34 -156q0 -63 -21 -123t-74.5 -107.5t-145 -76.5t-233.5 -29
h-303zM411 1498h-147v143h147v-143z" />
    <glyph glyph-name="uni06AC.medi" unicode="&#x6ac;" horiz-adv-x="1026" 
d="M-44.5 5q-15.5 19 -15.5 47q0 24 14.5 44.5t45.5 20.5h289q102 0 172.5 12.5t113.5 38t62 62.5t19 87q0 68 -37.5 133t-117.5 132t-204 139t-297 154v117l855 547v-141l-728 -457q131 -62 227.5 -116t166 -104t115 -96t74.5 -92t44.5 -93t24.5 -98q8 -45 22 -85.5
t41 -71.5t71.5 -49.5t112.5 -18.5v-131h-35q-89 0 -157.5 39.5t-104.5 123.5h-4q-23 -37 -59.5 -67t-88.5 -51.5t-120 -33t-154 -11.5h-303q-29 0 -44.5 19zM411 1498h-147v143h147v-143z" />
    <glyph glyph-name="uni06AC.fina" unicode="&#x6ac;" horiz-adv-x="1710" 
d="M318 573q-11 -40 -18.5 -88t-7.5 -101q0 -69 20.5 -118.5t65.5 -81.5q27 -19 64.5 -32.5t97.5 -21.5t148 -12t215 -4t216 9.5t144 35t80 71.5t25 120v1163h120v-1144q0 -66 11 -113.5t37 -78t68.5 -45.5t105.5 -15v-131h-53q-85 0 -147 35t-88 110h-3q-35 -47 -85 -76
t-116.5 -45.5t-150.5 -22t-187 -5.5q-126 0 -219.5 4t-163 15t-119.5 30.5t-88 50.5q-61 48 -90 118.5t-29 161.5q0 54 8.5 108.5t20.5 102.5h118zM684 685q109 3 161.5 29t52.5 58q0 17 -16 30t-56 34q-42 23 -67.5 48t-25.5 67q0 33 20.5 62t58.5 52.5t92 41t121 26.5v-85
q-105 -14 -151.5 -38t-46.5 -51q0 -19 15.5 -32t53.5 -34q44 -24 70 -49t26 -65q0 -33 -19 -63.5t-57.5 -55t-96 -40.5t-135.5 -20v85zM938 1498h-147v143h147v-143z" />
    <glyph glyph-name="uni06AD" unicode="&#x6ad;" horiz-adv-x="1663" arabic-form="isolated" 
d="M318 573q-11 -40 -18.5 -88t-7.5 -101q0 -69 20 -118.5t66 -81.5q27 -19 64.5 -32.5t97.5 -21.5t148 -12t215 -4q126 0 214.5 9t144 35t81 73t25.5 123v1159h120v-1172q0 -117 -41.5 -188t-119.5 -109t-191 -50t-256 -12q-126 0 -219.5 4t-163 15t-119.5 30.5t-88 50.5
q-62 49 -90.5 119t-28.5 161q0 54 8 108.5t21 102.5h118zM684 685q109 3 161.5 29t52.5 58q0 17 -16 30t-56 34q-42 23 -67.5 48t-25.5 67q0 33 20.5 62t58.5 52.5t92 41t121 26.5v-85q-105 -14 -151.5 -38t-46.5 -51q0 -19 15.5 -32t53.5 -34q44 -24 70 -49t26 -65
q0 -33 -19 -63.5t-57.5 -55t-96 -40.5t-135.5 -20v85zM808 1498h-147v143h147v-143zM1068 1498h-147v143h147v-143zM938 1729h-147v143h147v-143z" />
    <glyph glyph-name="uni06AE.init" unicode="&#x6ae;" horiz-adv-x="975" 
d="M0 -14q-30 0 -45 19t-15 46q0 28 15 47t45 19h289q109 0 180 13.5t112.5 39t58 63t16.5 84.5q0 68 -37.5 133t-117.5 132t-204 139t-297 154v117l855 547v-141l-728 -457q180 -84 304 -161t201 -152t111 -150t34 -156q0 -63 -21 -123t-74.5 -107.5t-145 -76.5t-233.5 -29
h-303zM384 -327h-148v143h148v-143zM643 -327h-147v143h147v-143zM514 -550h-147v143h147v-143z" />
    <glyph glyph-name="uni06AE.medi" unicode="&#x6ae;" horiz-adv-x="1026" 
d="M-44.5 5q-15.5 19 -15.5 47q0 24 14.5 44.5t45.5 20.5h289q102 0 172.5 12.5t113.5 38t62 62.5t19 87q0 68 -37.5 133t-117.5 132t-204 139t-297 154v117l855 547v-141l-728 -457q131 -62 227.5 -116t166 -104t115 -96t74.5 -92t44.5 -93t24.5 -98q8 -45 22 -85.5
t41 -71.5t71.5 -49.5t112.5 -18.5v-131h-35q-89 0 -157.5 39.5t-104.5 123.5h-4q-23 -37 -59.5 -67t-88.5 -51.5t-120 -33t-154 -11.5h-303q-29 0 -44.5 19zM384 -327h-148v143h148v-143zM643 -327h-147v143h147v-143zM514 -550h-147v143h147v-143z" />
    <glyph glyph-name="uni06AE.fina" unicode="&#x6ae;" horiz-adv-x="1710" 
d="M318 573q-11 -40 -18.5 -88t-7.5 -101q0 -69 20.5 -118.5t65.5 -81.5q27 -19 64.5 -32.5t97.5 -21.5t148 -12t215 -4t216 9.5t144 35t80 71.5t25 120v1163h120v-1144q0 -66 11 -113.5t37 -78t68.5 -45.5t105.5 -15v-131h-53q-85 0 -147 35t-88 110h-3q-35 -47 -85 -76
t-116.5 -45.5t-150.5 -22t-187 -5.5q-126 0 -219.5 4t-163 15t-119.5 30.5t-88 50.5q-61 48 -90 118.5t-29 161.5q0 54 8.5 108.5t20.5 102.5h118zM684 685q109 3 161.5 29t52.5 58q0 17 -16 30t-56 34q-42 23 -67.5 48t-25.5 67q0 33 20.5 62t58.5 52.5t92 41t121 26.5v-85
q-105 -14 -151.5 -38t-46.5 -51q0 -19 15.5 -32t53.5 -34q44 -24 70 -49t26 -65q0 -33 -19 -63.5t-57.5 -55t-96 -40.5t-135.5 -20v85zM800 -327h-148v143h148v-143zM1059 -327h-147v143h147v-143zM930 -550h-147v143h147v-143z" />
    <glyph glyph-name="uni06AF" unicode="&#x6af;" horiz-adv-x="1826" arabic-form="isolated" 
d="M318 573q-11 -40 -18.5 -88t-7.5 -101q0 -69 20.5 -118.5t65.5 -81.5q27 -19 69 -33t108.5 -23t161.5 -13.5t229 -4.5q155 0 256 6t164 26q73 23 107 66t34 110q0 68 -37 133t-115.5 132.5t-202 139t-297.5 153.5v117l855 546v-141l-728 -455q177 -86 300.5 -163
t200 -152t111 -149.5t34.5 -155.5q0 -43 -10.5 -87.5t-36 -84.5t-67 -73t-104.5 -54q-42 -14 -91.5 -23t-109.5 -14t-133 -7t-163 -2q-130 0 -229 4.5t-174 16.5t-128.5 32t-91.5 51q-61 48 -90 118.5t-29 161.5q0 54 8.5 108.5t20.5 102.5h118zM855 1154v124l855 548v-124z
" />
    <glyph glyph-name="uni06B0.init" unicode="&#x6b0;" horiz-adv-x="975" 
d="M0 -14q-30 0 -45 19t-15 46q0 28 15 47t45 19h289q109 0 180 13.5t112.5 39t58 63t16.5 84.5q0 68 -37.5 133t-117.5 132t-204 139t-297 154v117l855 547v-141l-728 -457q180 -84 304 -161t201 -152t111 -150t34 -156q0 -63 -21 -123t-74.5 -107.5t-145 -76.5t-233.5 -29
h-303zM0 1154v124l855 548v-124zM563 1270q32 0 61 -12.5t50.5 -34t34.5 -51.5t13 -64q0 -32 -13 -61t-34.5 -51t-50.5 -34.5t-61 -12.5q-35 0 -64.5 12.5t-51 34.5t-34 50.5t-12.5 61.5q0 34 12 64t34 51.5t51.5 34t64.5 12.5zM563 1024q35 0 59.5 24.5t24.5 59.5
q0 37 -24.5 62t-59.5 25q-37 0 -62 -25t-25 -62q0 -35 25 -59.5t62 -24.5z" />
    <glyph glyph-name="uni06B0.medi" unicode="&#x6b0;" horiz-adv-x="1026" 
d="M-44.5 5q-15.5 19 -15.5 47q0 24 14.5 44.5t45.5 20.5h289q102 0 172.5 12.5t113.5 38t62 62.5t19 87q0 68 -37.5 133t-117.5 132t-204 139t-297 154v117l855 547v-141l-728 -457q131 -62 227.5 -116t166 -104t115 -96t74.5 -92t44.5 -93t24.5 -98q8 -45 22 -85.5
t41 -71.5t71.5 -49.5t112.5 -18.5v-131h-35q-89 0 -157.5 39.5t-104.5 123.5h-4q-23 -37 -59.5 -67t-88.5 -51.5t-120 -33t-154 -11.5h-303q-29 0 -44.5 19zM0 1154v124l855 548v-124zM563 1270q32 0 61 -12.5t50.5 -34t34.5 -51.5t13 -64q0 -32 -13 -61t-34.5 -51
t-50.5 -34.5t-61 -12.5q-35 0 -64.5 12.5t-51 34.5t-34 50.5t-12.5 61.5q0 34 12 64t34 51.5t51.5 34t64.5 12.5zM563 1024q35 0 59.5 24.5t24.5 59.5q0 37 -24.5 62t-59.5 25q-37 0 -62 -25t-25 -62q0 -35 25 -59.5t62 -24.5z" />
    <glyph glyph-name="uni06B0.fina" unicode="&#x6b0;" horiz-adv-x="1881" 
d="M1366 142q73 23 107 66t34 109q0 68 -37 133t-116 132.5t-202.5 140t-296.5 153.5v117l855 546v-141l-728 -455q131 -62 227.5 -116.5t165.5 -104t114 -96.5t73 -93t43.5 -93t24.5 -98q8 -45 22 -85.5t42 -71.5t73 -49.5t114 -18.5v-131h-38q-89 0 -158 39.5t-105 123.5
h-4q-30 -44 -70.5 -74.5t-100.5 -50.5q-41 -14 -87.5 -22.5t-105 -14t-132 -7.5t-167.5 -2q-130 0 -229 4.5t-174 16.5t-128.5 32t-91.5 51q-61 48 -90 118.5t-29 161.5q0 54 8.5 108.5t20.5 102.5h118q-11 -40 -18.5 -88t-7.5 -101q0 -69 20.5 -118.5t65.5 -81.5
q27 -19 69 -33t108.5 -23t161.5 -13.5t229 -4.5q78 0 142 1.5t115 5t91 9.5t72 16zM854 1154v124l855 548v-124zM1414 1270q32 0 61 -12.5t50.5 -34t34.5 -51.5t13 -64q0 -32 -13 -61t-34.5 -51t-50.5 -34.5t-61 -12.5q-35 0 -64.5 12.5t-51 34.5t-34 50.5t-12.5 61.5
q0 34 12 64t34 51.5t51.5 34t64.5 12.5zM1414 1024q35 0 59.5 24.5t24.5 59.5q0 37 -24.5 62t-59.5 25q-37 0 -62 -25t-25 -62q0 -35 25 -59.5t62 -24.5z" />
    <glyph glyph-name="uni06B1" unicode="&#x6b1;" horiz-adv-x="1826" arabic-form="isolated" 
d="M318 573q-11 -40 -18.5 -88t-7.5 -101q0 -69 20.5 -118.5t65.5 -81.5q27 -19 69 -33t108.5 -23t161.5 -13.5t229 -4.5q155 0 256 6t164 26q73 23 107 66t34 110q0 68 -37 133t-115.5 132.5t-202 139t-297.5 153.5v117l855 546v-141l-728 -455q177 -86 300.5 -163
t200 -152t111 -149.5t34.5 -155.5q0 -43 -10.5 -87.5t-36 -84.5t-67 -73t-104.5 -54q-42 -14 -91.5 -23t-109.5 -14t-133 -7t-163 -2q-130 0 -229 4.5t-174 16.5t-128.5 32t-91.5 51q-61 48 -90 118.5t-29 161.5q0 54 8.5 108.5t20.5 102.5h118zM1105 1750h-147v143h147
v-143zM1365 1750h-147v143h147v-143zM854 1154v124l855 548v-124z" />
    <glyph glyph-name="uni06B2.init" unicode="&#x6b2;" horiz-adv-x="975" 
d="M0 -14q-30 0 -45 19t-15 46q0 28 15 47t45 19h289q109 0 180 13.5t112.5 39t58 63t16.5 84.5q0 68 -37.5 133t-117.5 132t-204 139t-297 154v117l855 547v-141l-728 -457q180 -84 304 -161t201 -152t111 -150t34 -156q0 -63 -21 -123t-74.5 -107.5t-145 -76.5t-233.5 -29
h-303zM0 1154v124l855 548v-124zM349 -327h-147v143h147v-143zM609 -327h-147v143h147v-143z" />
    <glyph glyph-name="uni06B2.medi" unicode="&#x6b2;" horiz-adv-x="1026" 
d="M-44.5 5q-15.5 19 -15.5 47q0 24 14.5 44.5t45.5 20.5h289q102 0 172.5 12.5t113.5 38t62 62.5t19 87q0 68 -37.5 133t-117.5 132t-204 139t-297 154v117l855 547v-141l-728 -457q131 -62 227.5 -116t166 -104t115 -96t74.5 -92t44.5 -93t24.5 -98q8 -45 22 -85.5
t41 -71.5t71.5 -49.5t112.5 -18.5v-131h-35q-89 0 -157.5 39.5t-104.5 123.5h-4q-23 -37 -59.5 -67t-88.5 -51.5t-120 -33t-154 -11.5h-303q-29 0 -44.5 19zM0 1154v124l855 548v-124zM388 -327h-147v143h147v-143zM648 -327h-147v143h147v-143z" />
    <glyph glyph-name="uni06B2.fina" unicode="&#x6b2;" horiz-adv-x="1881" 
d="M1366 142q73 23 107 66t34 109q0 68 -37 133t-116 132.5t-202.5 140t-296.5 153.5v117l855 546v-141l-728 -455q131 -62 227.5 -116.5t165.5 -104t114 -96.5t73 -93t43.5 -93t24.5 -98q8 -45 22 -85.5t42 -71.5t73 -49.5t114 -18.5v-131h-38q-89 0 -158 39.5t-105 123.5
h-4q-30 -44 -70.5 -74.5t-100.5 -50.5q-41 -14 -87.5 -22.5t-105 -14t-132 -7.5t-167.5 -2q-130 0 -229 4.5t-174 16.5t-128.5 32t-91.5 51q-61 48 -90 118.5t-29 161.5q0 54 8.5 108.5t20.5 102.5h118q-11 -40 -18.5 -88t-7.5 -101q0 -69 20.5 -118.5t65.5 -81.5
q27 -19 69 -33t108.5 -23t161.5 -13.5t229 -4.5q78 0 142 1.5t115 5t91 9.5t72 16zM855 1154v124l855 548v-124zM837 -327h-147v143h147v-143zM1097 -327h-147v143h147v-143z" />
    <glyph glyph-name="uni06B3" unicode="&#x6b3;" horiz-adv-x="1826" arabic-form="isolated" 
d="M318 573q-11 -40 -18.5 -88t-7.5 -101q0 -69 20.5 -118.5t65.5 -81.5q27 -19 69 -33t108.5 -23t161.5 -13.5t229 -4.5q155 0 256 6t164 26q73 23 107 66t34 110q0 68 -37 133t-115.5 132.5t-202 139t-297.5 153.5v117l855 546v-141l-728 -455q177 -86 300.5 -163
t200 -152t111 -149.5t34.5 -155.5q0 -43 -10.5 -87.5t-36 -84.5t-67 -73t-104.5 -54q-42 -14 -91.5 -23t-109.5 -14t-133 -7t-163 -2q-130 0 -229 4.5t-174 16.5t-128.5 32t-91.5 51q-61 48 -90 118.5t-29 161.5q0 54 8.5 108.5t20.5 102.5h118zM855 1154v124l855 548v-124z
M974 -528h-147v143h147v-143zM974 -297h-147v143h147v-143z" />
    <glyph glyph-name="uni06B4.init" unicode="&#x6b4;" horiz-adv-x="975" 
d="M0 -14q-30 0 -45 19t-15 46q0 28 15 47t45 19h289q109 0 180 13.5t112.5 39t58 63t16.5 84.5q0 68 -37.5 133t-117.5 132t-204 139t-297 154v117l855 547v-141l-728 -457q180 -84 304 -161t201 -152t111 -150t34 -156q0 -63 -21 -123t-74.5 -107.5t-145 -76.5t-233.5 -29
h-303zM0 1154v124l855 548v-124zM187 1696h-147v143h147v-143zM447 1696h-147v143h147v-143zM317 1927h-147v143h147v-143z" />
    <glyph glyph-name="uni06B4.medi" unicode="&#x6b4;" horiz-adv-x="1026" 
d="M-44.5 5q-15.5 19 -15.5 47q0 24 14.5 44.5t45.5 20.5h289q102 0 172.5 12.5t113.5 38t62 62.5t19 87q0 68 -37.5 133t-117.5 132t-204 139t-297 154v117l855 547v-141l-728 -457q131 -62 227.5 -116t166 -104t115 -96t74.5 -92t44.5 -93t24.5 -98q8 -45 22 -85.5
t41 -71.5t71.5 -49.5t112.5 -18.5v-131h-35q-89 0 -157.5 39.5t-104.5 123.5h-4q-23 -37 -59.5 -67t-88.5 -51.5t-120 -33t-154 -11.5h-303q-29 0 -44.5 19zM0 1154v124l855 548v-124zM187 1696h-147v143h147v-143zM447 1696h-147v143h147v-143zM317 1927h-147v143h147v-143
z" />
    <glyph glyph-name="uni06B4.fina" unicode="&#x6b4;" horiz-adv-x="1881" 
d="M1366 142q73 23 107 66t34 109q0 68 -37 133t-116 132.5t-202.5 140t-296.5 153.5v117l855 546v-141l-728 -455q131 -62 227.5 -116.5t165.5 -104t114 -96.5t73 -93t43.5 -93t24.5 -98q8 -45 22 -85.5t42 -71.5t73 -49.5t114 -18.5v-131h-38q-89 0 -158 39.5t-105 123.5
h-4q-30 -44 -70.5 -74.5t-100.5 -50.5q-41 -14 -87.5 -22.5t-105 -14t-132 -7.5t-167.5 -2q-130 0 -229 4.5t-174 16.5t-128.5 32t-91.5 51q-61 48 -90 118.5t-29 161.5q0 54 8.5 108.5t20.5 102.5h118q-11 -40 -18.5 -88t-7.5 -101q0 -69 20.5 -118.5t65.5 -81.5
q27 -19 69 -33t108.5 -23t161.5 -13.5t229 -4.5q78 0 142 1.5t115 5t91 9.5t72 16zM854 1154v124l855 548v-124zM1038 1696h-147v143h147v-143zM1298 1696h-147v143h147v-143zM1168 1927h-147v143h147v-143z" />
    <glyph glyph-name="uni06B5.init" unicode="&#x6b5;" horiz-adv-x="684" 
d="M114 117q55 0 94.5 9.5t64.5 32.5t36.5 62t11.5 98v1197h120v-1207q0 -96 -24 -158.5t-68 -99t-105 -51t-134 -14.5h-110q-70 0 -70 66q0 65 70 65h114zM333 1702l-234 352h105l179 -265l175 265h103l-230 -352h-98z" />
    <glyph glyph-name="uni06B5.medi" unicode="&#x6b5;" horiz-adv-x="611" 
d="M441 331q0 -58 7.5 -99t27 -66.5t52.5 -37t83 -11.5v-131h-27q-78 0 -128 27.5t-76 81.5h-4q-40 -57 -100.5 -83t-127.5 -26h-148q-70 0 -70 66q0 29 17.5 47t52.5 18h141q37 0 69.5 9.5t57 30.5t39 55.5t14.5 84.5v1219h120v-1185zM333 1702l-234 352h105l179 -265
l175 265h103l-230 -352h-98z" />
    <glyph glyph-name="uni06B5.fina" unicode="&#x6b5;" horiz-adv-x="1368" 
d="M317 387q-14 -69 -19 -128t-5 -112q0 -95 20.5 -162.5t65.5 -110.5t115.5 -63.5t170.5 -20.5q109 0 187 24.5t128 78t73.5 139t23.5 207.5v1277h120v-1165q0 -63 8 -107t27.5 -72.5t52.5 -41.5t83 -13v-131h-35q-61 0 -96.5 18.5t-54.5 55.5h-4q-14 -93 -51.5 -167.5
t-101.5 -126.5t-156.5 -80t-216.5 -28q-125 0 -215.5 31t-149.5 91t-87 147t-28 200q0 60 7.5 124t22.5 136h115zM1084 1702l-234 352h105l179 -265l175 265h103l-230 -352h-98z" />
    <glyph glyph-name="uni06B6.init" unicode="&#x6b6;" horiz-adv-x="611" 
d="M114 117q55 0 94.5 9.5t64.5 32.5t36.5 62t11.5 98v1197h120v-1207q0 -96 -24 -158.5t-68 -99t-105 -51t-134 -14.5h-110q-70 0 -70 66q0 65 70 65h114zM452 1704h-147v143h147v-143z" />
    <glyph glyph-name="uni06B6.medi" unicode="&#x6b6;" horiz-adv-x="611" 
d="M441 331q0 -58 7.5 -99t27 -66.5t52.5 -37t83 -11.5v-131h-27q-78 0 -128 27.5t-76 81.5h-4q-40 -57 -100.5 -83t-127.5 -26h-148q-70 0 -70 66q0 29 17.5 47t52.5 18h141q37 0 69.5 9.5t57 30.5t39 55.5t14.5 84.5v1219h120v-1185zM452 1704h-147v143h147v-143z" />
    <glyph glyph-name="uni06B6.fina" unicode="&#x6b6;" horiz-adv-x="1368" 
d="M317 387q-14 -69 -19 -128t-5 -112q0 -95 20.5 -162.5t65.5 -110.5t115.5 -63.5t170.5 -20.5q109 0 187 24.5t128 78t73.5 139t23.5 207.5v1277h120v-1165q0 -63 8 -107t27.5 -72.5t52.5 -41.5t83 -13v-131h-35q-61 0 -96.5 18.5t-54.5 55.5h-4q-14 -93 -51.5 -167.5
t-101.5 -126.5t-156.5 -80t-216.5 -28q-125 0 -215.5 31t-149.5 91t-87 147t-28 200q0 60 7.5 124t22.5 136h115zM1209 1704h-147v143h147v-143z" />
    <glyph glyph-name="uni06B7.init" unicode="&#x6b7;" horiz-adv-x="611" 
d="M114 117q55 0 94.5 9.5t64.5 32.5t36.5 62t11.5 98v1197h120v-1207q0 -96 -24 -158.5t-68 -99t-105 -51t-134 -14.5h-110q-70 0 -70 66q0 65 70 65h114zM325 1704h-147v143h147v-143zM585 1704h-147v143h147v-143zM455 1935h-147v143h147v-143z" />
    <glyph glyph-name="uni06B7.medi" unicode="&#x6b7;" horiz-adv-x="611" 
d="M441 331q0 -58 7.5 -99t27 -66.5t52.5 -37t83 -11.5v-131h-27q-78 0 -128 27.5t-76 81.5h-4q-40 -57 -100.5 -83t-127.5 -26h-148q-70 0 -70 66q0 29 17.5 47t52.5 18h141q37 0 69.5 9.5t57 30.5t39 55.5t14.5 84.5v1219h120v-1185zM325 1704h-147v143h147v-143z
M585 1704h-147v143h147v-143zM455 1935h-147v143h147v-143z" />
    <glyph glyph-name="uni06B7.fina" unicode="&#x6b7;" horiz-adv-x="1368" 
d="M317 387q-14 -69 -19 -128t-5 -112q0 -95 20.5 -162.5t65.5 -110.5t115.5 -63.5t170.5 -20.5q109 0 187 24.5t128 78t73.5 139t23.5 207.5v1277h120v-1165q0 -63 8 -107t27.5 -72.5t52.5 -41.5t83 -13v-131h-35q-61 0 -96.5 18.5t-54.5 55.5h-4q-14 -93 -51.5 -167.5
t-101.5 -126.5t-156.5 -80t-216.5 -28q-125 0 -215.5 31t-149.5 91t-87 147t-28 200q0 60 7.5 124t22.5 136h115zM1080 1704h-147v143h147v-143zM1340 1704h-147v143h147v-143zM1210 1935h-147v143h147v-143z" />
    <glyph glyph-name="uni06B8.init" unicode="&#x6b8;" horiz-adv-x="611" 
d="M114 117q55 0 94.5 9.5t64.5 32.5t36.5 62t11.5 98v1197h120v-1207q0 -96 -24 -158.5t-68 -99t-105 -51t-134 -14.5h-110q-70 0 -70 66q0 65 70 65h114zM263 -327h-148v143h148v-143zM522 -327h-147v143h147v-143zM393 -550h-147v143h147v-143z" />
    <glyph glyph-name="uni06B8.medi" unicode="&#x6b8;" horiz-adv-x="611" 
d="M441 331q0 -58 7.5 -99t27 -66.5t52.5 -37t83 -11.5v-131h-27q-78 0 -128 27.5t-76 81.5h-4q-40 -57 -100.5 -83t-127.5 -26h-148q-70 0 -70 66q0 29 17.5 47t52.5 18h141q37 0 69.5 9.5t57 30.5t39 55.5t14.5 84.5v1219h120v-1185zM319 -327h-148v143h148v-143z
M578 -327h-147v143h147v-143zM449 -550h-147v143h147v-143z" />
    <glyph glyph-name="uni06B8.fina" unicode="&#x6b8;" horiz-adv-x="1327" 
d="M1146 1516v-1144q0 -68 9.5 -116.5t31 -79.5t56 -45t84.5 -14v-131h-27q-35 0 -72 11.5t-70 35t-59.5 60t-39.5 87.5h-3q-63 -92 -168.5 -143t-264.5 -51q-250 0 -366 118.5t-116 350.5q0 60 7.5 124t22.5 136h115q-14 -69 -19 -128t-5 -112q0 -95 20.5 -162.5t64 -110.5
t112.5 -63.5t166 -20.5q210 0 305.5 102t95.5 304v992h120zM595 -328h-147v143h147v-143zM855 -328h-148v143h148v-143zM726 -550h-148v143h148v-143z" />
    <glyph glyph-name="uni06B9.init" unicode="&#x6b9;" horiz-adv-x="612" 
d="M441 738v-407q0 -103 -26 -169.5t-71 -105.5t-105.5 -54.5t-128.5 -15.5h-110q-35 0 -52.5 19t-17.5 47q0 27 17.5 46t52.5 19h115q52 0 90.5 10.5t64 35t38.5 66t13 103.5v406h120zM451 934h-147v143h147v-143zM439 -327h-147v143h147v-143z" />
    <glyph glyph-name="uni06B9.medi" unicode="&#x6b9;" horiz-adv-x="684" 
d="M441 338q0 -66 12.5 -109t41 -67.5t75 -34.5t114.5 -10v-131h-52q-101 0 -164.5 33t-90.5 92h-4q-38 -63 -103 -94t-143 -31h-127q-35 0 -52.5 19t-17.5 47q0 27 17.5 46t52.5 19h124q40 0 76 10t63 32t42.5 57.5t15.5 86.5v435h120v-400zM453 934h-147v143h147v-143z
M447 -327h-147v143h147v-143z" />
    <glyph glyph-name="uni06B9.fina" unicode="&#x6b9;" horiz-adv-x="1338" 
d="M1105 753q15 -69 26.5 -159t11.5 -183v-69q0 -64 11 -107t34 -69.5t60 -37.5t90 -11v-131h-28q-62 0 -118 23.5t-90 79.5h-5q-50 -120 -163.5 -190t-301.5 -70q-122 0 -209 31t-143 90t-82.5 146t-26.5 200q0 61 7.5 126t22.5 139h115q-14 -71 -19.5 -131t-5.5 -114
q0 -95 19.5 -162t61.5 -110t109 -63t163 -20q97 0 169 24t119 76.5t70.5 135.5t23.5 202q0 75 -10.5 163t-30.5 191h120zM728 934h-147v143h147v-143zM728 -485h-147v143h147v-143z" />
    <glyph glyph-name="uni06BA" unicode="&#x6ba;" horiz-adv-x="1300" arabic-form="isolated" 
d="M1105 450q20 -91 31 -177t11 -177q0 -141 -30 -247.5t-93 -178.5t-160 -108.5t-231 -36.5q-122 0 -209 31t-143.5 90.5t-83 146.5t-26.5 200q0 60 8 125.5t23 139.5h114q-13 -71 -18.5 -131t-5.5 -114q0 -95 19.5 -162.5t62 -110t109.5 -62.5t163 -20q97 0 168.5 23.5
t118.5 76t70 135.5t23 202q0 76 -10.5 164t-29.5 191h119z" />
    <glyph glyph-name="uni06BB" unicode="&#x6bb;" horiz-adv-x="1300" arabic-form="isolated" 
d="M1105 450q20 -91 31 -177t11 -177q0 -141 -30 -247.5t-93 -178.5t-160 -108.5t-231 -36.5q-122 0 -209 31t-143.5 90.5t-83 146.5t-26.5 200q0 60 8 125.5t23 139.5h114q-13 -71 -18.5 -131t-5.5 -114q0 -95 19.5 -162.5t62 -110t109.5 -62.5t163 -20q97 0 168.5 23.5
t118.5 76t70 135.5t23 202q0 76 -10.5 164t-29.5 191h119zM333 791q23 -2 53.5 -3.5t62.5 -2.5v482h83v-341l3 -1q38 64 91 98.5t119 34.5q42 0 73.5 -16.5t52.5 -43.5t31.5 -63t10.5 -75q0 -59 -17 -92t-50.5 -50t-82.5 -21t-113 -4q-60 0 -106 0.5t-82 1.5t-64 2.5
t-52 4.5zM656 784q52 0 86 1.5t54.5 9.5t29 24t8.5 45q0 50 -30.5 76.5t-73.5 26.5q-31 0 -60.5 -14t-56 -38.5t-48 -58t-37.5 -72.5h128z" />
    <glyph glyph-name="uni06BC.init" unicode="&#x6bc;" horiz-adv-x="612" 
d="M441 738v-407q0 -103 -26 -169.5t-71 -105.5t-105.5 -54.5t-128.5 -15.5h-110q-35 0 -52.5 19t-17.5 47q0 27 17.5 46t52.5 19h115q52 0 90.5 10.5t64 35t38.5 66t13 103.5v406h120zM261 73q32 0 61 -12.5t50.5 -34t34.5 -51.5t13 -64q0 -32 -13 -61t-34.5 -51
t-50.5 -34.5t-61 -12.5q-35 0 -64.5 12.5t-51 34.5t-34 50.5t-12.5 61.5q0 34 12 64t34 51.5t51.5 34t64.5 12.5zM261 -173q35 0 59.5 24.5t24.5 59.5q0 37 -24.5 62t-59.5 25q-37 0 -62 -25t-25 -62q0 -35 25 -59.5t62 -24.5zM453 934h-147v143h147v-143z" />
    <glyph glyph-name="uni06BC.medi" unicode="&#x6bc;" horiz-adv-x="684" 
d="M441 338q0 -66 12.5 -109t41 -67.5t75 -34.5t114.5 -10v-131h-52q-101 0 -164.5 33t-90.5 92h-4q-38 -63 -103 -94t-143 -31h-127q-35 0 -52.5 19t-17.5 47q0 27 17.5 46t52.5 19h124q40 0 76 10t63 32t42.5 57.5t15.5 86.5v435h120v-400zM261 73q32 0 61 -12.5t50.5 -34
t34.5 -51.5t13 -64q0 -32 -13 -61t-34.5 -51t-50.5 -34.5t-61 -12.5q-35 0 -64.5 12.5t-51 34.5t-34 50.5t-12.5 61.5q0 34 12 64t34 51.5t51.5 34t64.5 12.5zM261 -173q35 0 59.5 24.5t24.5 59.5q0 37 -24.5 62t-59.5 25q-37 0 -62 -25t-25 -62q0 -35 25 -59.5t62 -24.5z
M453 934h-147v143h147v-143z" />
    <glyph glyph-name="uni06BC.fina" unicode="&#x6bc;" horiz-adv-x="1338" 
d="M171 296q0 61 7.5 126t22.5 139h115q-14 -71 -19.5 -131t-5.5 -114q0 -95 19.5 -162t61.5 -110t109 -63t163 -20q97 0 169 24t119 76.5t70.5 135.5t23.5 202q0 75 -10.5 163t-30.5 191h120q15 -69 26.5 -150.5t11.5 -191.5v-77q0 -58 10.5 -99t34 -67.5t60.5 -38.5
t90 -12v-131h-28q-31 0 -61.5 5.5t-58 18t-51 32t-40.5 47.5h-5q-39 -93 -113.5 -156t-193.5 -89q21 -22 33 -50.5t12 -61.5q0 -32 -13 -61t-34.5 -51t-50.5 -34.5t-61 -12.5q-35 0 -64.5 12.5t-51 34.5t-34 50.5t-12.5 61.5q0 60 33 101q-98 11 -168.5 46.5t-116 94
t-67 139.5t-21.5 183zM673 -352q35 0 59.5 24.5t24.5 59.5q0 37 -24.5 62t-59.5 25q-37 0 -62 -25t-25 -62q0 -35 25 -59.5t62 -24.5zM749 1081v-147h-156v147h156z" />
    <glyph glyph-name="uni06BD.init" unicode="&#x6bd;" horiz-adv-x="612" 
d="M441 738v-407q0 -103 -26 -169.5t-71 -105.5t-105.5 -54.5t-128.5 -15.5h-110q-35 0 -52.5 19t-17.5 47q0 27 17.5 46t52.5 19h115q52 0 90.5 10.5t64 35t38.5 66t13 103.5v406h120zM323 934h-147v143h147v-143zM583 934h-147v143h147v-143zM453 1165h-147v143h147v-143z
" />
    <glyph glyph-name="uni06BD.medi" unicode="&#x6bd;" horiz-adv-x="684" 
d="M441 338q0 -66 12.5 -109t41 -67.5t75 -34.5t114.5 -10v-131h-52q-101 0 -164.5 33t-90.5 92h-4q-38 -63 -103 -94t-143 -31h-127q-35 0 -52.5 19t-17.5 47q0 27 17.5 46t52.5 19h124q40 0 76 10t63 32t42.5 57.5t15.5 86.5v435h120v-400zM323 934h-147v143h147v-143z
M583 934h-147v143h147v-143zM453 1165h-147v143h147v-143z" />
    <glyph glyph-name="uni06BD.fina" unicode="&#x6bd;" horiz-adv-x="1319" 
d="M1105 450q8 -42 15 -91t14 -100q10 -72 52.5 -107t132.5 -35v-131h-22q-55 0 -92 19t-58 51q-2 0 -2.5 -0.5t-2.5 -0.5q-3 -269 -128.5 -399.5t-384.5 -130.5q-122 0 -208.5 31t-142 90.5t-81.5 146.5t-26 200q0 60 8 125.5t23 139.5h114q-13 -71 -18.5 -131t-5.5 -114
q0 -95 19 -162.5t60.5 -110t108 -62.5t162.5 -20q97 0 169 23.5t120 76t71.5 135.5t23.5 202q0 76 -10.5 164t-29.5 191h119zM587 633h-147v143h147v-143zM847 633h-147v143h147v-143zM717 864h-147v143h147v-143z" />
    <glyph glyph-name="uni06BE" unicode="&#x6be;" horiz-adv-x="1490" arabic-form="isolated" 
d="M513 1052q215 -119 368 -235t250.5 -221.5t143 -196.5t45.5 -160q0 -47 -12.5 -92.5t-36 -81t-56.5 -57.5t-73 -22q-36 0 -83.5 5t-101 15.5t-109 27t-108.5 40.5q-38 -27 -80 -44.5t-89 -27t-99 -13t-109 -3.5q-64 0 -120 4.5t-93 10.5l-32 131q40 -4 76 -7t71 -5
t70.5 -3t73.5 -1q133 0 204 21v3q-69 31 -116.5 66t-77 74t-42.5 82t-13 90q0 53 19.5 111.5t54.5 110.5t83.5 92.5t107.5 57.5l1 6l-117 66v156zM715 211q58 61 82 126t24 135q0 53 -13 97t-33 76t-45 49.5t-49 17.5q-31 0 -66.5 -22.5t-65.5 -58t-49.5 -79.5t-19.5 -87
q0 -31 11 -61.5t38 -61.5t72.5 -63.5t113.5 -67.5zM903 620q23 -69 23 -160q0 -81 -25.5 -156.5t-76.5 -134.5q67 -27 155.5 -44t177.5 -20q19 23 29.5 53.5t10.5 62.5q0 44 -21.5 93t-60 101t-91.5 105t-116 105z" />
    <glyph glyph-name="uni06BF.init" unicode="&#x6bf;" horiz-adv-x="1197" 
d="M171 696q59 21 121 31.5t122 10.5q67 0 125 -12.5t112 -31t106.5 -41t108 -41.5t116 -32t131.5 -14l-24 -145q-51 -11 -109.5 -47.5t-127 -85t-150 -102t-180 -98t-215.5 -73.5t-257 -29h-50q-35 0 -52.5 19t-17.5 47q0 27 17.5 46t52.5 19h59q97 0 181 16t158.5 42.5
t141 62.5t128.5 75.5t121.5 80.5t119.5 79v5q-60 18 -117 40.5t-116.5 42.5t-124 33.5t-139.5 13.5q-28 0 -61 -3t-65.5 -8t-62.5 -11.5t-52 -13.5v124zM631 934h-147v143h147v-143zM554 -327h-148v143h148v-143zM813 -327h-147v143h147v-143zM684 -550h-147v143h147v-143z
" />
    <glyph glyph-name="uni06BF.medi" unicode="&#x6bf;" horiz-adv-x="1197" 
d="M171 696q59 21 121 31.5t122 10.5q67 0 125 -12.5t112 -31t106.5 -41t108 -41.5t116 -32t131.5 -14l-24 -145q-33 -6 -70.5 -23.5t-79.5 -44.5q0 -59 13.5 -103.5t43.5 -74t79.5 -44t121.5 -14.5v-131h-20q-89 0 -150 23t-99.5 64t-56 99t-20.5 129q-44 -25 -95 -58.5
t-109 -68.5t-124 -68.5t-140 -60t-157.5 -43t-175.5 -16.5h-50q-35 0 -52.5 19t-17.5 47q0 27 17.5 46t52.5 19h50q93 0 174 16.5t154 44t139.5 63.5t131 75.5t128.5 80t132 76.5v5q-60 18 -117 40.5t-116.5 42.5t-124 33.5t-139.5 13.5q-28 0 -61 -3t-65.5 -8t-62.5 -11.5
t-52 -13.5v124zM631 934h-147v143h147v-143zM554 -327h-148v143h148v-143zM813 -327h-147v143h147v-143zM684 -550h-147v143h147v-143z" />
    <glyph glyph-name="uni06BF.fina" unicode="&#x6bf;" horiz-adv-x="1368" 
d="M1079 331q7 -59 26 -99.5t49 -66t72.5 -37t96.5 -11.5h45v-131h-66q-73 0 -129 24t-95.5 66.5t-63 101t-30.5 128.5zM1029 514q-204 -45 -349 -105.5t-237 -132.5t-134.5 -153t-42.5 -168q0 -71 25 -132t77.5 -105.5t133.5 -70t193 -25.5q204 0 388 71v-122
q-185 -74 -391 -74q-143 0 -247 34t-172 93t-100.5 139.5t-32.5 173.5t40.5 187t126 178.5t218 155t315.5 118.5v8q-54 14 -100.5 31t-93 32t-98 25t-116.5 10q-74 0 -141.5 -11.5t-119.5 -27.5v123q59 20 125.5 32.5t138.5 12.5q62 0 115 -11.5t101 -28.5t93.5 -37
t94 -37.5t101.5 -30t117 -14.5zM637 28h-148v143h148v-143zM896 28h-147v143h147v-143zM767 -195h-147v143h147v-143zM660 1031h-147v143h147v-143z" />
    <glyph glyph-name="uni06C0" unicode="&#x6c0;" horiz-adv-x="1026" arabic-form="isolated" 
d="M401 971q122 -81 208.5 -161.5t141 -161.5t79.5 -163t25 -166q0 -78 -25.5 -140.5t-71.5 -107t-110.5 -68.5t-142.5 -24q-76 0 -137.5 22.5t-105 64t-67.5 100t-24 129.5q0 75 20.5 145.5t57.5 134.5t86.5 118.5t108.5 96.5q-10 9 -24 20t-29 22t-31 22.5t-29 20.5z
M290 318q0 -52 17 -91t46.5 -64.5t70 -38.5t88.5 -13q106 0 165 54t59 151q0 109 -50.5 209t-158.5 194q-54 -37 -98 -83t-75 -98t-47.5 -108t-16.5 -112zM640 1439q-13 3 -27.5 5t-30.5 2q-50 0 -83.5 -23t-33.5 -68q0 -93 136 -93h83v-87h-342v81h90l1 5q-23 23 -36.5 52
t-13.5 62q0 34 14 63.5t39.5 51t61 33.5t78.5 12q31 0 64 -6v-90z" />
    <glyph glyph-name="uni06C1" unicode="&#x6c1;" horiz-adv-x="1026" arabic-form="isolated" 
d="M401 971q122 -81 208.5 -161.5t141 -161.5t79.5 -163t25 -166q0 -78 -25.5 -140.5t-71.5 -107t-110.5 -68.5t-142.5 -24q-76 0 -137.5 22.5t-105 64t-67.5 100t-24 129.5q0 75 20.5 145.5t57.5 134.5t86.5 118.5t108.5 96.5q-10 9 -24 20t-29 22t-31 22.5t-29 20.5z
M290 318q0 -52 17 -91t46.5 -64.5t70 -38.5t88.5 -13q106 0 165 54t59 151q0 109 -50.5 209t-158.5 194q-54 -37 -98 -83t-75 -98t-47.5 -108t-16.5 -112z" />
    <glyph glyph-name="uni06C2.fina" unicode="&#x6c2;" horiz-adv-x="1026" 
d="M1026 -14h-25q-65 0 -119 22t-102 55t-91.5 71t-86 71t-86 55t-91.5 22q-51 0 -93.5 -20.5t-74 -61t-49 -100.5t-17.5 -139v-40h-105q-3 22 -3.5 37t-0.5 20q0 104 28.5 185.5t77 137t111.5 84.5t132 29q62 0 114.5 -22.5t99 -56t90.5 -73t89.5 -72.5t94.5 -54t107 -19
v-131zM535 958q-13 3 -27.5 5t-30.5 2q-50 0 -83.5 -23t-33.5 -68q0 -93 136 -93h83v-87h-342v81h90l1 5q-23 23 -36.5 52t-13.5 62q0 34 14 63.5t39.5 51t61 33.5t78.5 12q31 0 64 -6v-90z" />
    <glyph glyph-name="uni06C3.fina" unicode="&#x6c3;" horiz-adv-x="1026" 
d="M1026 -14h-25q-65 0 -119 22t-102 55t-91.5 71t-86 71t-86 55t-91.5 22q-51 0 -93.5 -20.5t-74 -61t-49 -100.5t-17.5 -139v-40h-105q-3 22 -3.5 37t-0.5 20q0 104 28.5 185.5t77 137t111.5 84.5t132 29q62 0 114.5 -22.5t99 -56t90.5 -73t89.5 -72.5t94.5 -54t107 -19
v-131zM342 693h-147v143h147v-143zM602 693h-147v143h147v-143z" />
    <glyph glyph-name="uni06C4.fina" unicode="&#x6c4;" horiz-adv-x="936" 
d="M0 -295q79 -32 160 -45.5t162 -13.5q72 0 125 14.5t90.5 42.5t61.5 69.5t39 95.5q5 19 10.5 49.5t9.5 68.5h-145q-89 0 -157.5 22.5t-115 62.5t-71 95t-24.5 120q0 63 23.5 128.5t64.5 119t96 87.5t118 34q76 0 134.5 -45t107.5 -130q42 -74 64.5 -170.5t26.5 -192.5h156
v-131h-157q-9 -111 -40 -198.5t-87 -149t-138 -94t-192 -32.5q-87 0 -167.5 16t-154.5 49v128zM623 315q-14 40 -33.5 77.5t-43 66t-50.5 45.5t-55 17q-33 0 -64 -19t-55 -50t-38.5 -71.5t-14.5 -82.5q0 -85 64.5 -133t192.5 -48h133q-2 44 -10.5 97t-25.5 101zM396 -102
q32 0 61 -12.5t50.5 -34t34.5 -51.5t13 -64q0 -32 -13 -61t-34.5 -51t-50.5 -34.5t-61 -12.5q-35 0 -64.5 12.5t-51 34.5t-34 50.5t-12.5 61.5q0 34 12 64t34 51.5t51.5 34t64.5 12.5zM396 -348q35 0 59.5 24.5t24.5 59.5q0 37 -24.5 62t-59.5 25q-37 0 -62 -25t-25 -62
q0 -35 25 -59.5t62 -24.5z" />
    <glyph glyph-name="uni06C5" unicode="&#x6c5;" horiz-adv-x="936" arabic-form="isolated" 
d="M628 402q-15 48 -36 88t-46 68.5t-52.5 44.5t-54.5 16q-31 0 -60 -19t-52 -50t-37 -71t-14 -81q0 -43 16.5 -78t46.5 -59.5t71 -37.5t90 -13q43 0 80 7t77 26q-1 14 -3.5 34t-6 41.5t-8.5 43.5t-11 40zM0 -295q76 -30 157 -44.5t155 -14.5q71 0 123 14t89 40.5t61.5 64.5
t41.5 87h-480v98h501q7 40 10 83.5t4 86.5q-76 -38 -182 -38q-66 0 -125.5 21t-104.5 60t-71.5 95t-26.5 125q0 65 23.5 131t64.5 119.5t96 87t118 33.5t122.5 -40t106 -118t74.5 -193t28 -265q0 -129 -21.5 -242.5t-75 -199t-144.5 -135t-229 -49.5q-85 0 -166 17t-149 48
v128z" />
    <glyph glyph-name="uni06C6" unicode="&#x6c6;" horiz-adv-x="936" arabic-form="isolated" 
d="M0 -295q79 -32 160 -45.5t162 -13.5q95 0 158 26.5t102 76t56.5 119t22.5 156.5q-42 -19 -90 -28.5t-98 -9.5q-64 0 -123.5 21t-105 60t-72.5 94.5t-27 124.5q0 63 23.5 128.5t64.5 119t96 87.5t118 34q76 0 134.5 -45t107.5 -129q49 -85 71 -193t22 -223
q0 -127 -27.5 -229.5t-84 -174.5t-143.5 -110.5t-205 -38.5q-87 0 -167.5 16t-154.5 49v128zM656 150q-2 61 -20.5 126.5t-48 120t-67.5 89.5t-79 35q-33 0 -64 -19t-55 -50t-38.5 -71.5t-14.5 -82.5t17 -75.5t46.5 -57t69.5 -36t86 -12.5q47 0 90 7.5t78 25.5zM408 856
l-234 352h105l179 -265l175 265h103l-230 -352h-98z" />
    <glyph glyph-name="uni06C7" unicode="&#x6c7;" horiz-adv-x="936" arabic-form="isolated" 
d="M0 -295q79 -32 160 -45.5t162 -13.5q95 0 158 26.5t102 76t56.5 119t22.5 156.5q-42 -19 -90 -28.5t-98 -9.5q-64 0 -123.5 21t-105 60t-72.5 94.5t-27 124.5q0 63 23.5 128.5t64.5 119t96 87.5t118 34q76 0 134.5 -45t107.5 -129q49 -85 71 -193t22 -223
q0 -127 -27.5 -229.5t-84 -174.5t-143.5 -110.5t-205 -38.5q-87 0 -167.5 16t-154.5 49v128zM656 150q-2 61 -20.5 126.5t-48 120t-67.5 89.5t-79 35q-33 0 -64 -19t-55 -50t-38.5 -71.5t-14.5 -82.5t17 -75.5t46.5 -57t69.5 -36t86 -12.5q47 0 90 7.5t78 25.5zM523 812
q-23 17 -42 34.5t-36 34.5q-26 -6 -50.5 -7.5t-47.5 -1.5q-54 0 -106 7t-99 21q4 19 8 37.5t8 37.5q48 -13 97 -20t100 -7h13.5t14.5 2q0 1 0.5 1t0.5 1q-29 34 -43 69t-14 70q0 37 15 67t39.5 51t56 32.5t64.5 11.5q34 0 64 -12t52.5 -33.5t35.5 -52.5t13 -69
q0 -123 -138 -181q11 -11 24.5 -22.5t22.5 -19.5zM587 1082q0 21 -8 37.5t-20.5 27.5t-29 17t-33.5 6q-16 0 -32 -5.5t-28.5 -16t-20 -25.5t-7.5 -35q0 -33 19 -67t46 -57q51 14 82.5 44.5t31.5 73.5z" />
    <glyph glyph-name="uni06C8" unicode="&#x6c8;" horiz-adv-x="936" arabic-form="isolated" 
d="M0 -295q79 -32 160 -45.5t162 -13.5q95 0 158 26.5t102 76t56.5 119t22.5 156.5q-42 -19 -90 -28.5t-98 -9.5q-64 0 -123.5 21t-105 60t-72.5 94.5t-27 124.5q0 63 23.5 128.5t64.5 119t96 87.5t118 34q76 0 134.5 -45t107.5 -129q49 -85 71 -193t22 -223
q0 -127 -27.5 -229.5t-84 -174.5t-143.5 -110.5t-205 -38.5q-87 0 -167.5 16t-154.5 49v128zM656 150q-2 61 -20.5 126.5t-48 120t-67.5 89.5t-79 35q-33 0 -64 -19t-55 -50t-38.5 -71.5t-14.5 -82.5t17 -75.5t46.5 -57t69.5 -36t86 -12.5q47 0 90 7.5t78 25.5zM494 856
h-102v392h102v-392z" />
    <glyph glyph-name="uni06C9" unicode="&#x6c9;" horiz-adv-x="936" arabic-form="isolated" 
d="M0 -295q79 -32 160 -45.5t162 -13.5q95 0 158 26.5t102 76t56.5 119t22.5 156.5q-42 -19 -90 -28.5t-98 -9.5q-64 0 -123.5 21t-105 60t-72.5 94.5t-27 124.5q0 63 23.5 128.5t64.5 119t96 87.5t118 34q76 0 134.5 -45t107.5 -129q49 -85 71 -193t22 -223
q0 -127 -27.5 -229.5t-84 -174.5t-143.5 -110.5t-205 -38.5q-87 0 -167.5 16t-154.5 49v128zM656 150q-2 61 -20.5 126.5t-48 120t-67.5 89.5t-79 35q-33 0 -64 -19t-55 -50t-38.5 -71.5t-14.5 -82.5t17 -75.5t46.5 -57t69.5 -36t86 -12.5q47 0 90 7.5t78 25.5zM485 1208
l233 -352h-105l-177 264l-177 -264h-103l231 352h98z" />
    <glyph glyph-name="uni06CA.fina" unicode="&#x6ca;" horiz-adv-x="936" 
d="M0 -295q79 -32 160 -45.5t162 -13.5q72 0 125 14.5t90.5 42.5t61.5 69.5t39 95.5q5 19 10.5 49.5t9.5 68.5h-145q-89 0 -157.5 22.5t-115 62.5t-71 95t-24.5 120q0 63 23.5 128.5t64.5 119t96 87.5t118 34q76 0 134.5 -45t107.5 -130q42 -74 64.5 -170.5t26.5 -192.5h156
v-131h-157q-9 -111 -40 -198.5t-87 -149t-138 -94t-192 -32.5q-87 0 -167.5 16t-154.5 49v128zM623 315q-14 40 -33.5 77.5t-43 66t-50.5 45.5t-55 17q-33 0 -64 -19t-55 -50t-38.5 -71.5t-14.5 -82.5q0 -85 64.5 -133t192.5 -48h133q-2 44 -10.5 97t-25.5 101zM370 854
h-147v143h147v-143zM630 854h-147v143h147v-143z" />
    <glyph glyph-name="uni06CB" unicode="&#x6cb;" horiz-adv-x="936" arabic-form="isolated" 
d="M0 -295q79 -32 160 -45.5t162 -13.5q95 0 158 26.5t102 76t56.5 119t22.5 156.5q-42 -19 -90 -28.5t-98 -9.5q-64 0 -123.5 21t-105 60t-72.5 94.5t-27 124.5q0 63 23.5 128.5t64.5 119t96 87.5t118 34q76 0 134.5 -45t107.5 -129q49 -85 71 -193t22 -223
q0 -127 -27.5 -229.5t-84 -174.5t-143.5 -110.5t-205 -38.5q-87 0 -167.5 16t-154.5 49v128zM656 150q-2 61 -20.5 126.5t-48 120t-67.5 89.5t-79 35q-33 0 -64 -19t-55 -50t-38.5 -71.5t-14.5 -82.5t17 -75.5t46.5 -57t69.5 -36t86 -12.5q47 0 90 7.5t78 25.5zM370 855
h-147v143h147v-143zM630 855h-147v143h147v-143zM500 1086h-147v143h147v-143z" />
    <glyph glyph-name="uni06CC" unicode="&#x6cc;" horiz-adv-x="1501" arabic-form="isolated" 
d="M654 -133q-132 0 -223.5 32.5t-149.5 91.5t-84 141.5t-26 183.5q0 85 19.5 173t50.5 169h114q-29 -85 -46.5 -164.5t-17.5 -157.5q0 -79 19 -141t65 -105.5t121 -66.5t188 -23q110 0 204 22t162.5 58.5t107.5 83.5t39 97q0 42 -25.5 70t-63.5 51.5t-82 46t-82 53
t-63.5 73.5t-25.5 106q0 76 37.5 135.5t105.5 103.5t162.5 73t207.5 45v-126q-195 -21 -295.5 -80t-100.5 -141q0 -42 25.5 -70.5t63.5 -52t83 -46t83 -51.5t63.5 -68.5t25.5 -97.5q0 -73 -43.5 -147.5t-127.5 -134.5t-207.5 -98t-283.5 -38z" />
    <glyph glyph-name="uni06CD.fina" unicode="&#x6cd;" horiz-adv-x="1881" 
d="M495 504q-15 -68 -24 -126.5t-9 -121.5q0 -88 20.5 -158t70.5 -118.5t135 -74t214 -25.5q89 0 158 12t116 33t71.5 50t24.5 63t-20 58.5t-43.5 50.5t-43.5 59.5t-20 85.5q0 48 18 89t48.5 70t71 45.5t85.5 16.5q63 0 114.5 -36t97.5 -122q38 -72 65.5 -118t58.5 -72.5
t71.5 -37t105.5 -10.5v-131h-52q-57 0 -102.5 14t-84.5 46.5t-75 85.5t-75 132q-17 35 -32.5 58.5t-30.5 38t-31 20.5t-35 6q-42 0 -70.5 -24.5t-28.5 -64.5q0 -24 9.5 -42.5t23.5 -35.5t30.5 -33.5t30.5 -37t23.5 -45.5t9.5 -59q0 -72 -40.5 -128t-111 -93.5t-166 -57
t-206.5 -19.5q-146 0 -246 36t-162 100.5t-89.5 155t-27.5 199.5q0 35 3 68.5t9 71.5l-275 -54v98z" />
    <glyph glyph-name="uni06CE.init" unicode="&#x6ce;" horiz-adv-x="684" 
d="M441 738v-407q0 -103 -26 -169.5t-71 -105.5t-105.5 -54.5t-128.5 -15.5h-110q-35 0 -52.5 19t-17.5 47q0 27 17.5 46t52.5 19h115q52 0 90.5 10.5t64 35t38.5 66t13 103.5v406h120zM330 931l-234 352h105l179 -265l175 265h103l-230 -352h-98zM262 -327h-147v143h147
v-143zM522 -327h-147v143h147v-143z" />
    <glyph glyph-name="uni06CE.medi" unicode="&#x6ce;" horiz-adv-x="684" 
d="M441 338q0 -66 12.5 -109t41 -67.5t75 -34.5t114.5 -10v-131h-52q-101 0 -164.5 33t-90.5 92h-4q-38 -63 -103 -94t-143 -31h-127q-35 0 -52.5 19t-17.5 47q0 27 17.5 46t52.5 19h124q40 0 76 10t63 32t42.5 57.5t15.5 86.5v435h120v-400zM330 931l-234 352h105l179 -265
l175 265h103l-230 -352h-98zM318 -327h-147v143h147v-143zM578 -327h-147v143h147v-143z" />
    <glyph glyph-name="uni06CE.fina" unicode="&#x6ce;" horiz-adv-x="1710" 
d="M323 493q-14 -64 -23 -119.5t-9 -117.5q0 -88 20.5 -158t70.5 -118.5t135 -74t214 -25.5q89 0 158 12t116 33t71.5 50t24.5 63t-20 58.5t-43.5 50.5t-43.5 59.5t-20 85.5q0 48 18 89t48.5 70t71 45.5t85.5 16.5q63 0 114.5 -36t97.5 -122q40 -71 67.5 -117t58 -73
t70.5 -37.5t105 -10.5v-131h-52q-57 0 -102 14t-83.5 47t-75 86t-76.5 131q-17 35 -32.5 58.5t-30.5 38t-31 20.5t-35 6q-42 0 -70.5 -24.5t-28.5 -64.5q0 -24 9.5 -42.5t23.5 -35.5t30.5 -33.5t30.5 -37t23.5 -45.5t9.5 -59q0 -72 -40.5 -128t-111 -93.5t-166 -57
t-206.5 -19.5q-146 0 -246 36t-162 100.5t-89.5 155t-27.5 199.5q0 63 9 124.5t26 130.5h117zM704 705l-234 352h105l179 -265l175 265h103l-230 -352h-98z" />
    <glyph glyph-name="uni06CF.fina" unicode="&#x6cf;" horiz-adv-x="936" 
d="M0 -295q79 -32 160 -45.5t162 -13.5q72 0 125 14.5t90.5 42.5t61.5 69.5t39 95.5q5 19 10.5 49.5t9.5 68.5h-145q-89 0 -157.5 22.5t-115 62.5t-71 95t-24.5 120q0 63 23.5 128.5t64.5 119t96 87.5t118 34q76 0 134.5 -45t107.5 -130q42 -74 64.5 -170.5t26.5 -192.5h156
v-131h-157q-9 -111 -40 -198.5t-87 -149t-138 -94t-192 -32.5q-87 0 -167.5 16t-154.5 49v128zM623 315q-14 40 -33.5 77.5t-43 66t-50.5 45.5t-55 17q-33 0 -64 -19t-55 -50t-38.5 -71.5t-14.5 -82.5q0 -85 64.5 -133t192.5 -48h133q-2 44 -10.5 97t-25.5 101zM500 855
h-147v143h147v-143z" />
    <glyph glyph-name="uni06D0" unicode="&#x6d0;" horiz-adv-x="1501" arabic-form="isolated" 
d="M654 -21q-132 0 -223.5 32.5t-149.5 91.5t-84 141.5t-26 183.5q0 85 19.5 173t50.5 169h114q-29 -85 -46.5 -164.5t-17.5 -157.5q0 -79 19 -141t65 -105.5t121 -66.5t188 -23q110 0 204 22t162.5 58.5t107.5 83.5t39 97q0 42 -25.5 70t-63.5 51.5t-82 46t-82 53
t-63.5 73.5t-25.5 106q0 76 37.5 135.5t105.5 103.5t162.5 73t207.5 45v-126q-195 -21 -295.5 -80t-100.5 -141q0 -42 25.5 -70.5t63.5 -52t83 -46t83 -51.5t63.5 -68.5t25.5 -97.5q0 -73 -43.5 -147.5t-127.5 -134.5t-207.5 -98t-283.5 -38zM793 -558h-147v143h147v-143z
M793 -327h-147v143h147v-143z" />
    <glyph glyph-name="uni06D1.init" unicode="&#x6d1;" horiz-adv-x="612" 
d="M441 738v-407q0 -103 -26 -169.5t-71 -105.5t-105.5 -54.5t-128.5 -15.5h-110q-35 0 -52.5 19t-17.5 47q0 27 17.5 46t52.5 19h115q52 0 90.5 10.5t64 35t38.5 66t13 103.5v406h120zM308 -327h-148v143h148v-143zM567 -327h-147v143h147v-143zM438 -550h-147v143h147
v-143z" />
    <glyph glyph-name="uni06D1.medi" unicode="&#x6d1;" horiz-adv-x="684" 
d="M441 338q0 -66 12.5 -109t41 -67.5t75 -34.5t114.5 -10v-131h-52q-101 0 -164.5 33t-90.5 92h-4q-38 -63 -103 -94t-143 -31h-127q-35 0 -52.5 19t-17.5 47q0 27 17.5 46t52.5 19h124q40 0 76 10t63 32t42.5 57.5t15.5 86.5v435h120v-400zM319 -327h-148v143h148v-143z
M578 -327h-147v143h147v-143zM449 -550h-147v143h147v-143z" />
    <glyph glyph-name="uni06D1.fina" unicode="&#x6d1;" horiz-adv-x="1710" 
d="M1710 117v-131h-43q-60 0 -105.5 15t-80 40.5t-59.5 58.5t-44.5 68.5t-34.5 71.5t-29 67q-16 41 -30 74.5t-29.5 57t-34.5 36.5t-44 13q-34 0 -54 -20.5t-20 -49.5q0 -22 11 -44t24.5 -47t25 -54t11.5 -66q0 -62 -37.5 -109t-102 -79t-152 -48.5t-187.5 -16.5
q-151 0 -254.5 35.5t-167 100t-91.5 155t-28 200.5q0 63 8.5 123t25.5 129h116q-14 -63 -22 -123t-8 -119q0 -85 21 -153.5t73 -116.5t139.5 -73.5t220.5 -25.5q91 0 153.5 10.5t101 29.5t55.5 44t17 54q0 25 -11 48t-23.5 47t-23.5 51t-11 61q0 39 15.5 72.5t42 58t62 38.5
t75.5 14q44 0 78.5 -20.5t61.5 -52.5t47.5 -70.5t36.5 -75.5q23 -56 42.5 -106t47 -88.5t70 -61t110.5 -22.5h35zM647 -327h-148v143h148v-143zM906 -327h-147v143h147v-143zM777 -550h-147v143h147v-143z" />
    <glyph glyph-name="uni06D2" unicode="&#x6d2;" horiz-adv-x="1881" arabic-form="isolated" 
d="M823 733q-58 -48 -113.5 -86.5t-108 -70.5t-101 -59.5t-93.5 -53.5q-75 -44 -114 -86.5t-39 -94.5q0 -43 31 -74.5t99.5 -52.5t176.5 -31t262 -10q288 0 527 11t418 31v-130q-230 -24 -473.5 -34t-479.5 -10q-195 0 -325.5 19t-209.5 56t-112.5 91.5t-33.5 125.5
q0 96 62.5 170.5t167.5 136.5q101 60 199.5 119t186.5 137z" />
    <glyph glyph-name="uni06D3" unicode="&#x6d3;" horiz-adv-x="1881" arabic-form="isolated" 
d="M823 733q-58 -48 -113.5 -86.5t-108 -70.5t-101 -59.5t-93.5 -53.5q-75 -44 -114 -86.5t-39 -94.5q0 -43 31 -74.5t99.5 -52.5t176.5 -31t262 -10q288 0 527 11t418 31v-130q-230 -24 -473.5 -34t-479.5 -10q-195 0 -325.5 19t-209.5 56t-112.5 91.5t-33.5 125.5
q0 96 62.5 170.5t167.5 136.5q101 60 199.5 119t186.5 137zM555 1215q-13 3 -27.5 5t-30.5 2q-50 0 -83.5 -23t-33.5 -68q0 -93 136 -93h83v-87h-342v81h90l1 5q-23 23 -36.5 52t-13.5 62q0 34 14 63.5t39.5 51t61 33.5t78.5 12q31 0 64 -6v-90z" />
    <glyph glyph-name="uni06D5.fina" unicode="&#x6d5;" horiz-adv-x="976" 
d="M684 934h122v-582q0 -64 8 -109t27.5 -73t52 -40.5t82.5 -12.5v-131h-22q-52 0 -97 15t-79 43.5t-56.5 71t-29.5 98.5q-44 -19 -98.5 -28.5t-109.5 -9.5q-68 0 -127.5 16t-103.5 48.5t-69.5 81t-25.5 114.5q0 79 37 145.5t105.5 118t166 87t217.5 53.5v94zM276 451
q0 -38 16 -66.5t44.5 -47.5t69 -28t89.5 -9q54 0 104.5 9.5t84.5 23.5v388q-94 -14 -169.5 -39.5t-128.5 -60.5t-81.5 -78t-28.5 -92z" />
    <glyph glyph-name="uni06EE.fina" unicode="&#x6ee;" horiz-adv-x="1026" 
d="M79 132q84 -11 168.5 -16.5t149.5 -5.5q78 0 131.5 9t87.5 27.5t49 47.5t15 68q0 40 -12.5 105t-35 149.5t-54 185.5t-70.5 213h130q24 -75 45 -147t40.5 -142.5t37.5 -140t37 -140.5q15 -52 32.5 -94t44 -72t63 -46t88.5 -16v-131h-43q-32 0 -63.5 8.5t-59.5 26.5
t-51 46t-38 68h-5q-44 -86 -134 -121.5t-231 -35.5q-61 0 -137 6t-150 16zM608 1527l233 -352h-105l-177 264l-177 -264h-103l231 352h98z" />
    <glyph glyph-name="uni06EF.fina" unicode="&#x6ef;" horiz-adv-x="812" 
d="M532 611q27 -75 50.5 -158t37.5 -168t63 -126.5t129 -41.5v-131h-13q-60 0 -95 18t-58 53q-2 0 -2.5 -0.5t-2.5 -0.5q0 -141 -31 -243.5t-86.5 -169t-132.5 -99t-168 -32.5q-57 0 -113.5 12t-109.5 33v128q57 -19 110 -29t103 -10q160 0 233.5 104t73.5 309
q0 140 -33.5 279t-85.5 273h131zM466 1199l233 -352h-105l-177 264l-177 -264h-103l231 352h98z" />
    <glyph glyph-name="uni06FA.init" unicode="&#x6fa;" horiz-adv-x="1663" 
d="M436 572v-209q0 -63 10 -109.5t33.5 -76.5t62.5 -45t96 -15q43 0 80.5 11t65 36t43 66t15.5 100v242h120v-207q0 -65 11 -112t36 -77t66 -44.5t101 -14.5q47 0 83 10.5t60 35.5t36.5 64.5t12.5 98.5v412h120v-419q0 -95 -24.5 -158.5t-67.5 -102.5t-100 -55.5t-123 -16.5
q-201 0 -271 137h-4q-47 -72 -115.5 -104.5t-149.5 -32.5q-97 0 -162.5 32t-97.5 101h-4q-43 -72 -109.5 -102.5t-143.5 -30.5h-116q-35 0 -52.5 19t-17.5 47q0 27 17.5 46t52.5 19h109q43 0 80.5 11t65.5 35.5t44.5 64.5t16.5 98v246h120zM853 855h-147v143h147v-143z
M1113 855h-147v143h147v-143zM983 1086h-147v143h147v-143zM982 -327h-147v143h147v-143z" />
    <glyph glyph-name="uni06FA.medi" unicode="&#x6fa;" horiz-adv-x="1710" 
d="M436 572v-209q0 -63 10 -109.5t33.5 -76.5t62.5 -45t96 -15q43 0 80.5 11t65 36t43 66t15.5 100v242h120v-207q0 -65 11 -112t36 -77t66 -44.5t101 -14.5q47 0 83 10.5t60 35.5t36.5 64.5t12.5 98.5v373h120v-358q0 -58 12 -100.5t38.5 -70t68.5 -40.5t103 -13v-131h-35
q-92 0 -153.5 30.5t-90.5 88.5h-6q-42 -65 -108 -92t-144 -27q-201 0 -271 137h-4q-47 -72 -115.5 -104.5t-149.5 -32.5q-97 0 -162.5 32t-97.5 101h-4q-43 -72 -109.5 -102.5t-143.5 -30.5h-116q-35 0 -52.5 19t-17.5 47q0 27 17.5 46t52.5 19h109q43 0 80.5 11t65.5 35.5
t44.5 64.5t16.5 98v246h120zM982 -327h-147v143h147v-143zM853 855h-147v143h147v-143zM1113 855h-147v143h147v-143zM983 1086h-147v143h147v-143z" />
    <glyph glyph-name="uni06FA.fina" unicode="&#x6fa;" horiz-adv-x="2394" 
d="M289 245q-13 -71 -18.5 -131t-5.5 -114q0 -95 19.5 -162.5t62 -110t109.5 -62.5t163 -20q97 0 169 23.5t119.5 76t71 135.5t23.5 202q0 83 -10.5 178.5t-30.5 208.5h119q5 -29 9 -53.5t7.5 -48t6.5 -47t6 -50.5q10 -79 64.5 -116t153.5 -37q42 0 78.5 11t63.5 36t42 66
t15 100v242h120v-207q0 -65 10.5 -112t35.5 -77t66 -44.5t102 -14.5q46 0 82 10.5t60.5 35.5t37 64.5t12.5 98.5v373h120v-358q0 -58 12 -100.5t38.5 -70t69 -40.5t102.5 -13v-131h-30q-92 0 -156 29.5t-94 89.5h-6q-42 -65 -107.5 -92t-143.5 -27q-201 0 -271 137h-4
q-43 -70 -111 -103.5t-149 -33.5q-72 0 -121 20.5t-78 53.5q-2 0 -2.5 -0.5t-2.5 -0.5q-3 -272 -128.5 -409.5t-380.5 -137.5q-122 0 -210 31t-144.5 90.5t-83.5 146.5t-27 200q0 60 8 125.5t23 139.5h114zM1670 -327h-147v143h147v-143zM1535 855h-147v143h147v-143z
M1795 855h-147v143h147v-143zM1665 1086h-147v143h147v-143z" />
    <glyph glyph-name="uni06FB.init" unicode="&#x6fb;" horiz-adv-x="1950" 
d="M397 469q6 -30 10.5 -54.5t8 -48t7 -47.5t7.5 -51q9 -64 45.5 -104.5t113.5 -45.5q36 83 82 163t102 151t121 131.5t138 104t153.5 68t167.5 24.5q102 0 181.5 -32t134 -89t83 -136t28.5 -174q0 -111 -35 -179t-103 -105.5t-168.5 -50t-230.5 -12.5q-162 0 -286.5 0.5
t-215 2.5t-148 7t-84.5 14q-48 14 -79 39.5t-53 63.5h-4q-40 -66 -105.5 -94.5t-146.5 -28.5h-121q-35 0 -52.5 19t-17.5 47q0 27 17.5 46t52.5 19h114q45 0 81 10.5t61.5 28.5t39.5 42t14 52q0 48 -9 103t-22 116h118zM1285 114q98 0 169 7.5t116.5 30t67.5 62.5t22 103
q0 81 -24 139.5t-67 96.5t-102 56.5t-129 18.5q-105 0 -199.5 -40t-174.5 -109t-144 -162.5t-109 -200.5zM1090 934h-147v143h147v-143zM1147 -327h-147v143h147v-143z" />
    <glyph glyph-name="uni06FB.medi" unicode="&#x6fb;" horiz-adv-x="1950" 
d="M397 469q6 -30 10.5 -54.5t8 -48t7 -47.5t7.5 -51q9 -64 45.5 -104.5t113.5 -45.5q36 83 82 163t102 151t121 131.5t138 104t153.5 68t167.5 24.5q102 0 181 -31.5t133.5 -87.5t83 -133.5t29.5 -170.5q1 -61 9.5 -103t28 -68t52 -37.5t80.5 -11.5v-131h-17
q-162 0 -212 127h-6q-33 -42 -78 -67.5t-104 -39.5t-131 -19t-159 -5q-162 0 -286.5 0.5t-215 2.5t-148 7t-84.5 14q-48 14 -79 39.5t-53 63.5h-4q-40 -66 -105.5 -94.5t-146.5 -28.5h-121q-35 0 -52.5 19t-17.5 47q0 27 17.5 46t52.5 19h115q45 0 81 10t61.5 28t39 42.5
t13.5 52.5q0 48 -9 103t-22 116h118zM1285 114q98 0 169 8t116.5 30t67.5 62t22 103q0 81 -24 139.5t-67 96.5t-102 56.5t-129 18.5q-105 0 -199.5 -40t-174.5 -109t-144 -162.5t-109 -200.5zM1090 934h-147v143h147v-143zM1146 -327h-147v143h147v-143z" />
    <glyph glyph-name="uni06FB.fina" unicode="&#x6fb;" horiz-adv-x="2638" 
d="M299 245q-13 -71 -18.5 -131t-5.5 -114q0 -95 19.5 -162.5t62 -110t109.5 -62.5t163 -20q97 0 169 23.5t119.5 76t71 135.5t23.5 202q0 83 -10.5 181t-33.5 206h118q6 -30 10.5 -54.5t8 -48t7 -47.5t7.5 -51q9 -64 45 -104.5t113 -45.5q35 83 81.5 163t102.5 151
t121 131.5t138 104t153.5 68t167.5 24.5q102 0 181 -31.5t133.5 -88t83.5 -134t30 -169.5q0 -61 8.5 -103t28 -68t52 -37.5t80.5 -11.5v-131h-17q-161 0 -212 127h-6q-33 -42 -78 -67.5t-103.5 -39.5t-130.5 -19t-159 -5q-304 0 -475 2t-222 16q-35 9 -60 24.5t-42 35.5
l-5 -1q-3 -272 -129 -409.5t-383 -137.5q-122 0 -209 31t-143.5 90.5t-83 146.5t-26.5 200q0 60 8 125.5t23 139.5h114zM1973 114q99 0 169.5 7.5t116.5 30t67.5 62.5t21.5 103q0 81 -24 139.5t-66.5 96.5t-102 56.5t-129.5 18.5q-105 0 -199 -39.5t-174.5 -108.5
t-144.5 -162.5t-109 -201.5zM1817 934h-147v143h147v-143zM1874 -327h-147v143h147v-143z" />
    <glyph glyph-name="uni06FC.init" unicode="&#x6fc;" horiz-adv-x="1197" 
d="M1026 162q-97 -47 -182.5 -80t-173.5 -54.5t-184.5 -31.5t-216.5 -10h-269q-35 0 -52.5 19t-17.5 47q0 27 17.5 46t52.5 19h360q0 2 0.5 3t0.5 3q-104 72 -151.5 162t-47.5 181q0 85 35 157.5t98 125.5t149.5 83.5t190.5 30.5q44 0 86.5 -4.5t90.5 -13.5v-134
q-46 8 -90.5 14t-103.5 6q-68 0 -128.5 -17t-105.5 -51t-71.5 -84.5t-26.5 -117.5q0 -93 64.5 -179t194.5 -145q115 20 230.5 59.5t250.5 104.5v-139zM602 1031h-147v143h147v-143zM641 -327h-147v143h147v-143z" />
    <glyph glyph-name="uni06FC.medi" unicode="&#x6fc;" horiz-adv-x="1137" 
d="M171 721q114 23 232.5 39.5t237.5 16.5q66 0 125.5 -9t104 -30.5t71 -57t26.5 -87.5q0 -38 -15 -87.5t-45.5 -103.5t-76 -109.5t-106.5 -106.5q70 -32 175.5 -50.5t236.5 -18.5v-131h-69q-257 0 -457 118q-101 -56 -226 -87t-287 -31h-98q-35 0 -52.5 19t-17.5 47
q0 27 17.5 46t52.5 19h95q133 0 232.5 17.5t172.5 48.5q-40 34 -85.5 82.5t-90 103.5t-84.5 113t-69 112v127zM618 245q51 35 93.5 79.5t72.5 88.5t46.5 84t16.5 67q0 46 -57 68t-168 22q-84 0 -170 -9.5t-158 -22.5v-11q30 -50 71 -104t85.5 -104t88.5 -91.5t79 -66.5z
M660 934h-147v143h147v-143zM660 -327h-147v143h147v-143z" />
    <glyph glyph-name="uni06FC.fina" unicode="&#x6fc;" horiz-adv-x="1137" 
d="M162 804q107 23 230 39.5t254 16.5q65 0 123.5 -9.5t102.5 -31t70 -56.5t26 -85q0 -36 -15.5 -81.5t-55 -95.5t-106.5 -103.5t-169 -106.5q51 -45 103 -78t109 -54t121.5 -31.5t140.5 -10.5h41v-131h-81q-77 0 -146 13t-136 42.5t-134 77.5t-139 118
q-143 -58 -208.5 -136.5t-65.5 -175.5q0 -59 24.5 -114t76.5 -97t132.5 -67t192.5 -25q106 0 197.5 18t175.5 51v-122q-91 -36 -181 -54t-194 -18q-141 0 -244.5 33t-171.5 89t-101 131.5t-33 160.5q0 60 18 116t57 107.5t100.5 98t148.5 88.5q-35 38 -72 85t-72.5 95.5
t-66 95.5t-52.5 85v122zM541 370q88 43 147 84t94.5 76.5t50 65.5t14.5 52q0 43 -56.5 66t-163.5 23q-88 0 -179 -9t-163 -23v-12q25 -40 57 -84.5t65.5 -88t68 -82.5t65.5 -68zM660 1031h-147v143h147v-143zM618 -184h-147v143h147v-143z" />
    <glyph glyph-name="uni06FF.init" unicode="&#x6ff;" horiz-adv-x="1298" 
d="M320 1052q215 -119 367.5 -235t250 -221.5t143 -196.5t45.5 -160q0 -47 -12.5 -92.5t-35.5 -81t-56 -57.5t-73 -22q-36 0 -84 5t-101 15.5t-109 27t-108 40.5q-38 -27 -79 -44t-89 -27t-103.5 -13.5t-122.5 -3.5h-153q-30 0 -45 19.5t-15 47.5q0 27 14.5 45.5t45.5 18.5
l200 -1q77 -1 132.5 5t87.5 16v3q-69 31 -116.5 66t-77 74t-42.5 82t-13 90q0 53 19.5 111.5t54.5 110.5t83.5 92.5t107.5 57.5q0 1 0.5 2.5t0.5 3.5l-117 66v156zM522 211q58 61 82 126t24 135q0 53 -13 97t-33 76t-45 49.5t-49 17.5q-31 0 -66.5 -22.5t-65.5 -58
t-49.5 -79.5t-19.5 -87q0 -31 11 -61.5t38 -61.5t72.5 -63.5t113.5 -67.5zM710 620q23 -69 23 -160q0 -81 -25.5 -156.5t-76.5 -134.5q67 -27 155 -44t177 -20q19 23 29.5 53.5t10.5 62.5q0 44 -21.5 93t-59.5 101t-91 105t-116 105zM637 1554l233 -352h-105l-177 264
l-177 -264h-103l231 352h98z" />
    <glyph glyph-name="uni06FF.medi" unicode="&#x6ff;" horiz-adv-x="975" 
d="M171 117q16 114 44 210t63.5 173t77 135.5t83 97.5t82 59t75.5 20q42 0 81.5 -28.5t69.5 -76t48.5 -110.5t18.5 -132q0 -112 -45 -198.5t-114 -142.5q1 -2 1 -3.5t1 -3.5h318v-131h-308l-1 -6q75 -45 111.5 -112t36.5 -139q0 -49 -17 -93t-48.5 -77t-76.5 -52.5
t-100 -19.5q-66 0 -135 29.5t-126 91t-95.5 155.5t-44.5 223h-171q-29 0 -44.5 19.5t-15.5 46.5q0 28 15.5 46.5t44.5 18.5h171zM433 117q53 0 100.5 27t83 72t56.5 104t21 123q0 49 -10.5 92.5t-27.5 75t-39 50t-45 18.5q-33 0 -76 -41.5t-84.5 -116t-75 -177.5t-46.5 -227
h143zM289 -14q4 -90 28.5 -158.5t62.5 -115t86.5 -70t99.5 -23.5q65 0 96.5 37.5t31.5 93.5q0 43 -19.5 85t-55 75.5t-85 54.5t-109.5 21h-136zM609 1363l233 -352h-105l-177 264l-177 -264h-103l231 352h98z" />
    <glyph glyph-name="uni06FF.fina" unicode="&#x6ff;" horiz-adv-x="1300" 
d="M487 -14q-56 0 -110 1t-99.5 3.5t-80.5 5t-54 5.5q-6 34 -12 67.5t-12 65.5q44 -5 85.5 -8t86 -5t93 -3t107.5 -1q24 171 73 301t109 217.5t123.5 131.5t115.5 44q42 0 81.5 -28t69.5 -76t48.5 -111t18.5 -132q0 -55 -12 -104.5t-33.5 -92.5t-51 -79t-63.5 -64l2 -7h328
v-131h-318q0 -4 -1 -6q75 -45 112 -111.5t37 -138.5q0 -50 -17.5 -94t-49 -77t-76 -52.5t-98.5 -19.5q-67 0 -136.5 29.5t-126.5 91t-95.5 155.5t-43.5 223zM749 117q53 0 100.5 27t83 72t56.5 104t21 123q0 45 -10.5 87.5t-27.5 75.5t-39 53t-45 20q-33 0 -75.5 -41.5
t-83 -116t-73.5 -177.5t-46 -227h139zM605 -14q4 -90 28.5 -158.5t62.5 -115t86.5 -70t100.5 -23.5q64 0 95 37.5t31 93.5q0 43 -19.5 85t-54.5 75.5t-85 54.5t-110 21h-135zM934 1363l233 -352h-105l-177 264l-177 -264h-103l231 352h98z" />
    <glyph glyph-name="uniFB51" unicode="&#x671;" horiz-adv-x="513" arabic-form="final" 
d="M513 -14h-37q-88 0 -146.5 24.5t-94 67.5t-50 102.5t-14.5 128.5v1207h120v-1148q0 -71 8.5 -119t32.5 -77.5t67.5 -42t113.5 -12.5v-131zM-91 1739q42 31 78 47t74 16q12 0 22.5 -1.5t21.5 -4.5q38 112 95.5 166t131.5 54q38 0 68 -13t50.5 -35.5t31.5 -51.5t11 -61
q0 -39 -15 -74t-41.5 -61t-62 -41.5t-76.5 -15.5q-36 0 -68.5 8.5t-62 18.5t-56.5 18.5t-52 8.5q-21 0 -49 -10.5t-58 -34.5zM292 1748q28 0 49.5 9t36.5 23.5t22.5 33.5t7.5 39q0 36 -24.5 57t-58.5 21q-43 0 -82 -38t-69 -119q27 -11 57 -18.5t61 -7.5z" />
    <glyph glyph-name="uniFB53" unicode="&#x67b;" horiz-adv-x="1881" arabic-form="final" 
d="M1659 738v-400q0 -58 11 -100t36.5 -69t68.5 -39.5t106 -12.5v-131h-43q-97 0 -155 31.5t-89 97.5h-4q-38 -42 -92.5 -68.5t-130.5 -41.5t-174.5 -21t-223.5 -6q-143 0 -252.5 4.5t-191.5 16t-140 31.5t-98 52q-61 48 -88.5 118.5t-27.5 161.5q0 54 8.5 108.5t20.5 102.5
h118q-11 -40 -18.5 -88t-7.5 -101q0 -69 19 -118.5t64 -81.5q29 -20 74.5 -34t118 -23t177 -13t251.5 -4q152 0 256 8t167.5 32.5t91.5 69.5t28 119v399h120zM1002 -558h-147v143h147v-143zM1002 -327h-147v143h147v-143z" />
    <glyph glyph-name="uniFB54" unicode="&#x67b;" horiz-adv-x="612" arabic-form="initial" 
d="M441 738v-407q0 -103 -26 -169.5t-71 -105.5t-105.5 -54.5t-128.5 -15.5h-110q-35 0 -52.5 19t-17.5 47q0 27 17.5 46t52.5 19h115q52 0 90.5 10.5t64 35t38.5 66t13 103.5v406h120zM448 -558h-147v143h147v-143zM448 -327h-147v143h147v-143z" />
    <glyph glyph-name="uniFB55" unicode="&#x67b;" horiz-adv-x="684" arabic-form="medial" 
d="M441 338q0 -66 12.5 -109t41 -67.5t75 -34.5t114.5 -10v-131h-52q-101 0 -164.5 33t-90.5 92h-4q-38 -63 -103 -94t-143 -31h-127q-35 0 -52.5 19t-17.5 47q0 27 17.5 46t52.5 19h124q40 0 76 10t63 32t42.5 57.5t15.5 86.5v435h120v-400zM448 -558h-147v143h147v-143z
M448 -327h-147v143h147v-143z" />
    <glyph glyph-name="uniFB57" unicode="&#x67e;" horiz-adv-x="1881" arabic-form="final" 
d="M1659 738v-400q0 -58 11 -100t36.5 -69t68.5 -39.5t106 -12.5v-131h-43q-97 0 -155 31.5t-89 97.5h-4q-38 -42 -92.5 -68.5t-130.5 -41.5t-174.5 -21t-223.5 -6q-143 0 -252.5 4.5t-191.5 16t-140 31.5t-98 52q-61 48 -88.5 118.5t-27.5 161.5q0 54 8.5 108.5t20.5 102.5
h118q-11 -40 -18.5 -88t-7.5 -101q0 -69 19 -118.5t64 -81.5q29 -20 74.5 -34t118 -23t177 -13t251.5 -4q152 0 256 8t167.5 32.5t91.5 69.5t28 119v399h120zM832 -327h-148v143h148v-143zM1091 -327h-147v143h147v-143zM962 -550h-147v143h147v-143z" />
    <glyph glyph-name="uniFB58" unicode="&#x67e;" horiz-adv-x="612" arabic-form="initial" 
d="M441 738v-407q0 -103 -26 -169.5t-71 -105.5t-105.5 -54.5t-128.5 -15.5h-110q-35 0 -52.5 19t-17.5 47q0 27 17.5 46t52.5 19h115q52 0 90.5 10.5t64 35t38.5 66t13 103.5v406h120zM292 -327h-148v143h148v-143zM551 -327h-147v143h147v-143zM422 -550h-147v143h147
v-143z" />
    <glyph glyph-name="uniFB59" unicode="&#x67e;" horiz-adv-x="684" arabic-form="medial" 
d="M441 338q0 -66 12.5 -109t41 -67.5t75 -34.5t114.5 -10v-131h-52q-101 0 -164.5 33t-90.5 92h-4q-38 -63 -103 -94t-143 -31h-127q-35 0 -52.5 19t-17.5 47q0 27 17.5 46t52.5 19h124q40 0 76 10t63 32t42.5 57.5t15.5 86.5v435h120v-400zM319 -327h-148v143h148v-143z
M578 -327h-147v143h147v-143zM449 -550h-147v143h147v-143z" />
    <glyph glyph-name="uniFB5B" unicode="&#x680;" horiz-adv-x="1881" arabic-form="final" 
d="M1659 738v-400q0 -58 11 -100t36.5 -69t68.5 -39.5t106 -12.5v-131h-43q-97 0 -155 31.5t-89 97.5h-4q-38 -42 -92.5 -68.5t-130.5 -41.5t-174.5 -21t-223.5 -6q-143 0 -252.5 4.5t-191.5 16t-140 31.5t-98 52q-61 48 -88.5 118.5t-27.5 161.5q0 54 8.5 108.5t20.5 102.5
h118q-11 -40 -18.5 -88t-7.5 -101q0 -69 19 -118.5t64 -81.5q29 -20 74.5 -34t118 -23t177 -13t251.5 -4q152 0 256 8t167.5 32.5t91.5 69.5t28 119v399h120zM832 -568h-147v143h147v-143zM1092 -568h-147v143h147v-143zM832 -327h-147v143h147v-143zM1092 -327h-147v143
h147v-143z" />
    <glyph glyph-name="uniFB5C" unicode="&#x680;" horiz-adv-x="612" arabic-form="initial" 
d="M441 738v-407q0 -103 -26 -169.5t-71 -105.5t-105.5 -54.5t-128.5 -15.5h-110q-35 0 -52.5 19t-17.5 47q0 27 17.5 46t52.5 19h115q52 0 90.5 10.5t64 35t38.5 66t13 103.5v406h120zM318 -568h-147v143h147v-143zM578 -568h-147v143h147v-143zM318 -327h-147v143h147
v-143zM578 -327h-147v143h147v-143z" />
    <glyph glyph-name="uniFB5D" unicode="&#x680;" horiz-adv-x="684" arabic-form="medial" 
d="M441 338q0 -66 12.5 -109t41 -67.5t75 -34.5t114.5 -10v-131h-52q-101 0 -164.5 33t-90.5 92h-4q-38 -63 -103 -94t-143 -31h-127q-35 0 -52.5 19t-17.5 47q0 27 17.5 46t52.5 19h124q40 0 76 10t63 32t42.5 57.5t15.5 86.5v435h120v-400zM319 -568h-147v143h147v-143z
M579 -568h-147v143h147v-143zM319 -327h-147v143h147v-143zM579 -327h-147v143h147v-143z" />
    <glyph glyph-name="uniFB5F" unicode="&#x67a;" horiz-adv-x="1881" arabic-form="final" 
d="M1659 738v-400q0 -58 11 -100t36.5 -69t68.5 -39.5t106 -12.5v-131h-43q-97 0 -155 31.5t-89 97.5h-4q-38 -42 -92.5 -68.5t-130.5 -41.5t-174.5 -21t-223.5 -6q-143 0 -252.5 4.5t-191.5 16t-140 31.5t-98 52q-61 48 -88.5 118.5t-27.5 161.5q0 54 8.5 108.5t20.5 102.5
h118q-11 -40 -18.5 -88t-7.5 -101q0 -69 19 -118.5t64 -81.5q29 -20 74.5 -34t118 -23t177 -13t251.5 -4q152 0 256 8t167.5 32.5t91.5 69.5t28 119v399h120zM1002 934h-147v143h147v-143zM1002 1165h-147v143h147v-143z" />
    <glyph glyph-name="uniFB60" unicode="&#x67a;" horiz-adv-x="612" arabic-form="initial" 
d="M441 738v-407q0 -103 -26 -169.5t-71 -105.5t-105.5 -54.5t-128.5 -15.5h-110q-35 0 -52.5 19t-17.5 47q0 27 17.5 46t52.5 19h115q52 0 90.5 10.5t64 35t38.5 66t13 103.5v406h120zM452 934h-147v143h147v-143zM452 1165h-147v143h147v-143z" />
    <glyph glyph-name="uniFB61" unicode="&#x67a;" horiz-adv-x="684" arabic-form="medial" 
d="M441 338q0 -66 12.5 -109t41 -67.5t75 -34.5t114.5 -10v-131h-52q-101 0 -164.5 33t-90.5 92h-4q-38 -63 -103 -94t-143 -31h-127q-35 0 -52.5 19t-17.5 47q0 27 17.5 46t52.5 19h124q40 0 76 10t63 32t42.5 57.5t15.5 86.5v435h120v-400zM452 934h-147v143h147v-143z
M452 1165h-147v143h147v-143z" />
    <glyph glyph-name="uniFB63" unicode="&#x67f;" horiz-adv-x="1881" arabic-form="final" 
d="M1659 738v-400q0 -58 11 -100t36.5 -69t68.5 -39.5t106 -12.5v-131h-43q-97 0 -155 31.5t-89 97.5h-4q-38 -42 -92.5 -68.5t-130.5 -41.5t-174.5 -21t-223.5 -6q-143 0 -252.5 4.5t-191.5 16t-140 31.5t-98 52q-61 48 -88.5 118.5t-27.5 161.5q0 54 8.5 108.5t20.5 102.5
h118q-11 -40 -18.5 -88t-7.5 -101q0 -69 19 -118.5t64 -81.5q29 -20 74.5 -34t118 -23t177 -13t251.5 -4q152 0 256 8t167.5 32.5t91.5 69.5t28 119v399h120zM876 934h-147v143h147v-143zM1136 934h-147v143h147v-143zM876 1175h-147v143h147v-143zM1136 1175h-147v143h147
v-143z" />
    <glyph glyph-name="uniFB64" unicode="&#x67f;" horiz-adv-x="612" arabic-form="initial" 
d="M441 738v-407q0 -103 -26 -169.5t-71 -105.5t-105.5 -54.5t-128.5 -15.5h-110q-35 0 -52.5 19t-17.5 47q0 27 17.5 46t52.5 19h115q52 0 90.5 10.5t64 35t38.5 66t13 103.5v406h120zM322 934h-147v143h147v-143zM582 934h-147v143h147v-143zM322 1175h-147v143h147v-143z
M582 1175h-147v143h147v-143z" />
    <glyph glyph-name="uniFB65" unicode="&#x67f;" horiz-adv-x="650" arabic-form="medial" 
d="M441 338q0 -66 12.5 -109t41 -67.5t75 -34.5t114.5 -10v-131h-52q-101 0 -164.5 33t-90.5 92h-4q-38 -63 -103 -94t-143 -31h-127q-35 0 -52.5 19t-17.5 47q0 27 17.5 46t52.5 19h124q40 0 76 10t63 32t42.5 57.5t15.5 86.5v435h120v-400zM323 934h-147v143h147v-143z
M583 934h-147v143h147v-143zM323 1175h-147v143h147v-143zM583 1175h-147v143h147v-143z" />
    <glyph glyph-name="uniFB67" unicode="&#x679;" horiz-adv-x="1881" arabic-form="final" 
d="M1659 738v-400q0 -58 11 -100t36.5 -69t68.5 -39.5t106 -12.5v-131h-43q-97 0 -155 31.5t-89 97.5h-4q-38 -42 -92.5 -68.5t-130.5 -41.5t-174.5 -21t-223.5 -6q-143 0 -252.5 4.5t-191.5 16t-140 31.5t-98 52q-61 48 -88.5 118.5t-27.5 161.5q0 54 8.5 108.5t20.5 102.5
h118q-11 -40 -18.5 -88t-7.5 -101q0 -69 19 -118.5t64 -81.5q29 -20 74.5 -34t118 -23t177 -13t251.5 -4q152 0 256 8t167.5 32.5t91.5 69.5t28 119v399h120zM618 953q23 -2 53.5 -3.5t62.5 -2.5v482h83v-341l3 -1q38 64 91 98.5t119 34.5q42 0 73.5 -16.5t52.5 -43.5
t31.5 -63t10.5 -75q0 -59 -17 -92t-50.5 -50t-82.5 -21t-113 -4q-60 0 -106 0.5t-82 1.5t-64 2.5t-52 4.5zM941 946q52 0 86 1.5t54.5 9.5t29 24t8.5 45q0 50 -30.5 76.5t-73.5 26.5q-31 0 -60.5 -14t-56 -38.5t-48 -58t-37.5 -72.5h128z" />
    <glyph glyph-name="uniFB68" unicode="&#x679;" horiz-adv-x="684" arabic-form="initial" 
d="M441 738v-407q0 -103 -26 -169.5t-71 -105.5t-105.5 -54.5t-128.5 -15.5h-110q-35 0 -52.5 19t-17.5 47q0 27 17.5 46t52.5 19h115q52 0 90.5 10.5t64 35t38.5 66t13 103.5v406h120zM55 1032q23 -2 53.5 -3.5t62.5 -2.5v482h83v-341l3 -1q38 64 91 98.5t119 34.5
q42 0 73.5 -16.5t52.5 -43.5t31.5 -63t10.5 -75q0 -59 -17 -92t-50.5 -50t-82.5 -21t-113 -4q-60 0 -106 0.5t-82 1.5t-64 2.5t-52 4.5zM378 1025q52 0 86 1.5t54.5 9.5t29 24t8.5 45q0 50 -30.5 76.5t-73.5 26.5q-31 0 -60.5 -14t-56 -38.5t-48 -58t-37.5 -72.5h128z" />
    <glyph glyph-name="uniFB69" unicode="&#x679;" horiz-adv-x="684" arabic-form="medial" 
d="M441 338q0 -66 12.5 -109t41 -67.5t75 -34.5t114.5 -10v-131h-52q-101 0 -164.5 33t-90.5 92h-4q-38 -63 -103 -94t-143 -31h-127q-35 0 -52.5 19t-17.5 47q0 27 17.5 46t52.5 19h124q40 0 76 10t63 32t42.5 57.5t15.5 86.5v435h120v-400zM55 1032q23 -2 53.5 -3.5
t62.5 -2.5v482h83v-341l3 -1q38 64 91 98.5t119 34.5q42 0 73.5 -16.5t52.5 -43.5t31.5 -63t10.5 -75q0 -59 -17 -92t-50.5 -50t-82.5 -21t-113 -4q-60 0 -106 0.5t-82 1.5t-64 2.5t-52 4.5zM378 1025q52 0 86 1.5t54.5 9.5t29 24t8.5 45q0 50 -30.5 76.5t-73.5 26.5
q-31 0 -60.5 -14t-56 -38.5t-48 -58t-37.5 -72.5h128z" />
    <glyph glyph-name="uniFB6B" unicode="&#x6a4;" horiz-adv-x="2027" arabic-form="final" 
d="M1211 417q0 65 23.5 133t64 123.5t93.5 90.5t112 35q62 0 120 -39.5t109 -115.5q42 -63 70 -138.5t28 -159.5q0 -136 -89 -218q54 -8 120 -9.5t165 -1.5v-131h-66q-92 0 -182 12t-162 41q-42 -19 -95 -31t-114 -18.5t-128.5 -9t-136.5 -2.5h-195q-140 0 -245.5 4.5
t-184 16t-134 31.5t-94.5 52q-61 48 -90 118.5t-29 161.5q0 54 8.5 108.5t20.5 102.5h118q-11 -40 -18.5 -88t-7.5 -101q0 -69 20.5 -119t65.5 -81q31 -21 78 -35.5t124 -23t192 -12t283 -3.5q84 0 146 0.5t107.5 1.5t78 2.5t58.5 3.5q1 2 1 3t1 3q-127 55 -181.5 129
t-54.5 164zM1710 344q0 32 -8.5 68t-24 71.5t-36 68.5t-44.5 58t-50 40t-52 15q-29 0 -58.5 -21.5t-53.5 -56t-39 -76.5t-15 -84q0 -32 13.5 -64.5t46 -65.5t85.5 -67.5t131 -70.5q53 26 79 73t26 112zM1442 1031h-147v143h147v-143zM1702 1031h-147v143h147v-143z
M1572 1262h-147v143h147v-143z" />
    <glyph glyph-name="uniFB6C" unicode="&#x6a4;" horiz-adv-x="936" arabic-form="initial" 
d="M401 127q-123 55 -176.5 127.5t-53.5 162.5q0 65 23.5 133t64 123.5t93.5 90.5t112 35q62 0 120 -39t109 -117q41 -62 69.5 -137.5t28.5 -157.5q0 -111 -45 -181.5t-123.5 -110.5t-184.5 -55t-228 -15h-210q-35 0 -52.5 19t-17.5 47q0 27 17.5 46t52.5 19h171
q54 0 115.5 0.5t112.5 2.5zM670 344q0 32 -8.5 68t-24 71.5t-36 68.5t-44.5 58t-50 40t-52 15q-29 0 -58.5 -21.5t-53.5 -56t-39 -76.5t-15 -84q0 -32 14 -64t46 -65t85 -67.5t131 -71.5q48 24 76.5 71.5t28.5 113.5zM390 1031h-147v143h147v-143zM650 1031h-147v143h147
v-143zM520 1262h-147v143h147v-143z" />
    <glyph glyph-name="uniFB6D" unicode="&#x6a4;" horiz-adv-x="936" arabic-form="medial" 
d="M406 126q-125 52 -180 126t-55 165q0 65 23.5 133t64 123.5t93.5 90.5t112 35q62 0 120 -39t109 -116q42 -62 70 -138.5t28 -159.5q0 -68 -21.5 -122.5t-66.5 -95.5q22 -4 44.5 -6t50 -3t61 -1.5t77.5 -0.5v-131h-27q-89 0 -175.5 12.5t-156.5 41.5q-39 -17 -85.5 -27.5
t-97.5 -16.5t-105 -8t-109 -2h-180q-35 0 -52.5 19t-17.5 47q0 27 17.5 46t52.5 19h196q61 0 115.5 0.5t92.5 1.5zM670 344q0 32 -8.5 68t-24 71.5t-36 68.5t-44.5 58t-50 40t-52 15q-29 0 -58.5 -21.5t-53.5 -56t-39 -76.5t-15 -84q0 -32 14 -64.5t47 -66t86.5 -68
t131.5 -70.5q51 26 76.5 73.5t25.5 112.5zM390 1031h-147v143h147v-143zM650 1031h-147v143h147v-143zM520 1262h-147v143h147v-143z" />
    <glyph glyph-name="uniFB6F" unicode="&#x6a6;" horiz-adv-x="2027" arabic-form="final" 
d="M1211 417q0 65 23.5 133t64 123.5t93.5 90.5t112 35q62 0 120 -39.5t109 -115.5q42 -63 70 -138.5t28 -159.5q0 -136 -89 -218q54 -8 120 -9.5t165 -1.5v-131h-66q-92 0 -182 12t-162 41q-42 -19 -95 -31t-114 -18.5t-128.5 -9t-136.5 -2.5h-195q-140 0 -245.5 4.5
t-184 16t-134 31.5t-94.5 52q-61 48 -90 118.5t-29 161.5q0 54 8.5 108.5t20.5 102.5h118q-11 -40 -18.5 -88t-7.5 -101q0 -69 20.5 -119t65.5 -81q31 -21 78 -35.5t124 -23t192 -12t283 -3.5q84 0 146 0.5t107.5 1.5t78 2.5t58.5 3.5q1 2 1 3t1 3q-127 55 -181.5 129
t-54.5 164zM1710 344q0 32 -8.5 68t-24 71.5t-36 68.5t-44.5 58t-50 40t-52 15q-29 0 -58.5 -21.5t-53.5 -56t-39 -76.5t-15 -84q0 -32 13.5 -64.5t46 -65.5t85.5 -67.5t131 -70.5q53 26 79 73t26 112zM1442 1031h-147v143h147v-143zM1702 1031h-147v143h147v-143z
M1442 1272h-147v143h147v-143zM1702 1272h-147v143h147v-143z" />
    <glyph glyph-name="uniFB70" unicode="&#x6a6;" horiz-adv-x="936" arabic-form="initial" 
d="M401 127q-123 55 -176.5 127.5t-53.5 162.5q0 65 23.5 133t64 123.5t93.5 90.5t112 35q62 0 120 -39t109 -117q41 -62 69.5 -137.5t28.5 -157.5q0 -111 -45 -181.5t-123.5 -110.5t-184.5 -55t-228 -15h-210q-35 0 -52.5 19t-17.5 47q0 27 17.5 46t52.5 19h171
q54 0 115.5 0.5t112.5 2.5zM670 344q0 32 -8.5 68t-24 71.5t-36 68.5t-44.5 58t-50 40t-52 15q-29 0 -58.5 -21.5t-53.5 -56t-39 -76.5t-15 -84q0 -32 14 -64t46 -65t85 -67.5t131 -71.5q48 24 76.5 71.5t28.5 113.5zM390 1031h-147v143h147v-143zM650 1031h-147v143h147
v-143zM390 1272h-147v143h147v-143zM650 1272h-147v143h147v-143z" />
    <glyph glyph-name="uniFB71" unicode="&#x6a6;" horiz-adv-x="936" arabic-form="medial" 
d="M406 126q-125 52 -180 126t-55 165q0 65 23.5 133t64 123.5t93.5 90.5t112 35q62 0 120 -39t109 -116q42 -62 70 -138.5t28 -159.5q0 -68 -21.5 -122.5t-66.5 -95.5q22 -4 44.5 -6t50 -3t61 -1.5t77.5 -0.5v-131h-27q-89 0 -175.5 12.5t-156.5 41.5q-39 -17 -85.5 -27.5
t-97.5 -16.5t-105 -8t-109 -2h-180q-35 0 -52.5 19t-17.5 47q0 27 17.5 46t52.5 19h196q61 0 115.5 0.5t92.5 1.5zM670 344q0 32 -8.5 68t-24 71.5t-36 68.5t-44.5 58t-50 40t-52 15q-29 0 -58.5 -21.5t-53.5 -56t-39 -76.5t-15 -84q0 -32 14 -64.5t47 -66t86.5 -68
t131.5 -70.5q51 26 76.5 73.5t25.5 112.5zM390 1031h-147v143h147v-143zM650 1031h-147v143h147v-143zM390 1272h-147v143h147v-143zM650 1272h-147v143h147v-143z" />
    <glyph glyph-name="uniFB73" unicode="&#x684;" horiz-adv-x="1197" arabic-form="final" 
d="M1034 513q-31 -5 -62 -11.5t-56 -13.5q2 -105 14 -176t39 -114.5t71 -62t112 -18.5h45v-131h-37q-94 0 -158.5 29t-104 87.5t-58 147.5t-21.5 209q-147 -42 -251.5 -99t-171.5 -123t-98 -138t-31 -144q0 -71 25 -132t77.5 -105.5t133.5 -70t193 -25.5q204 0 388 71v-122
q-185 -74 -391 -74q-143 0 -247 34t-172 93t-100.5 139.5t-32.5 173.5t39.5 187t124.5 178.5t217.5 155t318.5 118.5v8q-54 14 -100.5 31t-93 32t-98 25t-116.5 10q-74 0 -141.5 -11.5t-119.5 -27.5v123q59 20 125.5 32.5t138.5 12.5q62 0 115 -11.5t101 -28.5t93.5 -37
t94 -37.5t101.5 -30t117 -14.5zM721 -187h-147v143h147v-143zM721 44h-147v143h147v-143z" />
    <glyph glyph-name="uniFB74" unicode="&#x684;" horiz-adv-x="1197" arabic-form="initial" 
d="M171 696q59 21 121 31.5t122 10.5q67 0 125 -12.5t112 -31t106.5 -41t108 -41.5t116 -32t131.5 -14l-24 -145q-51 -11 -109.5 -47.5t-127 -85t-150 -102t-180 -98t-215.5 -73.5t-257 -29h-50q-35 0 -52.5 19t-17.5 47q0 27 17.5 46t52.5 19h59q97 0 181 16t158.5 42.5
t141 62.5t128.5 75.5t121.5 80.5t119.5 79v5q-60 18 -117 40.5t-116.5 42.5t-124 33.5t-139.5 13.5q-28 0 -61 -3t-65.5 -8t-62.5 -11.5t-52 -13.5v124zM660 -558h-147v143h147v-143zM660 -327h-147v143h147v-143z" />
    <glyph glyph-name="uniFB75" unicode="&#x684;" horiz-adv-x="1197" arabic-form="medial" 
d="M171 696q59 21 121 31.5t122 10.5q67 0 125 -12.5t112 -31t106.5 -41t108 -41.5t116 -32t131.5 -14l-24 -145q-33 -6 -70.5 -23.5t-79.5 -44.5q0 -59 13.5 -103.5t43.5 -74t79.5 -44t121.5 -14.5v-131h-20q-89 0 -150 23t-99.5 64t-56 99t-20.5 129q-44 -25 -95 -58.5
t-109 -68.5t-124 -68.5t-140 -60t-157.5 -43t-175.5 -16.5h-50q-35 0 -52.5 19t-17.5 47q0 27 17.5 46t52.5 19h50q93 0 174 16.5t154 44t139.5 63.5t131 75.5t128.5 80t132 76.5v5q-60 18 -117 40.5t-116.5 42.5t-124 33.5t-139.5 13.5q-28 0 -61 -3t-65.5 -8t-62.5 -11.5
t-52 -13.5v124zM660 -558h-147v143h147v-143zM660 -327h-147v143h147v-143z" />
    <glyph glyph-name="uniFB77" unicode="&#x683;" horiz-adv-x="1197" arabic-form="final" 
d="M1034 513q-31 -5 -62 -11.5t-56 -13.5q2 -105 14 -176t39 -114.5t71 -62t112 -18.5h45v-131h-37q-94 0 -158.5 29t-104 87.5t-58 147.5t-21.5 209q-147 -42 -251.5 -99t-171.5 -123t-98 -138t-31 -144q0 -71 25 -132t77.5 -105.5t133.5 -70t193 -25.5q204 0 388 71v-122
q-185 -74 -391 -74q-143 0 -247 34t-172 93t-100.5 139.5t-32.5 173.5t39.5 187t124.5 178.5t217.5 155t318.5 118.5v8q-54 14 -100.5 31t-93 32t-98 25t-116.5 10q-74 0 -141.5 -11.5t-119.5 -27.5v123q59 20 125.5 32.5t138.5 12.5q62 0 115 -11.5t101 -28.5t93.5 -37
t94 -37.5t101.5 -30t117 -14.5zM571 -86h-147v143h147v-143zM831 -86h-147v143h147v-143z" />
    <glyph glyph-name="uniFB78" unicode="&#x683;" horiz-adv-x="1197" arabic-form="initial" 
d="M171 696q59 21 121 31.5t122 10.5q67 0 125 -12.5t112 -31t106.5 -41t108 -41.5t116 -32t131.5 -14l-24 -145q-51 -11 -109.5 -47.5t-127 -85t-150 -102t-180 -98t-215.5 -73.5t-257 -29h-50q-35 0 -52.5 19t-17.5 47q0 27 17.5 46t52.5 19h59q97 0 181 16t158.5 42.5
t141 62.5t128.5 75.5t121.5 80.5t119.5 79v5q-60 18 -117 40.5t-116.5 42.5t-124 33.5t-139.5 13.5q-28 0 -61 -3t-65.5 -8t-62.5 -11.5t-52 -13.5v124zM550 -327h-147v143h147v-143zM810 -327h-147v143h147v-143z" />
    <glyph glyph-name="uniFB79" unicode="&#x683;" horiz-adv-x="1197" arabic-form="medial" 
d="M171 696q59 21 121 31.5t122 10.5q67 0 125 -12.5t112 -31t106.5 -41t108 -41.5t116 -32t131.5 -14l-24 -145q-33 -6 -70.5 -23.5t-79.5 -44.5q0 -59 13.5 -103.5t43.5 -74t79.5 -44t121.5 -14.5v-131h-20q-89 0 -150 23t-99.5 64t-56 99t-20.5 129q-44 -25 -95 -58.5
t-109 -68.5t-124 -68.5t-140 -60t-157.5 -43t-175.5 -16.5h-50q-35 0 -52.5 19t-17.5 47q0 27 17.5 46t52.5 19h50q93 0 174 16.5t154 44t139.5 63.5t131 75.5t128.5 80t132 76.5v5q-60 18 -117 40.5t-116.5 42.5t-124 33.5t-139.5 13.5q-28 0 -61 -3t-65.5 -8t-62.5 -11.5
t-52 -13.5v124zM550 -327h-147v143h147v-143zM810 -327h-147v143h147v-143z" />
    <glyph glyph-name="uniFB7B" unicode="&#x686;" horiz-adv-x="1368" arabic-form="final" 
d="M1079 331q7 -59 26 -99.5t49 -66t72.5 -37t96.5 -11.5h45v-131h-66q-73 0 -129 24t-95.5 66.5t-63 101t-30.5 128.5zM1029 514q-204 -45 -349 -105.5t-237 -132.5t-134.5 -153t-42.5 -168q0 -71 25 -132t77.5 -105.5t133.5 -70t193 -25.5q204 0 388 71v-122
q-185 -74 -391 -74q-143 0 -247 34t-172 93t-100.5 139.5t-32.5 173.5t40.5 187t126 178.5t218 155t315.5 118.5v8q-54 14 -100.5 31t-93 32t-98 25t-116.5 10q-74 0 -141.5 -11.5t-119.5 -27.5v123q59 20 125.5 32.5t138.5 12.5q62 0 115 -11.5t101 -28.5t93.5 -37
t94 -37.5t101.5 -30t117 -14.5zM637 28h-148v143h148v-143zM896 28h-147v143h147v-143zM767 -195h-147v143h147v-143z" />
    <glyph glyph-name="uniFB7C" unicode="&#x686;" horiz-adv-x="1197" arabic-form="initial" 
d="M171 696q59 21 121 31.5t122 10.5q67 0 125 -12.5t112 -31t106.5 -41t108 -41.5t116 -32t131.5 -14l-24 -145q-51 -11 -109.5 -47.5t-127 -85t-150 -102t-180 -98t-215.5 -73.5t-257 -29h-50q-35 0 -52.5 19t-17.5 47q0 27 17.5 46t52.5 19h59q97 0 181 16t158.5 42.5
t141 62.5t128.5 75.5t121.5 80.5t119.5 79v5q-60 18 -117 40.5t-116.5 42.5t-124 33.5t-139.5 13.5q-28 0 -61 -3t-65.5 -8t-62.5 -11.5t-52 -13.5v124zM554 -327h-148v143h148v-143zM813 -327h-147v143h147v-143zM684 -550h-147v143h147v-143z" />
    <glyph glyph-name="uniFB7D" unicode="&#x686;" horiz-adv-x="1197" arabic-form="medial" 
d="M171 696q59 21 121 31.5t122 10.5q67 0 125 -12.5t112 -31t106.5 -41t108 -41.5t116 -32t131.5 -14l-24 -145q-33 -6 -70.5 -23.5t-79.5 -44.5q0 -59 13.5 -103.5t43.5 -74t79.5 -44t121.5 -14.5v-131h-20q-89 0 -150 23t-99.5 64t-56 99t-20.5 129q-44 -25 -95 -58.5
t-109 -68.5t-124 -68.5t-140 -60t-157.5 -43t-175.5 -16.5h-50q-35 0 -52.5 19t-17.5 47q0 27 17.5 46t52.5 19h50q93 0 174 16.5t154 44t139.5 63.5t131 75.5t128.5 80t132 76.5v5q-60 18 -117 40.5t-116.5 42.5t-124 33.5t-139.5 13.5q-28 0 -61 -3t-65.5 -8t-62.5 -11.5
t-52 -13.5v124zM554 -327h-148v143h148v-143zM813 -327h-147v143h147v-143zM684 -550h-147v143h147v-143z" />
    <glyph glyph-name="uniFB7F" unicode="&#x687;" horiz-adv-x="1368" arabic-form="final" 
d="M1029 514l-62 -14q23 -111 53 -185t68 -118t85.5 -62t105.5 -18h89v-131h-81q-71 0 -133 24t-113.5 81t-92.5 151.5t-69 236.5q-159 -41 -274.5 -98.5t-190.5 -126t-111.5 -145t-36.5 -154.5q0 -71 25 -132t77.5 -105.5t133.5 -70t193 -25.5q204 0 388 71v-122
q-185 -74 -391 -74q-143 0 -247 34t-172 93t-100.5 139.5t-32.5 173.5t40.5 187t126 178.5t218 155t315.5 118.5v8q-54 14 -100.5 31t-93 32t-98 25t-116.5 10q-74 0 -141.5 -11.5t-119.5 -27.5v123q59 20 125.5 32.5t138.5 12.5q62 0 115 -11.5t101 -28.5t93.5 -37
t94 -37.5t101.5 -30t117 -14.5zM619 -201h-147v143h147v-143zM879 -201h-147v143h147v-143zM619 40h-147v143h147v-143zM879 40h-147v143h147v-143z" />
    <glyph glyph-name="uniFB80" unicode="&#x687;" horiz-adv-x="1197" arabic-form="initial" 
d="M171 696q59 21 121 31.5t122 10.5q67 0 125 -12.5t112 -31t106.5 -41t108 -41.5t116 -32t131.5 -14l-24 -145q-51 -11 -109.5 -47.5t-127 -85t-150 -102t-180 -98t-215.5 -73.5t-257 -29h-50q-35 0 -52.5 19t-17.5 47q0 27 17.5 46t52.5 19h59q97 0 181 16t158.5 42.5
t141 62.5t128.5 75.5t121.5 80.5t119.5 79v5q-60 18 -117 40.5t-116.5 42.5t-124 33.5t-139.5 13.5q-28 0 -61 -3t-65.5 -8t-62.5 -11.5t-52 -13.5v124zM571 -568h-147v143h147v-143zM831 -568h-147v143h147v-143zM571 -327h-147v143h147v-143zM831 -327h-147v143h147v-143z
" />
    <glyph glyph-name="uniFB81" unicode="&#x687;" horiz-adv-x="1197" arabic-form="medial" 
d="M171 696q59 21 121 31.5t122 10.5q67 0 125 -12.5t112 -31t106.5 -41t108 -41.5t116 -32t131.5 -14l-24 -145q-33 -6 -70.5 -23.5t-79.5 -44.5q0 -59 13.5 -103.5t43.5 -74t79.5 -44t121.5 -14.5v-131h-20q-89 0 -150 23t-99.5 64t-56 99t-20.5 129q-44 -25 -95 -58.5
t-109 -68.5t-124 -68.5t-140 -60t-157.5 -43t-175.5 -16.5h-50q-35 0 -52.5 19t-17.5 47q0 27 17.5 46t52.5 19h50q93 0 174 16.5t154 44t139.5 63.5t131 75.5t128.5 80t132 76.5v5q-60 18 -117 40.5t-116.5 42.5t-124 33.5t-139.5 13.5q-28 0 -61 -3t-65.5 -8t-62.5 -11.5
t-52 -13.5v124zM571 -568h-147v143h147v-143zM831 -568h-147v143h147v-143zM571 -327h-147v143h147v-143zM831 -327h-147v143h147v-143z" />
    <glyph glyph-name="uniFB83" unicode="&#x68d;" horiz-adv-x="1026" arabic-form="final" 
d="M79 132q84 -11 168.5 -16.5t149.5 -5.5q78 0 131.5 9t87.5 27.5t49 47.5t15 68q0 40 -12.5 105t-35 149.5t-54 185.5t-70.5 213h130q24 -75 45 -147t40.5 -142.5t37.5 -140t37 -140.5q15 -52 32.5 -94t44 -72t63 -46t88.5 -16v-131h-43q-32 0 -63.5 8.5t-59.5 26.5
t-51 46t-38 68h-5q-44 -86 -134 -121.5t-231 -35.5q-61 0 -137 6t-150 16zM371 -327h-147v143h147v-143zM631 -327h-147v143h147v-143z" />
    <glyph glyph-name="uniFB85" unicode="&#x68c;" horiz-adv-x="1026" arabic-form="final" 
d="M79 132q84 -11 168.5 -16.5t149.5 -5.5q78 0 131.5 9t87.5 27.5t49 47.5t15 68q0 40 -12.5 105t-35 149.5t-54 185.5t-70.5 213h130q24 -75 45 -147t40.5 -142.5t37.5 -140t37 -140.5q15 -52 32.5 -94t44 -72t63 -46t88.5 -16v-131h-43q-32 0 -63.5 8.5t-59.5 26.5
t-51 46t-38 68h-5q-44 -86 -134 -121.5t-231 -35.5q-61 0 -137 6t-150 16zM489 1174h-147v143h147v-143zM749 1174h-147v143h147v-143z" />
    <glyph glyph-name="uniFB87" unicode="&#x68e;" horiz-adv-x="1026" arabic-form="final" 
d="M79 132q84 -11 168.5 -16.5t149.5 -5.5q78 0 131.5 9t87.5 27.5t49 47.5t15 68q0 40 -12.5 105t-35 149.5t-54 185.5t-70.5 213h130q24 -75 45 -147t40.5 -142.5t37.5 -140t37 -140.5q15 -52 32.5 -94t44 -72t63 -46t88.5 -16v-131h-43q-32 0 -63.5 8.5t-59.5 26.5
t-51 46t-38 68h-5q-44 -86 -134 -121.5t-231 -35.5q-61 0 -137 6t-150 16zM483 1174h-147v143h147v-143zM743 1174h-147v143h147v-143zM613 1405h-147v143h147v-143z" />
    <glyph glyph-name="uniFB89" unicode="&#x688;" horiz-adv-x="1026" arabic-form="final" 
d="M79 132q84 -11 168.5 -16.5t149.5 -5.5q78 0 131.5 9t87.5 27.5t49 47.5t15 68q0 40 -12.5 105t-35 149.5t-54 185.5t-70.5 213h130q24 -75 45 -147t40.5 -142.5t37.5 -140t37 -140.5q15 -52 32.5 -94t44 -72t63 -46t88.5 -16v-131h-43q-32 0 -63.5 8.5t-59.5 26.5
t-51 46t-38 68h-5q-44 -86 -134 -121.5t-231 -35.5q-61 0 -137 6t-150 16zM253 1272q23 -2 53.5 -3.5t62.5 -2.5v482h83v-341l3 -1q38 64 91 98.5t119 34.5q42 0 73.5 -16.5t52.5 -43.5t31.5 -63t10.5 -75q0 -59 -17 -92t-50.5 -50t-82.5 -21t-113 -4q-60 0 -106 0.5
t-82 1.5t-64 2.5t-52 4.5zM576 1265q52 0 86 1.5t54.5 9.5t29 24t8.5 45q0 50 -30.5 76.5t-73.5 26.5q-31 0 -60.5 -14t-56 -38.5t-48 -58t-37.5 -72.5h128z" />
    <glyph glyph-name="uniFB8B" unicode="&#x698;" horiz-adv-x="812" arabic-form="final" 
d="M532 611q27 -75 50.5 -158t37.5 -168t63 -126.5t129 -41.5v-131h-13q-60 0 -95 18t-58 53q-2 0 -2.5 -0.5t-2.5 -0.5q0 -141 -31 -243.5t-86.5 -169t-132.5 -99t-168 -32.5q-57 0 -113.5 12t-109.5 33v128q57 -19 110 -29t103 -10q160 0 233.5 104t73.5 309
q0 140 -33.5 279t-85.5 273h131zM357 855h-147v143h147v-143zM617 855h-147v143h147v-143zM487 1086h-147v143h147v-143z" />
    <glyph glyph-name="uniFB8D" unicode="&#x691;" horiz-adv-x="812" arabic-form="final" 
d="M532 611q27 -75 50.5 -158t37.5 -168t63 -126.5t129 -41.5v-131h-13q-60 0 -95 18t-58 53q-2 0 -2.5 -0.5t-2.5 -0.5q0 -141 -31 -243.5t-86.5 -169t-132.5 -99t-168 -32.5q-57 0 -113.5 12t-109.5 33v128q57 -19 110 -29t103 -10q160 0 233.5 104t73.5 309
q0 140 -33.5 279t-85.5 273h131zM111 949q23 -2 53.5 -3.5t62.5 -2.5v482h83v-341l3 -1q38 64 91 98.5t119 34.5q42 0 73.5 -16.5t52.5 -43.5t31.5 -63t10.5 -75q0 -59 -17 -92t-50.5 -50t-82.5 -21t-113 -4q-60 0 -106 0.5t-82 1.5t-64 2.5t-52 4.5zM434 942q52 0 86 1.5
t54.5 9.5t29 24t8.5 45q0 50 -30.5 76.5t-73.5 26.5q-31 0 -60.5 -14t-56 -38.5t-48 -58t-37.5 -72.5h128z" />
    <glyph glyph-name="uniFB8F" unicode="&#x6a9;" horiz-adv-x="1881" arabic-form="final" 
d="M1366 142q73 23 107 66t34 109q0 68 -37 133t-116 132.5t-202.5 140t-296.5 153.5v117l855 546v-141l-728 -455q131 -62 227.5 -116.5t165.5 -104t114 -96.5t73 -93t43.5 -93t24.5 -98q8 -45 22 -85.5t42 -71.5t73 -49.5t114 -18.5v-131h-38q-89 0 -158 39.5t-105 123.5
h-4q-30 -44 -70.5 -74.5t-100.5 -50.5q-41 -14 -87.5 -22.5t-105 -14t-132 -7.5t-167.5 -2q-130 0 -229 4.5t-174 16.5t-128.5 32t-91.5 51q-61 48 -90 118.5t-29 161.5q0 54 8.5 108.5t20.5 102.5h118q-11 -40 -18.5 -88t-7.5 -101q0 -69 20.5 -118.5t65.5 -81.5
q27 -19 69 -33t108.5 -23t161.5 -13.5t229 -4.5q78 0 142 1.5t115 5t91 9.5t72 16z" />
    <glyph glyph-name="uniFB90" unicode="&#x6a9;" horiz-adv-x="975" arabic-form="initial" 
d="M0 -14q-30 0 -45 19t-15 46q0 28 15 47t45 19h289q109 0 180 13.5t112.5 39t58 63t16.5 84.5q0 68 -37.5 133t-117.5 132t-204 139t-297 154v117l855 547v-141l-728 -457q180 -84 304 -161t201 -152t111 -150t34 -156q0 -63 -21 -123t-74.5 -107.5t-145 -76.5t-233.5 -29
h-303z" />
    <glyph glyph-name="uniFB91" unicode="&#x6a9;" horiz-adv-x="1026" arabic-form="medial" 
d="M-44.5 5q-15.5 19 -15.5 47q0 24 14.5 44.5t45.5 20.5h289q102 0 172.5 12.5t113.5 38t62 62.5t19 87q0 68 -37.5 133t-117.5 132t-204 139t-297 154v117l855 547v-141l-728 -457q131 -62 227.5 -116t166 -104t115 -96t74.5 -92t44.5 -93t24.5 -98q8 -45 22 -85.5
t41 -71.5t71.5 -49.5t112.5 -18.5v-131h-35q-89 0 -157.5 39.5t-104.5 123.5h-4q-23 -37 -59.5 -67t-88.5 -51.5t-120 -33t-154 -11.5h-303q-29 0 -44.5 19z" />
    <glyph glyph-name="uniFB93" unicode="&#x6af;" horiz-adv-x="1881" arabic-form="final" 
d="M1366 142q73 23 107 66t34 109q0 68 -37 133t-116 132.5t-202.5 140t-296.5 153.5v117l855 546v-141l-728 -455q131 -62 227.5 -116.5t165.5 -104t114 -96.5t73 -93t43.5 -93t24.5 -98q8 -45 22 -85.5t42 -71.5t73 -49.5t114 -18.5v-131h-38q-89 0 -158 39.5t-105 123.5
h-4q-30 -44 -70.5 -74.5t-100.5 -50.5q-41 -14 -87.5 -22.5t-105 -14t-132 -7.5t-167.5 -2q-130 0 -229 4.5t-174 16.5t-128.5 32t-91.5 51q-61 48 -90 118.5t-29 161.5q0 54 8.5 108.5t20.5 102.5h118q-11 -40 -18.5 -88t-7.5 -101q0 -69 20.5 -118.5t65.5 -81.5
q27 -19 69 -33t108.5 -23t161.5 -13.5t229 -4.5q78 0 142 1.5t115 5t91 9.5t72 16zM855 1154v124l855 548v-124z" />
    <glyph glyph-name="uniFB94" unicode="&#x6af;" horiz-adv-x="975" arabic-form="initial" 
d="M0 -14q-30 0 -45 19t-15 46q0 28 15 47t45 19h289q109 0 180 13.5t112.5 39t58 63t16.5 84.5q0 68 -37.5 133t-117.5 132t-204 139t-297 154v117l855 547v-141l-728 -457q180 -84 304 -161t201 -152t111 -150t34 -156q0 -63 -21 -123t-74.5 -107.5t-145 -76.5t-233.5 -29
h-303zM0 1154v124l855 548v-124z" />
    <glyph glyph-name="uniFB95" unicode="&#x6af;" horiz-adv-x="1026" arabic-form="medial" 
d="M-44.5 5q-15.5 19 -15.5 47q0 24 14.5 44.5t45.5 20.5h289q102 0 172.5 12.5t113.5 38t62 62.5t19 87q0 68 -37.5 133t-117.5 132t-204 139t-297 154v117l855 547v-141l-728 -457q131 -62 227.5 -116t166 -104t115 -96t74.5 -92t44.5 -93t24.5 -98q8 -45 22 -85.5
t41 -71.5t71.5 -49.5t112.5 -18.5v-131h-35q-89 0 -157.5 39.5t-104.5 123.5h-4q-23 -37 -59.5 -67t-88.5 -51.5t-120 -33t-154 -11.5h-303q-29 0 -44.5 19zM0 1154v124l855 548v-124z" />
    <glyph glyph-name="uniFB97" unicode="&#x6b3;" horiz-adv-x="1881" arabic-form="final" 
d="M1366 142q73 23 107 66t34 109q0 68 -37 133t-116 132.5t-202.5 140t-296.5 153.5v117l855 546v-141l-728 -455q131 -62 227.5 -116.5t165.5 -104t114 -96.5t73 -93t43.5 -93t24.5 -98q8 -45 22 -85.5t42 -71.5t73 -49.5t114 -18.5v-131h-38q-89 0 -158 39.5t-105 123.5
h-4q-30 -44 -70.5 -74.5t-100.5 -50.5q-41 -14 -87.5 -22.5t-105 -14t-132 -7.5t-167.5 -2q-130 0 -229 4.5t-174 16.5t-128.5 32t-91.5 51q-61 48 -90 118.5t-29 161.5q0 54 8.5 108.5t20.5 102.5h118q-11 -40 -18.5 -88t-7.5 -101q0 -69 20.5 -118.5t65.5 -81.5
q27 -19 69 -33t108.5 -23t161.5 -13.5t229 -4.5q78 0 142 1.5t115 5t91 9.5t72 16zM854 1154v124l855 548v-124zM974 -528h-147v143h147v-143zM974 -297h-147v143h147v-143z" />
    <glyph glyph-name="uniFB98" unicode="&#x6b3;" horiz-adv-x="975" arabic-form="initial" 
d="M0 -14q-30 0 -45 19t-15 46q0 28 15 47t45 19h289q109 0 180 13.5t112.5 39t58 63t16.5 84.5q0 68 -37.5 133t-117.5 132t-204 139t-297 154v117l855 547v-141l-728 -457q180 -84 304 -161t201 -152t111 -150t34 -156q0 -63 -21 -123t-74.5 -107.5t-145 -76.5t-233.5 -29
h-303zM0 1154v124l855 548v-124zM447 -528h-147v143h147v-143zM447 -297h-147v143h147v-143z" />
    <glyph glyph-name="uniFB99" unicode="&#x6b3;" horiz-adv-x="1026" arabic-form="medial" 
d="M-44.5 5q-15.5 19 -15.5 47q0 24 14.5 44.5t45.5 20.5h289q102 0 172.5 12.5t113.5 38t62 62.5t19 87q0 68 -37.5 133t-117.5 132t-204 139t-297 154v117l855 547v-141l-728 -457q131 -62 227.5 -116t166 -104t115 -96t74.5 -92t44.5 -93t24.5 -98q8 -45 22 -85.5
t41 -71.5t71.5 -49.5t112.5 -18.5v-131h-35q-89 0 -157.5 39.5t-104.5 123.5h-4q-23 -37 -59.5 -67t-88.5 -51.5t-120 -33t-154 -11.5h-303q-29 0 -44.5 19zM0 1154v124l855 548v-124zM524 -528h-147v143h147v-143zM524 -297h-147v143h147v-143z" />
    <glyph glyph-name="uniFB9B" unicode="&#x6b1;" horiz-adv-x="1881" arabic-form="final" 
d="M1366 142q73 23 107 66t34 109q0 68 -37 133t-116 132.5t-202.5 140t-296.5 153.5v117l855 546v-141l-728 -455q131 -62 227.5 -116.5t165.5 -104t114 -96.5t73 -93t43.5 -93t24.5 -98q8 -45 22 -85.5t42 -71.5t73 -49.5t114 -18.5v-131h-38q-89 0 -158 39.5t-105 123.5
h-4q-30 -44 -70.5 -74.5t-100.5 -50.5q-41 -14 -87.5 -22.5t-105 -14t-132 -7.5t-167.5 -2q-130 0 -229 4.5t-174 16.5t-128.5 32t-91.5 51q-61 48 -90 118.5t-29 161.5q0 54 8.5 108.5t20.5 102.5h118q-11 -40 -18.5 -88t-7.5 -101q0 -69 20.5 -118.5t65.5 -81.5
q27 -19 69 -33t108.5 -23t161.5 -13.5t229 -4.5q78 0 142 1.5t115 5t91 9.5t72 16zM855 1154v124l855 548v-124zM1105 1750h-147v143h147v-143zM1365 1750h-147v143h147v-143z" />
    <glyph glyph-name="uniFB9C" unicode="&#x6b1;" horiz-adv-x="975" arabic-form="initial" 
d="M0 -14q-30 0 -45 19t-15 46q0 28 15 47t45 19h289q109 0 180 13.5t112.5 39t58 63t16.5 84.5q0 68 -37.5 133t-117.5 132t-204 139t-297 154v117l855 547v-141l-728 -457q180 -84 304 -161t201 -152t111 -150t34 -156q0 -63 -21 -123t-74.5 -107.5t-145 -76.5t-233.5 -29
h-303zM0 1154v124l855 548v-124zM254 1750h-147v143h147v-143zM514 1750h-147v143h147v-143z" />
    <glyph glyph-name="uniFB9D" unicode="&#x6b1;" horiz-adv-x="1026" arabic-form="medial" 
d="M-44.5 5q-15.5 19 -15.5 47q0 24 14.5 44.5t45.5 20.5h289q102 0 172.5 12.5t113.5 38t62 62.5t19 87q0 68 -37.5 133t-117.5 132t-204 139t-297 154v117l855 547v-141l-728 -457q131 -62 227.5 -116t166 -104t115 -96t74.5 -92t44.5 -93t24.5 -98q8 -45 22 -85.5
t41 -71.5t71.5 -49.5t112.5 -18.5v-131h-35q-89 0 -157.5 39.5t-104.5 123.5h-4q-23 -37 -59.5 -67t-88.5 -51.5t-120 -33t-154 -11.5h-303q-29 0 -44.5 19zM0 1154v124l855 548v-124zM254 1750h-147v143h147v-143zM514 1750h-147v143h147v-143z" />
    <glyph glyph-name="uniFB9F" unicode="&#x6ba;" horiz-adv-x="1319" arabic-form="final" 
d="M1105 450q8 -42 15 -91t14 -100q10 -72 52.5 -107t132.5 -35v-131h-22q-55 0 -92 19t-58 51q-2 0 -2.5 -0.5t-2.5 -0.5q-3 -269 -128.5 -399.5t-384.5 -130.5q-122 0 -208.5 31t-142 90.5t-81.5 146.5t-26 200q0 60 8 125.5t23 139.5h114q-13 -71 -18.5 -131t-5.5 -114
q0 -95 19 -162.5t60.5 -110t108 -62.5t162.5 -20q97 0 169 23.5t120 76t71.5 135.5t23.5 202q0 76 -10.5 164t-29.5 191h119z" />
    <glyph glyph-name="uniFBA1" unicode="&#x6bb;" horiz-adv-x="1319" arabic-form="final" 
d="M1105 450q8 -42 15 -91t14 -100q10 -72 52.5 -107t132.5 -35v-131h-22q-55 0 -92 19t-58 51q-2 0 -2.5 -0.5t-2.5 -0.5q-3 -269 -128.5 -399.5t-384.5 -130.5q-122 0 -208.5 31t-142 90.5t-81.5 146.5t-26 200q0 60 8 125.5t23 139.5h114q-13 -71 -18.5 -131t-5.5 -114
q0 -95 19 -162.5t60.5 -110t108 -62.5t162.5 -20q97 0 169 23.5t120 76t71.5 135.5t23.5 202q0 76 -10.5 164t-29.5 191h119zM333 791q23 -2 53.5 -3.5t62.5 -2.5v482h83v-341l3 -1q38 64 91 98.5t119 34.5q42 0 73.5 -16.5t52.5 -43.5t31.5 -63t10.5 -75q0 -59 -17 -92
t-50.5 -50t-82.5 -21t-113 -4q-60 0 -106 0.5t-82 1.5t-64 2.5t-52 4.5zM656 784q52 0 86 1.5t54.5 9.5t29 24t8.5 45q0 50 -30.5 76.5t-73.5 26.5q-31 0 -60.5 -14t-56 -38.5t-48 -58t-37.5 -72.5h128z" />
    <glyph glyph-name="uniFBA2" unicode="&#x6bb;" horiz-adv-x="684" arabic-form="initial" 
d="M441 738v-407q0 -103 -26 -169.5t-71 -105.5t-105.5 -54.5t-128.5 -15.5h-110q-35 0 -52.5 19t-17.5 47q0 27 17.5 46t52.5 19h115q52 0 90.5 10.5t64 35t38.5 66t13 103.5v406h120zM55 1033q23 -2 53.5 -3.5t62.5 -2.5v482h83v-341l3 -1q38 64 91 98.5t119 34.5
q42 0 73.5 -16.5t52.5 -43.5t31.5 -63t10.5 -75q0 -59 -17 -92t-50.5 -50t-82.5 -21t-113 -4q-60 0 -106 0.5t-82 1.5t-64 2.5t-52 4.5zM378 1026q52 0 86 1.5t54.5 9.5t29 24t8.5 45q0 50 -30.5 76.5t-73.5 26.5q-31 0 -60.5 -14t-56 -38.5t-48 -58t-37.5 -72.5h128z" />
    <glyph glyph-name="uniFBA3" unicode="&#x6bb;" horiz-adv-x="684" arabic-form="medial" 
d="M441 338q0 -66 12.5 -109t41 -67.5t75 -34.5t114.5 -10v-131h-52q-101 0 -164.5 33t-90.5 92h-4q-38 -63 -103 -94t-143 -31h-127q-35 0 -52.5 19t-17.5 47q0 27 17.5 46t52.5 19h124q40 0 76 10t63 32t42.5 57.5t15.5 86.5v435h120v-400zM55 1033q23 -2 53.5 -3.5
t62.5 -2.5v482h83v-341l3 -1q38 64 91 98.5t119 34.5q42 0 73.5 -16.5t52.5 -43.5t31.5 -63t10.5 -75q0 -59 -17 -92t-50.5 -50t-82.5 -21t-113 -4q-60 0 -106 0.5t-82 1.5t-64 2.5t-52 4.5zM378 1026q52 0 86 1.5t54.5 9.5t29 24t8.5 45q0 50 -30.5 76.5t-73.5 26.5
q-31 0 -60.5 -14t-56 -38.5t-48 -58t-37.5 -72.5h128z" />
    <glyph glyph-name="uniFBA5" unicode="&#x6c0;" horiz-adv-x="976" arabic-form="final" 
d="M684 934h122v-582q0 -64 8 -109t27.5 -73t52 -40.5t82.5 -12.5v-131h-22q-52 0 -97 15t-79 43.5t-56.5 71t-29.5 98.5q-44 -19 -98.5 -28.5t-109.5 -9.5q-68 0 -127.5 16t-103.5 48.5t-69.5 81t-25.5 114.5q0 79 37 145.5t105.5 118t166 87t217.5 53.5v94zM276 451
q0 -38 16 -66.5t44.5 -47.5t69 -28t89.5 -9q54 0 104.5 9.5t84.5 23.5v388q-94 -14 -169.5 -39.5t-128.5 -60.5t-81.5 -78t-28.5 -92zM667 1440q-13 3 -27.5 5t-30.5 2q-50 0 -83.5 -23t-33.5 -68q0 -93 136 -93h83v-87h-342v81h90l1 5q-23 23 -36.5 52t-13.5 62
q0 34 14 63.5t39.5 51t61 33.5t78.5 12q31 0 64 -6v-90z" />
    <glyph glyph-name="uniFBA7" unicode="&#x6c1;" horiz-adv-x="1026" arabic-form="final" 
d="M1026 -14h-25q-65 0 -119 22t-102 55t-91.5 71t-86 71t-86 55t-91.5 22q-51 0 -93.5 -20.5t-74 -61t-49 -100.5t-17.5 -139v-40h-105q-3 22 -3.5 37t-0.5 20q0 104 28.5 185.5t77 137t111.5 84.5t132 29q62 0 114.5 -22.5t99 -56t90.5 -73t89.5 -72.5t94.5 -54t107 -19
v-131z" />
    <glyph glyph-name="uniFBA8" unicode="&#x6c1;" horiz-adv-x="612" arabic-form="initial" 
d="M441 738v-407q0 -103 -26 -169.5t-71 -105.5t-105.5 -54.5t-128.5 -15.5h-110q-35 0 -52.5 19t-17.5 47q0 27 17.5 46t52.5 19h115q52 0 90.5 10.5t64 35t38.5 66t13 103.5v406h120zM349 -70q-55 -23 -85 -68.5t-30 -100.5q0 -10 1 -22t5 -23q28 10 53 10q47 0 74 -31
t27 -73q0 -21 -7 -39.5t-21 -33t-34 -23t-45 -8.5q-34 0 -60.5 14.5t-44.5 40.5t-27.5 62t-9.5 78q0 92 43.5 164t130.5 113z" />
    <glyph glyph-name="uniFBA9" unicode="&#x6c1;" horiz-adv-x="1026" arabic-form="medial" 
d="M119 117q41 0 70 2.5t49.5 8t35.5 14.5t27 23q13 16 24 41.5t26.5 66.5t38 99.5t57.5 140.5h124q-91 -192 -136 -339t-45 -255q0 -62 14.5 -106.5t40.5 -75.5t62 -51t79 -33q7 106 41 192t90.5 146.5t134.5 93t174 32.5v-131q-175 0 -258.5 -113t-83.5 -339v-38
q-110 16 -188.5 50t-128.5 83t-73 111t-23 136q0 36 3.5 69t11.5 70q-1 1 -2 1t-2 1q-30 -13 -70 -22t-96 -9h-116q-29 0 -44.5 19.5t-15.5 46.5q0 28 15.5 46.5t44.5 18.5h119z" />
    <glyph glyph-name="uniFBAB" unicode="&#x6be;" horiz-adv-x="1300" arabic-form="final" 
d="M487 -14q-56 0 -110 1t-99.5 3.5t-80.5 5t-54 5.5q-6 34 -12 67.5t-12 65.5q44 -5 85.5 -8t86 -5t93 -3t107.5 -1q24 171 73 301t109 217.5t123.5 131.5t115.5 44q42 0 81.5 -28t69.5 -76t48.5 -111t18.5 -132q0 -55 -12 -104.5t-33.5 -92.5t-51 -79t-63.5 -64l2 -7h328
v-131h-318q0 -4 -1 -6q75 -45 112 -111.5t37 -138.5q0 -50 -17.5 -94t-49 -77t-76 -52.5t-98.5 -19.5q-67 0 -136.5 29.5t-126.5 91t-95.5 155.5t-43.5 223zM749 117q53 0 100.5 27t83 72t56.5 104t21 123q0 45 -10.5 87.5t-27.5 75.5t-39 53t-45 20q-33 0 -75.5 -41.5
t-83 -116t-73.5 -177.5t-46 -227h139zM605 -14q4 -90 28.5 -158.5t62.5 -115t86.5 -70t100.5 -23.5q64 0 95 37.5t31 93.5q0 43 -19.5 85t-54.5 75.5t-85 54.5t-110 21h-135z" />
    <glyph glyph-name="uniFBAC" unicode="&#x6be;" horiz-adv-x="1298" arabic-form="initial" 
d="M320 1052q215 -119 367.5 -235t250 -221.5t143 -196.5t45.5 -160q0 -47 -12.5 -92.5t-35.5 -81t-56 -57.5t-73 -22q-36 0 -84 5t-101 15.5t-109 27t-108 40.5q-38 -27 -79 -44t-89 -27t-103.5 -13.5t-122.5 -3.5h-153q-30 0 -45 19.5t-15 47.5q0 27 14.5 45.5t45.5 18.5
l200 -1q77 -1 132.5 5t87.5 16v3q-69 31 -116.5 66t-77 74t-42.5 82t-13 90q0 53 19.5 111.5t54.5 110.5t83.5 92.5t107.5 57.5q0 1 0.5 2.5t0.5 3.5l-117 66v156zM522 211q58 61 82 126t24 135q0 53 -13 97t-33 76t-45 49.5t-49 17.5q-31 0 -66.5 -22.5t-65.5 -58
t-49.5 -79.5t-19.5 -87q0 -31 11 -61.5t38 -61.5t72.5 -63.5t113.5 -67.5zM710 620q23 -69 23 -160q0 -81 -25.5 -156.5t-76.5 -134.5q67 -27 155 -44t177 -20q19 23 29.5 53.5t10.5 62.5q0 44 -21.5 93t-59.5 101t-91 105t-116 105z" />
    <glyph glyph-name="uniFBAD" unicode="&#x6be;" horiz-adv-x="975" arabic-form="medial" 
d="M171 117q16 114 44 210t63.5 173t77 135.5t83 97.5t82 59t75.5 20q42 0 81.5 -28.5t69.5 -76t48.5 -110.5t18.5 -132q0 -112 -45 -198.5t-114 -142.5q1 -2 1 -3.5t1 -3.5h318v-131h-308l-1 -6q75 -45 111.5 -112t36.5 -139q0 -49 -17 -93t-48.5 -77t-76.5 -52.5
t-100 -19.5q-66 0 -135 29.5t-126 91t-95.5 155.5t-44.5 223h-171q-29 0 -44.5 19.5t-15.5 46.5q0 28 15.5 46.5t44.5 18.5h171zM433 117q53 0 100.5 27t83 72t56.5 104t21 123q0 49 -10.5 92.5t-27.5 75t-39 50t-45 18.5q-33 0 -76 -41.5t-84.5 -116t-75 -177.5t-46.5 -227
h143zM289 -14q4 -90 28.5 -158.5t62.5 -115t86.5 -70t99.5 -23.5q65 0 96.5 37.5t31.5 93.5q0 43 -19.5 85t-55 75.5t-85 54.5t-109.5 21h-136z" />
    <glyph glyph-name="uniFBAF" unicode="&#x6d2;" horiz-adv-x="684" arabic-form="final" 
d="M684 -14h-46q-81 0 -150.5 -6t-120 -22.5t-79 -44.5t-28.5 -71q0 -44 32 -76t107 -52.5t197.5 -30t303.5 -9.5q240 0 443.5 12t366.5 30v-128q-220 -24 -430.5 -35t-409.5 -11q-144 0 -255 9t-192.5 26t-137 42t-89 57.5t-48 71.5t-14.5 85q0 57 21 100t57 75t85.5 52.5
t106.5 33.5t119.5 18t124.5 5h36v-131z" />
    <glyph glyph-name="uniFBB1" unicode="&#x6d3;" horiz-adv-x="684" arabic-form="final" 
d="M684 -14h-46q-81 0 -150.5 -6t-120 -22.5t-79 -44.5t-28.5 -71q0 -44 32 -76t107 -52.5t197.5 -30t303.5 -9.5q240 0 443.5 12t366.5 30v-128q-220 -24 -430.5 -35t-409.5 -11q-144 0 -255 9t-192.5 26t-137 42t-89 57.5t-48 71.5t-14.5 85q0 57 21 100t57 75t85.5 52.5
t106.5 33.5t119.5 18t124.5 5h36v-131zM555 727q-13 3 -27.5 5t-30.5 2q-50 0 -83.5 -23t-33.5 -68q0 -93 136 -93h83v-87h-342v81h90l1 5q-23 23 -36.5 52t-13.5 62q0 34 14 63.5t39.5 51t61 33.5t78.5 12q31 0 64 -6v-90z" />
    <glyph glyph-name="uniFBD4" unicode="&#x6ad;" horiz-adv-x="1710" arabic-form="final" 
d="M318 573q-11 -40 -18.5 -88t-7.5 -101q0 -69 20.5 -118.5t65.5 -81.5q27 -19 64.5 -32.5t97.5 -21.5t148 -12t215 -4t216 9.5t144 35t80 71.5t25 120v1163h120v-1144q0 -66 11 -113.5t37 -78t68.5 -45.5t105.5 -15v-131h-53q-85 0 -147 35t-88 110h-3q-35 -47 -85 -76
t-116.5 -45.5t-150.5 -22t-187 -5.5q-126 0 -219.5 4t-163 15t-119.5 30.5t-88 50.5q-61 48 -90 118.5t-29 161.5q0 54 8.5 108.5t20.5 102.5h118zM684 685q109 3 161.5 29t52.5 58q0 17 -16 30t-56 34q-42 23 -67.5 48t-25.5 67q0 33 20.5 62t58.5 52.5t92 41t121 26.5v-85
q-105 -14 -151.5 -38t-46.5 -51q0 -19 15.5 -32t53.5 -34q44 -24 70 -49t26 -65q0 -33 -19 -63.5t-57.5 -55t-96 -40.5t-135.5 -20v85zM808 1498h-147v143h147v-143zM1068 1498h-147v143h147v-143zM938 1729h-147v143h147v-143z" />
    <glyph glyph-name="uniFBD5" unicode="&#x6ad;" horiz-adv-x="975" arabic-form="initial" 
d="M0 -14q-30 0 -45 19t-15 46q0 28 15 47t45 19h289q109 0 180 13.5t112.5 39t58 63t16.5 84.5q0 68 -37.5 133t-117.5 132t-204 139t-297 154v117l855 547v-141l-728 -457q180 -84 304 -161t201 -152t111 -150t34 -156q0 -63 -21 -123t-74.5 -107.5t-145 -76.5t-233.5 -29
h-303zM215 1498h-147v143h147v-143zM475 1498h-147v143h147v-143zM345 1729h-147v143h147v-143z" />
    <glyph glyph-name="uniFBD6" unicode="&#x6ad;" horiz-adv-x="1026" arabic-form="medial" 
d="M-44.5 5q-15.5 19 -15.5 47q0 24 14.5 44.5t45.5 20.5h289q102 0 172.5 12.5t113.5 38t62 62.5t19 87q0 68 -37.5 133t-117.5 132t-204 139t-297 154v117l855 547v-141l-728 -457q131 -62 227.5 -116t166 -104t115 -96t74.5 -92t44.5 -93t24.5 -98q8 -45 22 -85.5
t41 -71.5t71.5 -49.5t112.5 -18.5v-131h-35q-89 0 -157.5 39.5t-104.5 123.5h-4q-23 -37 -59.5 -67t-88.5 -51.5t-120 -33t-154 -11.5h-303q-29 0 -44.5 19zM215 1498h-147v143h147v-143zM475 1498h-147v143h147v-143zM345 1729h-147v143h147v-143z" />
    <glyph glyph-name="uniFBD8" unicode="&#x6c7;" horiz-adv-x="936" arabic-form="final" 
d="M0 -295q79 -32 160 -45.5t162 -13.5q72 0 125 14.5t90.5 42.5t61.5 69.5t39 95.5q5 19 10.5 49.5t9.5 68.5h-145q-89 0 -157.5 22.5t-115 62.5t-71 95t-24.5 120q0 63 23.5 128.5t64.5 119t96 87.5t118 34q76 0 134.5 -45t107.5 -130q42 -74 64.5 -170.5t26.5 -192.5h156
v-131h-157q-9 -111 -40 -198.5t-87 -149t-138 -94t-192 -32.5q-87 0 -167.5 16t-154.5 49v128zM623 315q-14 40 -33.5 77.5t-43 66t-50.5 45.5t-55 17q-33 0 -64 -19t-55 -50t-38.5 -71.5t-14.5 -82.5q0 -85 64.5 -133t192.5 -48h133q-2 44 -10.5 97t-25.5 101zM523 812
q-23 17 -42 34.5t-36 34.5q-26 -6 -50.5 -7.5t-47.5 -1.5q-54 0 -106 7t-99 21q4 19 8 37.5t8 37.5q48 -13 97 -20t100 -7h13.5t14.5 2q0 1 0.5 1t0.5 1q-29 34 -43 69t-14 70q0 37 15 67t39.5 51t56 32.5t64.5 11.5q34 0 64 -12t52.5 -33.5t35.5 -52.5t13 -69
q0 -123 -138 -181q11 -11 24.5 -22.5t22.5 -19.5zM587 1082q0 21 -8 37.5t-20.5 27.5t-29 17t-33.5 6q-16 0 -32 -5.5t-28.5 -16t-20 -25.5t-7.5 -35q0 -33 19 -67t46 -57q51 14 82.5 44.5t31.5 73.5z" />
    <glyph glyph-name="uniFBDA" unicode="&#x6c6;" horiz-adv-x="936" arabic-form="final" 
d="M0 -295q79 -32 160 -45.5t162 -13.5q72 0 125 14.5t90.5 42.5t61.5 69.5t39 95.5q5 19 10.5 49.5t9.5 68.5h-145q-89 0 -157.5 22.5t-115 62.5t-71 95t-24.5 120q0 63 23.5 128.5t64.5 119t96 87.5t118 34q76 0 134.5 -45t107.5 -130q42 -74 64.5 -170.5t26.5 -192.5h156
v-131h-157q-9 -111 -40 -198.5t-87 -149t-138 -94t-192 -32.5q-87 0 -167.5 16t-154.5 49v128zM623 315q-14 40 -33.5 77.5t-43 66t-50.5 45.5t-55 17q-33 0 -64 -19t-55 -50t-38.5 -71.5t-14.5 -82.5q0 -85 64.5 -133t192.5 -48h133q-2 44 -10.5 97t-25.5 101zM408 856
l-234 352h105l179 -265l175 265h103l-230 -352h-98z" />
    <glyph glyph-name="uniFBDC" unicode="&#x6c8;" horiz-adv-x="936" arabic-form="final" 
d="M0 -295q79 -32 160 -45.5t162 -13.5q72 0 125 14.5t90.5 42.5t61.5 69.5t39 95.5q5 19 10.5 49.5t9.5 68.5h-145q-89 0 -157.5 22.5t-115 62.5t-71 95t-24.5 120q0 63 23.5 128.5t64.5 119t96 87.5t118 34q76 0 134.5 -45t107.5 -130q42 -74 64.5 -170.5t26.5 -192.5h156
v-131h-157q-9 -111 -40 -198.5t-87 -149t-138 -94t-192 -32.5q-87 0 -167.5 16t-154.5 49v128zM623 315q-14 40 -33.5 77.5t-43 66t-50.5 45.5t-55 17q-33 0 -64 -19t-55 -50t-38.5 -71.5t-14.5 -82.5q0 -85 64.5 -133t192.5 -48h133q-2 44 -10.5 97t-25.5 101zM494 856
h-102v392h102v-392z" />
    <glyph glyph-name="uniFBDF" unicode="&#x6cb;" horiz-adv-x="936" arabic-form="final" 
d="M0 -295q79 -32 160 -45.5t162 -13.5q72 0 125 14.5t90.5 42.5t61.5 69.5t39 95.5q5 19 10.5 49.5t9.5 68.5h-145q-89 0 -157.5 22.5t-115 62.5t-71 95t-24.5 120q0 63 23.5 128.5t64.5 119t96 87.5t118 34q76 0 134.5 -45t107.5 -130q42 -74 64.5 -170.5t26.5 -192.5h156
v-131h-157q-9 -111 -40 -198.5t-87 -149t-138 -94t-192 -32.5q-87 0 -167.5 16t-154.5 49v128zM623 315q-14 40 -33.5 77.5t-43 66t-50.5 45.5t-55 17q-33 0 -64 -19t-55 -50t-38.5 -71.5t-14.5 -82.5q0 -85 64.5 -133t192.5 -48h133q-2 44 -10.5 97t-25.5 101zM370 855
h-147v143h147v-143zM630 855h-147v143h147v-143zM500 1086h-147v143h147v-143z" />
    <glyph glyph-name="uniFBE1" unicode="&#x6c5;" horiz-adv-x="936" arabic-form="final" 
d="M0 -295q77 -30 157.5 -44.5t154.5 -14.5q71 0 123 14t89 40t61.5 64.5t41.5 87.5h-480v98h501q7 40 10 83.5t4 86.5q-38 -19 -83 -28.5t-99 -9.5q-66 0 -125.5 21t-104.5 60t-71.5 95t-26.5 125q0 65 23.5 131t64.5 119.5t96 87t118 33.5t122.5 -40t106 -118t74.5 -193
t28 -265v-21h151v-131h-160q-11 -108 -42.5 -195.5t-87 -149.5t-137.5 -95.5t-194 -33.5q-85 0 -166 17t-149 48v128zM628 402q-15 48 -36 88t-46 68.5t-52.5 44.5t-54.5 16q-31 0 -60 -19t-52 -50t-37 -71t-14 -81q0 -43 16.5 -78t46.5 -59.5t71 -37.5t90 -13q43 0 79.5 7
t77.5 26q-1 14 -3.5 34t-6 41.5t-8.5 43.5t-11 40z" />
    <glyph glyph-name="uniFBE3" unicode="&#x6c9;" horiz-adv-x="936" arabic-form="final" 
d="M0 -295q79 -32 160 -45.5t162 -13.5q72 0 125 14.5t90.5 42.5t61.5 69.5t39 95.5q5 19 10.5 49.5t9.5 68.5h-145q-89 0 -157.5 22.5t-115 62.5t-71 95t-24.5 120q0 63 23.5 128.5t64.5 119t96 87.5t118 34q76 0 134.5 -45t107.5 -130q42 -74 64.5 -170.5t26.5 -192.5h156
v-131h-157q-9 -111 -40 -198.5t-87 -149t-138 -94t-192 -32.5q-87 0 -167.5 16t-154.5 49v128zM623 315q-14 40 -33.5 77.5t-43 66t-50.5 45.5t-55 17q-33 0 -64 -19t-55 -50t-38.5 -71.5t-14.5 -82.5q0 -85 64.5 -133t192.5 -48h133q-2 44 -10.5 97t-25.5 101zM485 1208
l233 -352h-105l-177 264l-177 -264h-103l231 352h98z" />
    <glyph glyph-name="uniFBE5" unicode="&#x6d0;" horiz-adv-x="1710" arabic-form="final" 
d="M1710 117v-131h-43q-60 0 -105.5 15t-80 40.5t-59.5 58.5t-44.5 68.5t-34.5 71.5t-29 67q-16 41 -30 74.5t-29.5 57t-34.5 36.5t-44 13q-34 0 -54 -20.5t-20 -49.5q0 -22 11 -44t24.5 -47t25 -54t11.5 -66q0 -62 -37.5 -109t-102 -79t-152 -48.5t-187.5 -16.5
q-151 0 -254.5 35.5t-167 100t-91.5 155t-28 200.5q0 63 8.5 123t25.5 129h116q-14 -63 -22 -123t-8 -119q0 -85 21 -153.5t73 -116.5t139.5 -73.5t220.5 -25.5q91 0 153.5 10.5t101 29.5t55.5 44t17 54q0 25 -11 48t-23.5 47t-23.5 51t-11 61q0 39 15.5 72.5t42 58t62 38.5
t75.5 14q44 0 78.5 -20.5t61.5 -52.5t47.5 -70.5t36.5 -75.5q23 -56 42.5 -106t47 -88.5t70 -61t110.5 -22.5h35zM765 -558h-147v143h147v-143zM765 -327h-147v143h147v-143z" />
    <glyph glyph-name="uniFBE6" unicode="&#x6d0;" horiz-adv-x="612" arabic-form="initial" 
d="M441 738v-407q0 -103 -26 -169.5t-71 -105.5t-105.5 -54.5t-128.5 -15.5h-110q-35 0 -52.5 19t-17.5 47q0 27 17.5 46t52.5 19h115q52 0 90.5 10.5t64 35t38.5 66t13 103.5v406h120zM426 -558h-147v143h147v-143zM426 -327h-147v143h147v-143z" />
    <glyph glyph-name="uniFBE7" unicode="&#x6d0;" horiz-adv-x="684" arabic-form="medial" 
d="M441 338q0 -66 12.5 -109t41 -67.5t75 -34.5t114.5 -10v-131h-52q-101 0 -164.5 33t-90.5 92h-4q-38 -63 -103 -94t-143 -31h-127q-35 0 -52.5 19t-17.5 47q0 27 17.5 46t52.5 19h124q40 0 76 10t63 32t42.5 57.5t15.5 86.5v435h120v-400zM446 -558h-147v143h147v-143z
M446 -327h-147v143h147v-143z" />
    <glyph glyph-name="uniFBE8" unicode="&#x649;" horiz-adv-x="612" arabic-form="initial" 
d="M441 738v-407q0 -103 -26 -169.5t-71 -105.5t-105.5 -54.5t-128.5 -15.5h-110q-35 0 -52.5 19t-17.5 47q0 27 17.5 46t52.5 19h115q52 0 90.5 10.5t64 35t38.5 66t13 103.5v406h120z" />
    <glyph glyph-name="uniFBE9" unicode="&#x649;" horiz-adv-x="684" arabic-form="medial" 
d="M441 338q0 -66 12.5 -109t41 -67.5t75 -34.5t114.5 -10v-131h-52q-101 0 -164.5 33t-90.5 92h-4q-38 -63 -103 -94t-143 -31h-127q-35 0 -52.5 19t-17.5 47q0 27 17.5 46t52.5 19h124q40 0 76 10t63 32t42.5 57.5t15.5 86.5v435h120v-400z" />
    <glyph glyph-name="uniFBEA" unicode="&#xfbea;" horiz-adv-x="1125" arabic-form="isolated" 
d="M513 -14h-37q-88 0 -146.5 24.5t-94 67.5t-50 102.5t-14.5 128.5v1207h120v-1148q0 -71 8.5 -119t32.5 -77.5t67.5 -42t113.5 -12.5v-131zM954 738v-407q0 -103 -26 -169.5t-71 -105.5t-105.5 -54.5t-128.5 -15.5h-110q-35 0 -52.5 19t-17.5 47q0 27 17.5 46t52.5 19h115
q52 0 90.5 10.5t64 35t38.5 66t13 103.5v406h120zM982 1200q-13 3 -27.5 5t-30.5 2q-50 0 -83.5 -23t-33.5 -68q0 -93 136 -93h83v-87h-342v81h90l1 5q-23 23 -36.5 52t-13.5 62q0 34 14 63.5t39.5 51t61 33.5t78.5 12q31 0 64 -6v-90z" />
    <glyph glyph-name="uniFBEB" unicode="&#xfbeb;" horiz-adv-x="1197" arabic-form="final" 
d="M513 -14h-37q-88 0 -146.5 24.5t-94 67.5t-50 102.5t-14.5 128.5v1207h120v-1148q0 -71 8.5 -119t32.5 -77.5t67.5 -42t113.5 -12.5v-131zM954 338q0 -66 12.5 -109t41 -67.5t75 -34.5t114.5 -10v-131h-52q-101 0 -164.5 33t-90.5 92h-4q-38 -63 -103 -94t-143 -31h-127
q-35 0 -52.5 19t-17.5 47q0 27 17.5 46t52.5 19h124q40 0 76 10t63 32t42.5 57.5t15.5 86.5v435h120v-400zM982 1200q-13 3 -27.5 5t-30.5 2q-50 0 -83.5 -23t-33.5 -68q0 -93 136 -93h83v-87h-342v81h90l1 5q-23 23 -36.5 52t-13.5 62q0 34 14 63.5t39.5 51t61 33.5
t78.5 12q31 0 64 -6v-90z" />
    <glyph glyph-name="uniFBEC" unicode="&#xfbec;" horiz-adv-x="1588" arabic-form="isolated" 
d="M684 934h122v-582q0 -64 8 -109t27.5 -73t52 -40.5t82.5 -12.5v-131h-22q-52 0 -97 15t-79 43.5t-56.5 71t-29.5 98.5q-44 -19 -98.5 -28.5t-109.5 -9.5q-68 0 -127.5 16t-103.5 48.5t-69.5 81t-25.5 114.5q0 79 37 145.5t105.5 118t166 87t217.5 53.5v94zM276 451
q0 -38 16 -66.5t44.5 -47.5t69 -28t89.5 -9q54 0 104.5 9.5t84.5 23.5v388q-94 -14 -169.5 -39.5t-128.5 -60.5t-81.5 -78t-28.5 -92zM1417 738v-407q0 -103 -26 -169.5t-71 -105.5t-105.5 -54.5t-128.5 -15.5h-110q-35 0 -52.5 19t-17.5 47q0 27 17.5 46t52.5 19h115
q52 0 90.5 10.5t64 35t38.5 66t13 103.5v406h120zM1445 1200q-13 3 -27.5 5t-30.5 2q-50 0 -83.5 -23t-33.5 -68q0 -93 136 -93h83v-87h-342v81h90l1 5q-23 23 -36.5 52t-13.5 62q0 34 14 63.5t39.5 51t61 33.5t78.5 12q31 0 64 -6v-90z" />
    <glyph glyph-name="uniFBED" unicode="&#xfbed;" horiz-adv-x="1660" arabic-form="final" 
d="M684 934h122v-582q0 -64 8 -109t27.5 -73t52 -40.5t82.5 -12.5v-131h-22q-52 0 -97 15t-79 43.5t-56.5 71t-29.5 98.5q-44 -19 -98.5 -28.5t-109.5 -9.5q-68 0 -127.5 16t-103.5 48.5t-69.5 81t-25.5 114.5q0 79 37 145.5t105.5 118t166 87t217.5 53.5v94zM276 451
q0 -38 16 -66.5t44.5 -47.5t69 -28t89.5 -9q54 0 104.5 9.5t84.5 23.5v388q-94 -14 -169.5 -39.5t-128.5 -60.5t-81.5 -78t-28.5 -92zM1417 338q0 -66 12.5 -109t41 -67.5t75 -34.5t114.5 -10v-131h-52q-101 0 -164.5 33t-90.5 92h-4q-38 -63 -103 -94t-143 -31h-127
q-35 0 -52.5 19t-17.5 47q0 27 17.5 46t52.5 19h124q40 0 76 10t63 32t42.5 57.5t15.5 86.5v435h120v-400zM1445 1200q-13 3 -27.5 5t-30.5 2q-50 0 -83.5 -23t-33.5 -68q0 -93 136 -93h83v-87h-342v81h90l1 5q-23 23 -36.5 52t-13.5 62q0 34 14 63.5t39.5 51t61 33.5
t78.5 12q31 0 64 -6v-90z" />
    <glyph glyph-name="uniFBEE" unicode="&#xfbee;" horiz-adv-x="1548" arabic-form="isolated" 
d="M0 -295q79 -32 160 -45.5t162 -13.5q72 0 125 14.5t90.5 42.5t61.5 69.5t39 95.5q5 19 10.5 49.5t9.5 68.5h-145q-89 0 -157.5 22.5t-115 62.5t-71 95t-24.5 120q0 63 23.5 128.5t64.5 119t96 87.5t118 34q76 0 134.5 -45t107.5 -130q42 -74 64.5 -170.5t26.5 -192.5h156
v-131h-157q-9 -111 -40 -198.5t-87 -149t-138 -94t-192 -32.5q-87 0 -167.5 16t-154.5 49v128zM623 315q-14 40 -33.5 77.5t-43 66t-50.5 45.5t-55 17q-33 0 -64 -19t-55 -50t-38.5 -71.5t-14.5 -82.5q0 -85 64.5 -133t192.5 -48h133q-2 44 -10.5 97t-25.5 101zM1377 738
v-407q0 -103 -26 -169.5t-71 -105.5t-105.5 -54.5t-128.5 -15.5h-110q-35 0 -52.5 19t-17.5 47q0 27 17.5 46t52.5 19h115q52 0 90.5 10.5t64 35t38.5 66t13 103.5v406h120zM1405 1200q-13 3 -27.5 5t-30.5 2q-50 0 -83.5 -23t-33.5 -68q0 -93 136 -93h83v-87h-342v81h90
l1 5q-23 23 -36.5 52t-13.5 62q0 34 14 63.5t39.5 51t61 33.5t78.5 12q31 0 64 -6v-90z" />
    </font>
</defs>
</svg>
